<svg width="493" height="227" viewBox="0 0 493 227" fill="none" xmlns="http://www.w3.org/2000/svg">
<g opacity="0.1" clip-path="url(#clip0_120_161)">
<path d="M453.256 62.0261C398.788 14.7631 282.098 -6.36487 166.541 11.4021C105.449 20.7949 46.3163 40.9233 16.3757 81.6469C-37.1462 154.445 71.5346 180.295 142.764 189.291C177.206 193.641 209.59 200.421 239.125 209.351C292.263 225.416 386.593 240.629 459.22 179.787C511.86 135.688 489.537 93.5079 453.256 62.0261Z" fill="#F2F2F2"/>
<path d="M131.749 64.5059C131.609 63.7697 131.311 63.0455 130.861 62.3512C130.804 62.2205 130.703 62.0977 130.564 61.9906C130.424 61.8835 130.25 61.7944 130.051 61.729C129.785 61.682 129.505 61.6743 129.236 61.7067L125.042 62.0032C124.691 62.0055 124.354 62.0765 124.082 62.2053C123.53 62.537 124.055 63.1002 124.029 63.5729C123.999 64.1045 123.2 64.5199 122.34 64.645C121.462 64.7326 120.56 64.7073 119.692 64.5706L113.85 63.9056C115.581 63.6122 117.128 63.0315 118.315 62.2301C119.096 61.7003 119.527 60.69 118.419 60.4086C118.09 60.3474 117.745 60.3237 117.404 60.3387C114.751 60.2962 112.691 58.9289 110.22 58.3199C108.638 57.9531 106.913 57.8926 105.293 58.147C103.673 58.4014 102.241 58.9575 101.2 59.736L104.317 59.8904C104.61 59.8868 104.9 59.9392 105.144 60.0401C105.821 60.39 104.958 61.0173 105.043 61.5451C105.154 62.2307 106.668 62.4079 107.81 62.5007C108.952 62.5934 110.391 63.1788 109.828 63.7708C104.057 64.8356 98.2819 61.2174 92.2379 61.5231C90.7082 61.6005 89.2585 61.9294 87.7625 62.1242C78.6241 63.3141 69.2822 59.442 59.9599 60.0283C57.8866 60.1965 55.8466 60.4751 53.8641 60.8609C52.5923 61.0834 51.2657 61.3248 50.3334 61.8826C49.4012 62.4403 49.0306 63.4193 49.8899 64.0404C47.4845 64.1091 45.0682 63.9216 42.7535 63.4866C43.3773 63.7084 43.8935 64.0252 44.2479 64.4039C44.6024 64.7825 44.7819 65.209 44.7678 65.6386C41.0082 65.9269 37.3418 66.5174 33.8671 67.3941C34.4987 68.0487 35.2395 68.6642 36.0778 69.2311L31.2901 70.9576C32.8899 71.2326 33.6925 72.5582 32.7424 73.3562C34.4155 72.9479 35.4704 71.8242 37.2546 71.6288C38.4234 71.5008 39.6036 71.8105 40.7039 72.1012C41.8042 72.392 43.0143 72.6768 44.1632 72.4995C45.3122 72.3221 46.1749 71.452 45.4592 70.8714C50.3699 70.1189 55.4366 69.751 60.5336 69.7769C60.9273 69.7555 61.325 69.809 61.6704 69.9298C62.328 70.2187 62.1412 70.8094 62.0955 71.2909C62.0498 71.7725 62.6653 72.4193 63.3906 72.2168C62.5334 72.639 63.2413 73.4818 64.0453 73.961C64.8494 74.4403 65.8168 75.0986 65.3063 75.6898C65.173 75.8441 64.9499 75.9652 64.8216 76.121C64.4427 76.5809 65.0176 77.1382 65.7027 77.463C66.3877 77.7878 67.2302 78.0223 67.7016 78.4623C68.173 78.9022 67.9393 79.6503 67.0792 79.6926L64.6763 77.7886C63.8315 78.2886 63.2463 78.9247 62.9885 79.6233C65.5511 80.9423 65.8872 83.5261 63.6885 85.0038C62.5648 85.7589 60.98 86.1992 59.5929 86.7776C58.2057 87.3561 56.9158 88.194 56.8982 89.2158C56.8676 90.9811 56.5925 92.6161 57.6649 94.2756C59.6423 97.3356 61.9366 100.322 64.5342 103.218C65.2164 103.979 66.101 104.815 67.5115 104.973C65.7793 102.336 64.2262 99.6625 62.8522 96.9522C63.7832 96.9736 64.8582 97.0401 65.3947 97.5024C65.8389 97.8853 65.7313 98.391 65.8624 98.8473C66.0319 99.2901 66.3211 99.715 66.7184 100.105L75.0589 109.365C75.7503 110.133 76.5446 110.958 77.8894 111.291C78.7493 111.504 79.7495 111.488 80.5389 111.785C81.1576 112.018 81.5693 112.417 82.2003 112.638C83.9848 113.261 86.5063 112.188 88.1707 112.923C88.6466 113.133 88.9454 113.457 89.383 113.695C90.917 114.53 93.4718 114.046 95.2494 114.682C96.3951 115.092 96.977 115.876 97.5779 116.588C99.083 118.373 101.541 120.141 104.842 120.349C105.878 120.415 106.941 120.319 107.952 120.478C108.964 120.637 109.951 121.187 109.776 121.798C109.475 122.845 110.321 124.017 110.065 125.069C109.6 126.986 105.015 127.737 104.582 129.658C104.488 130.078 104.613 130.516 104.437 130.926C104.22 131.428 103.575 131.828 103.339 132.326C102.891 133.272 104.014 134.245 105.257 134.912C106.499 135.58 107.985 136.165 108.653 137.077C109.359 138.042 108.98 139.142 109.195 140.181C109.663 142.45 112.891 144.192 116.225 145.341C117.241 145.691 118.333 146.032 118.983 146.616C119.832 147.379 119.726 148.359 119.996 149.255C120.657 151.449 123.688 153.308 123.73 155.529C123.759 157.107 122.263 158.508 121.356 159.978C120.505 161.387 120.177 162.896 120.393 164.402C120.609 165.908 121.365 167.376 122.608 168.705C123.25 169.38 124.021 170.02 124.469 170.747C125.27 172.044 124.972 173.494 125.708 174.804C126.681 176.535 129.422 178.006 129.119 179.808C130.345 181.396 133.107 182.221 135.89 182.743L140.879 183.68C141.834 183.859 142.832 184.041 143.81 183.945C144.789 183.85 145.73 183.385 145.717 182.79C143.269 182.408 140.743 182.003 138.738 181.067C136.733 180.131 135.38 178.509 136.177 177.092C136.547 176.435 137.32 175.683 136.612 175.119C136.206 174.797 135.454 174.699 134.995 174.402C134.278 173.94 134.543 173.194 135.076 172.665C135.608 172.136 136.372 171.67 136.595 171.064C136.708 170.725 136.645 170.37 136.413 170.049C136.181 169.727 135.791 169.454 135.297 169.265C136.23 169.075 137.08 168.768 137.794 168.365C138.455 167.934 138.77 167.254 138.268 166.738C139.788 166.885 141.584 166.978 142.597 166.303C143.407 165.763 143.369 164.931 143.068 164.217C142.768 163.502 142.249 162.803 142.248 162.071C145.757 162.243 149.277 162.244 152.774 162.075C152.29 161.047 151.16 160.164 149.624 159.613C151.209 159.486 152.673 158.383 153.192 157.482C153.71 156.581 153.603 155.586 153.314 154.638C153.2 154.394 153.189 154.137 153.282 153.892C153.467 153.556 154.029 153.361 154.548 153.194L162.454 150.661C162.925 150.53 163.354 150.351 163.721 150.133C164.555 149.572 164.451 148.697 164.045 147.973C163.639 147.249 162.978 146.562 162.831 145.806C162.393 143.546 166.455 142.014 167.858 139.924C168.409 139.104 168.536 138.203 168.658 137.317C168.788 136.365 168.819 135.257 167.607 134.617C166.445 134.003 164.607 134.097 163.39 133.523C162.274 132.997 161.905 132.013 160.683 131.582C159.573 131.19 158.167 131.395 156.927 131.196C154.745 130.846 153.399 129.309 151.167 129.123C149.907 129.018 148.472 129.357 147.448 128.897C146.545 128.491 146.524 127.712 146.365 127.049C146.082 126.017 145.279 125.054 144.065 124.291C142.85 123.528 141.282 123 139.571 122.78C138.274 122.628 136.857 122.647 135.76 122.196C134.649 121.74 134.152 120.92 133.284 120.302C131.886 119.307 129.66 118.918 127.574 118.581L119.089 117.208C117.582 116.965 115.637 116.812 114.81 117.586C114.564 117.883 114.388 118.199 114.286 118.526C113.97 119.114 113.348 119.624 112.509 119.98C111.67 120.337 110.658 120.523 109.618 120.512C108.919 119.77 107.775 119.211 106.423 118.953C105.563 118.791 104.64 118.756 103.821 118.527C103.376 118.387 102.981 118.195 102.66 117.962C102.34 117.729 102.101 117.461 101.958 117.173C101.815 116.885 101.771 116.584 101.829 116.289C101.886 115.993 102.044 115.709 102.294 115.454C102.795 114.942 102.997 114.341 102.868 113.745C102.74 113.149 102.287 112.59 101.582 112.156C100.15 111.349 98.0609 111.118 96.1188 111.155C95.6242 110.482 96.4895 109.751 97.4152 109.288C98.3409 108.825 99.4627 108.374 99.677 107.659C100.014 106.533 97.6165 105.624 95.7755 105.923C93.9345 106.223 92.742 107.264 91.9465 108.298C91.49 108.891 91.0995 109.518 90.3887 110.011C89.6779 110.505 88.5426 110.845 87.4793 110.66C85.9739 110.398 85.4129 109.313 85.0975 108.396C84.6743 107.165 84.2489 105.917 84.3687 104.67C84.4885 103.423 85.2193 102.155 86.7773 101.341C89.3161 100.015 93.1643 100.229 96.5476 100.519C95.7584 99.9635 95.975 99.0588 96.8419 98.5689C97.2989 98.3381 97.8457 98.1787 98.4348 98.1045C99.0238 98.0304 99.6374 98.0438 100.222 98.1435C101.241 98.2917 102.154 98.6395 102.814 99.131C103.762 99.8528 104.016 100.806 104.728 101.618C105.439 102.43 107.061 103.143 108.409 102.743C109.574 102.398 109.777 101.443 109.505 100.672C109.233 99.9007 108.637 99.1443 108.757 98.3648C108.987 96.8775 111.591 96.0333 113.885 95.4663C116.179 94.8992 118.809 94.1272 119.201 92.6542C119.219 92.3646 119.317 92.0798 119.489 91.811C119.747 91.5758 120.103 91.3853 120.523 91.2577C127.235 88.7641 134.06 86.2407 141.7 84.9603C142.097 84.8937 142.142 84.9778 142.547 84.9275C143.115 84.744 142.752 84.1964 142.215 83.9677C141.679 83.739 140.958 83.5572 140.829 83.1731C140.734 82.8907 141.015 82.6212 141.093 82.3392C141.284 81.6463 139.903 80.9743 138.815 81.2304C138.214 80.7337 139.435 80.1961 140.417 80.0553C143.364 79.6327 146.385 79.4006 149.428 79.3628C149.78 79.3367 150.139 79.3807 150.45 79.4881C150.956 79.7102 150.881 80.1942 150.513 80.4888C150.144 80.7833 149.577 80.9613 149.121 81.2075C148.622 81.4845 148.263 81.8398 148.083 82.2347C147.903 82.6296 147.908 83.0489 148.1 83.4469C149.677 83.9627 151.393 84.4956 153.155 84.3618C154.918 84.2281 156.503 83.0788 155.696 82.118C154.944 81.2234 152.636 80.9773 152.258 80.006C151.816 78.8688 154.506 77.9211 153.928 76.8042C153.674 76.315 152.874 76.0136 152.263 75.6516C151.541 75.2082 151.055 74.6476 150.87 74.0433C150.684 73.439 150.807 72.8193 151.222 72.2656C150.212 72.3507 149.178 72.2893 148.205 72.0864C147.232 71.8835 146.35 71.545 145.632 71.0994C144.306 70.2615 143.262 68.9615 141.355 68.9583C139.605 68.9554 138.073 70.1446 136.445 69.7384C136.045 69.6385 135.624 69.4433 135.232 69.5445C135.103 69.5915 134.995 69.6556 134.915 69.732C134.834 69.8084 134.785 69.8951 134.769 69.9855C134.329 71.1653 135.016 72.534 133.912 73.5385C132.71 74.6315 129.98 74.73 128.531 75.7081C127.744 76.2391 127.428 76.9699 126.703 77.5318C125.978 78.0937 124.458 78.4291 123.612 77.9089C124.044 77.4006 124.171 76.8161 123.973 76.2508C123.775 75.6855 123.263 75.1728 122.522 74.7965C121.734 74.4702 120.883 74.2035 119.989 74.0025C118.991 73.7278 118.043 73.3899 117.161 72.9947C116.719 72.8249 116.362 72.5858 116.13 72.3043C115.949 71.9541 115.982 71.5795 116.223 71.2482C116.672 70.5134 117.451 69.8704 118.476 69.3887C119.501 68.907 120.732 68.6048 122.037 68.5149C123.178 68.4457 124.504 68.5058 125.268 68.0024C125.673 67.736 125.891 67.3251 126.472 67.2256C126.843 67.1887 127.227 67.225 127.566 67.3289L131.8 68.3118C132.272 68.4497 132.793 68.5121 133.311 68.4929C133.569 68.4775 133.805 68.4044 133.972 68.2881C134.139 68.1718 134.225 68.021 134.213 67.8659C134.086 67.4409 133.003 67.2158 133.111 66.792C133.169 66.6551 133.296 66.5329 133.474 66.4416C135.029 65.4967 136.921 64.7739 139.016 64.3248C141.11 63.8757 143.355 63.7115 145.59 63.8439C146.116 64.3821 145.254 64.9887 144.538 65.424C143.823 65.8593 143.239 66.6515 144.086 67.0155C144.433 67.1296 144.822 67.19 145.215 67.1914C146.26 67.2977 147.273 67.5033 148.217 67.8002C149.678 68.213 151.11 68.6611 152.514 69.1447C152.401 68.585 152.294 67.9957 152.657 67.4821C153.021 66.9686 154.033 66.5808 154.906 66.8017C155.746 67.0147 156.166 67.6925 157.065 67.7724C158.263 67.879 158.759 66.8282 158.271 66.1605C157.783 65.4927 156.802 64.9218 156.734 64.1992C156.688 63.7118 157.01 63.115 156.367 62.8071C156.137 62.7139 155.876 62.6535 155.603 62.6306L139.42 60.5103C138.459 60.3844 137.066 60.4368 137.011 61.021C136.98 61.3471 137.461 61.6803 137.239 61.9761C137.002 62.2918 136.245 62.2469 135.691 62.3488C134.831 62.507 134.389 63.106 134.46 63.6469C134.599 64.1857 134.936 64.702 135.445 65.1587C134.395 64.8731 132.799 64.7915 131.749 64.5059Z" fill="#3F3D56"/>
<path d="M118.977 56.0045C117.959 55.781 116.857 55.7487 115.821 55.9122C114.785 56.0757 113.865 56.427 113.186 56.9185C112.915 57.1232 112.684 57.4085 112.903 57.6408C113.217 57.9738 114.037 57.8618 114.641 57.7575C115.53 57.5867 116.494 57.5929 117.39 57.7751C117.953 57.9029 118.454 58.1185 119.02 58.242C119.295 58.3168 119.597 58.3459 119.894 58.3262C120.191 58.3064 120.472 58.2385 120.706 58.1297C121.101 57.9001 121.133 57.531 121.141 57.1981C121.17 57.0873 121.157 56.9734 121.104 56.8647C121.05 56.756 120.957 56.6553 120.831 56.57C120.605 56.4866 120.351 56.4361 120.089 56.4228C119.502 56.3456 118.975 56.149 118.597 55.8669" fill="#3F3D56"/>
<path d="M124.846 55.1519C124.617 55.1397 124.389 55.1629 124.182 55.2192C123.975 55.2755 123.797 55.363 123.665 55.4733C123.533 55.5837 123.451 55.7131 123.428 55.8492C123.404 55.9853 123.44 56.1235 123.531 56.2505C124.232 56.3796 124.966 56.4235 125.689 56.3793C126.05 56.3533 126.387 56.2639 126.659 56.1222C126.93 55.9805 127.124 55.7929 127.215 55.5831C126.363 55.658 125.488 55.5397 124.761 55.2512" fill="#3F3D56"/>
<path d="M144.503 53.9311C142.585 54.1348 140.718 54.4739 138.943 54.9414C139.771 55.1499 140.471 55.5106 140.94 55.9703C141.409 56.4301 141.622 56.9645 141.548 57.495C141.469 57.6976 141.473 57.9097 141.56 58.1133C141.758 58.4123 142.345 58.5351 142.861 58.6215C143.788 58.8101 144.759 58.9044 145.731 58.9004C146.218 58.8952 146.692 58.8175 147.111 58.6742C147.529 58.531 147.879 58.3268 148.129 58.08C148.275 57.8439 148.445 57.6138 148.638 57.3908C149.903 56.2855 153.564 57.7293 154.92 56.6638C155.398 56.2885 155.367 55.708 155.985 55.4156C156.305 55.2892 156.674 55.213 157.058 55.1939C159.746 54.9308 162.459 54.7562 165.186 54.6707C166.477 54.6303 168.165 54.388 168.192 53.6137C163.343 52.9424 158.295 53.2436 153.833 54.4705C152.225 54.916 150.091 55.8791 148.564 55.2127C147.993 54.9632 148.035 54.3241 147.247 54.0406C146.442 53.7507 145.366 53.8396 144.503 53.9311Z" fill="#3F3D56"/>
<path d="M160.361 56.0373L162.637 56.3466C162.217 56.3268 161.797 56.3607 161.405 56.446C161.013 56.5313 160.657 56.6661 160.362 56.8414C160.067 57.0167 159.84 57.2285 159.695 57.4626C159.549 57.6966 159.49 57.9476 159.521 58.1988C161.648 58.6698 163.986 58.3027 166.236 58.4059C168.485 58.5092 171.084 59.5247 170.672 60.844C170.548 61.2429 170.152 61.6359 170.345 62.0291C170.481 62.3047 170.879 62.5065 171.101 62.7624C171.563 63.2954 171.171 63.9495 170.564 64.4129C169.957 64.8762 169.146 65.2392 168.612 65.7339C167.282 66.9643 167.989 68.6051 168.737 70.0259C168.95 70.5613 169.355 71.0651 169.922 71.5025C171.058 72.2579 172.932 72.3603 174.611 72.4097C175.833 72.4457 177.234 72.4385 178.019 71.8882C179.044 71.1697 178.362 70.0015 179.044 69.1474C179.664 68.3718 181.208 68.0655 182.606 67.8545C185.167 67.4679 187.776 67.1482 190.202 66.5345C193.215 65.7725 196.041 64.5463 199.336 64.5083C200.261 64.4976 201.206 64.5824 202.099 64.4495C202.992 64.3165 203.847 63.874 203.791 63.3208C203.743 62.8482 203.083 62.4883 202.569 62.1221C202.056 61.756 201.658 61.201 202.144 60.835L210.795 60.0494C210.204 59.0398 209.755 57.7169 211.174 57.097C211.686 56.8733 212.367 56.7938 212.805 56.5196C213.551 56.0524 213.198 55.2137 212.357 54.7858C211.515 54.3579 210.368 54.2389 209.281 54.1623C205.501 53.8961 201.692 53.9416 197.898 53.9875C190.48 54.0772 183.063 54.1668 175.646 54.2565C174.153 54.2746 172.432 54.1642 171.057 54.4403C169.893 54.6741 169.06 55.1301 167.731 55.2689C165.279 55.5251 162.591 55.2618 160.361 56.0373Z" fill="#3F3D56"/>
<path d="M201.01 67.6663C200.778 67.6395 200.54 67.6669 200.344 67.7427C200.214 67.8244 200.136 67.9309 200.122 68.0444C199.964 68.5436 200.129 69.0642 200.583 69.502C200.815 69.7169 201.137 69.8921 201.516 70.0094C201.895 70.1266 202.318 70.1817 202.74 70.1689C203.769 70.1118 204.537 69.6033 205.486 69.3671C206.95 69.0034 213.145 68.5174 208.897 67.0475C207.433 66.5409 206.472 66.9415 205.304 67.231C203.974 67.608 202.49 67.7585 201.01 67.6663Z" fill="#3F3D56"/>
<path d="M238.704 56.8769C238.202 56.9886 237.78 57.1974 237.504 57.4707C237.376 57.6097 237.343 57.774 237.413 57.9296C237.483 58.0852 237.649 58.2201 237.878 58.3064C238.063 58.3507 238.261 58.3736 238.459 58.3737L240.489 58.452C241.351 58.4852 242.426 58.6173 242.647 59.1192C242.812 59.4918 242.417 59.9581 242.876 60.2314C243.074 60.3279 243.312 60.3888 243.564 60.4068C244.23 60.5233 244.928 60.5513 245.608 60.4886C247.091 60.2822 246.326 59.727 246.801 59.2565C247.528 58.5367 247.395 58.9788 248.658 58.5838C249.591 58.292 250.8 57.7528 250.043 56.9444C248.727 55.5387 240.701 56.326 238.704 56.8769Z" fill="#3F3D56"/>
<path d="M278.792 57.0131L277.611 57.0828C274.948 57.2399 272.27 57.3988 269.7 57.8232C270.803 58.1082 271.962 58.3028 273.146 58.4019C273.798 58.4345 274.445 58.503 275.078 58.6065C276.205 58.8312 277.334 59.3746 278.432 59.1309C279.113 58.9798 279.343 58.5626 279.909 58.3506C280.299 58.2043 281.774 57.9848 281.942 57.8324C283.296 56.6004 279.815 56.9527 278.792 57.0131Z" fill="#3F3D56"/>
<path d="M283.902 60.3241C282.317 60.8181 280.842 61.4277 279.512 62.1394C278.952 62.4393 278.378 62.8148 278.419 63.2695C278.473 63.8738 279.54 64.2457 280.466 64.5005L284.215 65.5326C284.68 65.1567 284.273 64.6161 283.808 64.2277C283.343 63.8392 282.791 63.3895 283.009 62.9381C283.258 62.423 284.322 62.2677 285.213 62.1965C286.665 62.0805 290.572 62.173 290.132 60.7672C289.612 59.1107 285.367 59.8681 283.902 60.3241Z" fill="#3F3D56"/>
<path d="M281.22 153.403C280.848 154.016 280.799 154.747 281.408 155.302C282.092 155.925 283.481 156.181 284.69 156.052C285.895 155.885 286.974 155.496 287.775 154.938C288.506 154.472 289.111 153.94 289.568 153.361C290.208 152.456 290.666 151.507 290.932 150.533L292.178 146.883C292.456 146.068 292.498 143.55 289.958 144.318C289.263 144.528 287.631 146.264 286.898 146.751C285.577 147.628 285.386 148.502 284.678 149.583C283.791 150.937 282.042 152.045 281.22 153.403Z" fill="#3F3D56"/>
<path d="M414.126 174.96C413.304 174.75 412.507 174.505 411.742 174.227C410.943 175.482 410.504 176.813 410.444 178.164L416.134 176.369C416.99 176.099 417.962 175.719 417.956 175.135C417.965 175.063 417.942 174.99 417.888 174.925C417.834 174.859 417.753 174.803 417.651 174.763C417.526 174.73 417.39 174.717 417.256 174.727C416.417 174.751 415.648 174.982 414.854 175.137C414.06 175.292 413.134 175.364 412.414 175.094" fill="#3F3D56"/>
<path d="M443.911 176.711C443.289 176.799 442.68 176.917 442.091 177.062C440.786 177.43 439.889 178.161 438.711 178.657C437.584 179.131 436.234 179.376 434.909 179.614C434.517 179.811 434.686 180.228 435.104 180.417C435.554 180.581 436.072 180.661 436.592 180.649C437.963 180.695 439.407 180.733 440.616 180.362C441.298 180.113 441.938 179.826 442.526 179.504C443.944 178.832 445.64 178.405 447.318 177.993C447.928 177.868 448.494 177.679 448.989 177.434C450.051 176.838 450.144 175.886 448.636 175.644C447.418 175.449 445.079 176.51 443.911 176.711Z" fill="#3F3D56"/>
<path d="M457.189 171.839C457.265 171.415 457.18 170.984 456.938 170.579C456.697 170.174 456.305 169.804 455.794 169.499C455.761 170.35 455.699 171.255 454.885 171.942C454.304 172.431 453.403 172.751 452.769 173.216C452.135 173.68 451.842 174.431 452.566 174.865C453.029 175.088 453.597 175.217 454.186 175.234C455.642 175.367 457.328 175.459 458.364 174.85C458.93 174.518 459.212 174.014 459.898 173.775C460.153 173.717 460.381 173.625 460.566 173.505C460.853 173.244 460.414 172.883 459.913 172.776C459.412 172.669 458.857 172.703 458.354 172.601C457.85 172.499 457.393 172.15 457.658 171.88" fill="#3F3D56"/>
<path d="M434.425 140.167C433.657 140.263 432.865 140.274 432.084 140.201C430.789 140.032 429.79 139.426 428.752 138.924C426.284 137.739 423.268 137.043 420.138 136.938C417.291 136.847 414.407 137.249 411.616 136.869C411.786 137.481 412.647 137.955 413.569 138.245C414.492 138.535 415.513 138.693 416.44 138.977C417.925 139.438 419.094 140.199 419.734 141.122C420.025 141.547 420.205 142.007 420.652 142.383C421.567 143.15 423.326 143.351 424.883 143.322C426.912 143.284 429.038 142.979 430.915 143.47C432.351 143.845 433.369 144.622 434.562 145.235C435.755 145.847 437.443 146.318 438.836 145.923C437.404 145.615 436.165 145.043 435.298 144.291C434.431 143.54 433.982 142.647 434.017 141.744C435.373 141.847 439.283 141.899 439.101 140.515C438.947 139.343 435.593 140.065 434.425 140.167Z" fill="#3F3D56"/>
<path d="M416.472 149.309C416.73 148.524 418.062 147.853 417.668 147.08C417.395 146.545 416.374 146.263 415.446 146.23C414.517 146.198 413.601 146.345 412.672 146.341C412.068 146.309 411.462 146.302 410.858 146.319C409.01 146.462 407.85 147.594 406.104 147.969C405.042 148.197 403.856 148.125 402.754 148.275C400.252 148.615 398.644 149.992 396.877 151.092C394.022 152.862 390.326 154.066 386.267 154.548C384.844 154.715 383.317 154.809 382.179 155.337C380.671 156.035 380.278 157.278 379.922 158.406C378.94 161.523 377.474 164.572 375.543 167.514L381.456 168.089C382.581 168.198 383.745 168.307 384.835 168.13C385.627 167.968 386.378 167.746 387.071 167.468C389.729 166.543 392.694 165.967 395.775 165.777C397.328 165.681 398.955 165.692 400.403 166.067C401.852 166.441 403.084 167.249 403.187 168.185C403.818 168.081 404.489 168.082 405.128 168.188C405.767 168.295 406.349 168.502 406.812 168.789C407.728 169.373 408.32 170.11 408.505 170.897C408.651 171.385 408.795 171.969 409.543 172.187C410.153 172.366 410.86 172.202 411.532 172.184C413.811 172.122 415.668 173.748 417.912 173.521C420.318 173.278 420.952 171.14 423.302 170.758C424.652 170.539 426.532 170.879 427.192 170.144C427.773 169.496 426.656 168.712 426.788 167.976C426.951 167.07 428.752 166.721 430.143 166.362C434.936 165.123 437.277 161.334 435.026 158.457C433.693 156.753 431.027 155.378 430.568 153.526C430.215 152.101 431.183 150.469 429.696 149.322C428.939 148.739 427.644 148.399 427.201 147.713C426.922 147.281 427.048 146.8 426.902 146.346C426.757 145.893 426.11 145.409 425.364 145.51C423.199 145.804 422.428 149.775 421.253 150.72C419.467 152.156 415.882 151.112 416.472 149.309Z" fill="#3F3D56"/>
<path d="M376.758 140.482C376.023 140.343 375.22 140.204 374.51 140.366C373.8 140.528 373.374 141.14 373.935 141.46C378.373 141.448 382.838 141.438 387.229 141.889C392.288 142.409 397.282 143.54 402.377 143.343C399.481 142.77 396.534 142.299 393.552 141.932L388.581 141.26C387.248 141.065 385.9 140.912 384.543 140.802C381.703 140.603 379.543 141.008 376.758 140.482Z" fill="#3F3D56"/>
<path d="M381.389 131.335C381.021 131.309 380.566 131.284 380.371 131.469C380.186 131.646 380.389 131.889 380.287 132.09C380.147 132.365 379.539 132.423 379.062 132.375C378.584 132.328 378.069 132.227 377.642 132.356C377.426 132.439 377.262 132.563 377.175 132.708C377.088 132.854 377.083 133.013 377.16 133.163C377.328 133.46 377.602 133.733 377.964 133.962C378.581 134.447 379.286 134.89 380.066 135.282C381.577 135.987 383.636 136.354 384.576 137.35C384.707 137.542 384.912 137.714 385.173 137.852C385.631 138.036 386.234 137.916 386.734 137.79L388.483 137.351C388.798 137.29 389.08 137.182 389.303 137.037C389.707 136.723 389.473 136.259 389.146 135.905C388.82 135.551 388.4 135.182 388.48 134.785C388.622 134.078 390.155 133.838 390.796 133.243C391.441 132.644 391.045 131.846 391.133 131.129C391.236 130.29 392.142 129.215 390.734 128.558C389.537 127.999 388.373 128.468 387.494 129.04C385.639 130.244 384.747 131.572 381.389 131.335Z" fill="#3F3D56"/>
<path d="M392.209 118.995C392.789 119.688 394.019 120.119 394.653 120.795C395.34 121.527 395.241 122.453 395.988 123.164C396.755 123.894 398.319 124.306 398.741 125.127C399.201 126.023 398.093 127.078 398.942 127.871C399.101 128.001 399.303 128.11 399.534 128.192C399.765 128.274 400.021 128.326 400.286 128.346C400.551 128.366 400.819 128.353 401.072 128.308C401.326 128.263 401.56 128.187 401.759 128.084C402.129 127.854 402.331 127.545 402.321 127.222C402.312 126.899 402.092 126.589 401.709 126.356C401.203 126.066 400.47 125.931 400.049 125.595C399.83 125.403 399.686 125.183 399.628 124.955C399.408 124.293 399.46 123.614 399.778 122.974C399.895 122.813 399.928 122.633 399.872 122.457C399.686 122.119 398.929 122.079 398.4 121.913C397.199 121.535 397.249 120.516 397.477 119.727C397.326 120.252 394.195 119.288 393.872 118.982C393.229 118.374 393.609 117.234 393.493 116.574C392.071 116.952 391.5 118.149 392.209 118.995Z" fill="#3F3D56"/>
<path d="M360.271 128.802C359.697 128.401 358.83 127.976 358.046 128.195C357.448 128.362 357.275 128.85 357.5 129.228C357.776 129.596 358.207 129.916 358.749 130.158C360.356 130.992 362.09 131.751 363.487 132.711C365.988 134.429 367.284 136.705 370.009 138.297C370.556 138.664 371.285 138.917 372.085 139.016C372.887 139.077 373.795 138.788 373.897 138.311C373.982 137.918 373.529 137.555 373.085 137.253C372.029 136.535 370.869 135.869 369.873 135.12C369.412 134.831 369.126 134.459 369.063 134.064C369.066 133.672 369.672 133.274 370.305 133.385C369.535 133.251 368.978 132.469 367.848 132.301C366.903 132.161 366.667 132.507 365.545 132.194C363.407 131.599 361.755 129.842 360.271 128.802Z" fill="#3F3D56"/>
<path d="M411.574 91.9655C410.96 91.8431 410.356 91.701 409.766 91.5399C408.176 91.2204 406.049 91.8783 406.241 92.8713C406.369 93.531 407.382 93.9949 407.935 94.5763C408.755 95.4385 408.509 96.5054 408.05 97.4425C407.936 97.7332 407.724 98.0059 407.429 98.2445C407.017 98.4942 406.527 98.6931 405.986 98.8302C403.815 99.5085 401.894 100.435 400.328 101.559C400.158 101.662 400.039 101.791 399.982 101.933C399.899 102.265 400.455 102.52 400.767 102.804C401.459 103.437 400.932 104.259 400.986 105.008C400.973 105.113 401.006 105.219 401.08 105.316C401.155 105.413 401.269 105.498 401.413 105.562C401.835 105.699 402.343 105.491 402.578 105.246C403.359 104.434 402.811 103.094 404.252 102.725C404.525 102.655 404.854 102.63 405.038 102.491C405.329 102.271 405.06 101.931 405.211 101.664C405.437 101.263 406.365 101.264 407.076 101.297C408.301 101.353 409.528 101.281 410.703 101.083C411.163 101.028 411.582 100.892 411.91 100.693C412.345 100.382 412.316 99.9271 412.239 99.5189C411.852 97.4837 410.819 95.503 409.196 93.6837C410.453 93.8059 411.821 93.9175 412.915 93.5476C413.528 93.3406 414.271 92.6987 413.978 92.2454C413.516 91.5285 412.642 92.1058 411.574 91.9655Z" fill="#3F3D56"/>
<path d="M249.966 99.7727C250.107 100.259 250.245 100.771 249.97 101.231C249.696 101.69 248.855 102.062 248.071 101.903C247.463 101.78 247.118 101.405 246.69 101.117C244.312 99.5108 238.855 100.299 237.406 98.3433C236.814 97.5451 237.247 96.6123 236.849 95.7743C236.598 95.2896 236.086 94.865 235.394 94.5672C234.703 94.2694 233.87 94.1154 233.028 94.1292C232.259 94.1797 231.509 94.2976 230.803 94.4792C226.071 95.5093 221.113 96.1464 216.065 96.3727C215.106 96.3878 214.157 96.4714 213.236 96.6215C211.156 97.0275 209.718 98.1458 208.688 99.296C207.657 100.446 206.888 101.699 205.517 102.711C204.076 103.775 202.072 104.5 200.201 105.289C199.482 105.55 198.879 105.91 198.444 106.341C198.032 106.826 198.043 107.4 198.063 107.95L198.304 114.619C198.335 115.477 198.378 116.366 199.003 117.146C199.784 118.12 201.353 118.78 202.433 119.648C203.535 120.541 204.097 121.627 204.022 122.723C203.989 123.163 203.905 123.683 204.474 123.972C204.821 124.115 205.228 124.194 205.645 124.198L220.699 125.248C223.347 125.432 226.281 125.706 227.986 126.95C228.791 127.537 229.431 128.37 230.681 128.457C231.217 128.494 231.742 128.373 232.279 128.359C233.634 128.323 234.811 128.962 235.548 129.654C236.663 130.71 237.153 131.953 236.939 133.179C236.8 133.949 236.384 134.691 236.281 135.463C235.892 138.402 240.014 141.047 240.034 144C240.046 145.737 238.634 147.33 237.259 148.842C239.387 150.851 237.557 153.43 238.373 155.745C239.147 157.941 242.149 159.709 242.861 161.912C243.187 162.92 243.182 164.152 244.647 164.698C245.291 164.901 246.008 165.001 246.728 164.991C251.066 165.112 255.368 164.616 259.282 163.546C261.118 163.042 263.027 162.272 263.371 161.075C263.648 160.11 262.847 159.007 263.702 158.179C264.71 157.203 267.238 157.334 268.706 156.598C271.089 155.404 269.3 152.996 270.292 151.225C271.184 149.634 274.156 148.84 275.65 147.426C276.24 146.817 276.667 146.155 276.918 145.464C277.623 143.814 278.076 142.126 278.27 140.421C278.331 139.383 278.48 138.35 278.718 137.324C280.418 131.49 290.198 127.763 293.463 122.193C293.775 121.661 293.931 120.947 293.137 120.626C292.665 120.48 292.127 120.435 291.614 120.499L284.656 120.879C283.792 120.926 282.876 120.968 282.088 120.737C281.3 120.506 280.745 119.895 281.174 119.449C282.381 118.195 279.987 116.53 278.936 115.198C276.105 111.611 272.716 108.186 268.815 104.969C268.565 104.803 268.41 104.593 268.375 104.372L270.346 104.452C269.71 103.01 268.644 101.425 266.334 100.854C265.033 100.533 263.583 100.605 262.187 100.622C258.189 100.669 253.913 100.22 249.966 99.7727Z" fill="#3F3D56"/>
<path d="M262.868 67.8444C263.9 68.5299 265.057 69.2581 266.567 69.4051C269.235 69.6647 271.19 68.0523 272.443 66.6425C272.481 67.0093 272.756 67.356 273.21 67.6088C273.664 67.8617 274.261 68.0008 274.874 67.9965C275.535 67.9438 276.168 67.8096 276.732 67.6025C282.062 65.982 288.01 65.1881 294.043 65.2919C293.991 65.0174 294.11 64.7434 294.377 64.5226C294.645 64.3018 295.042 64.1499 295.491 64.0963C296.721 63.9762 297.813 64.6332 298.391 65.3041C298.969 65.9751 299.322 66.7462 300.252 67.2587C301.182 67.7712 303.002 67.7873 303.388 67.081C303.759 66.4029 302.577 65.7937 301.593 65.369C300.609 64.9444 299.579 64.1748 300.259 63.5922C305.342 63.0261 310.456 62.4581 315.645 62.432C316.528 62.4687 317.41 62.3962 318.236 62.2192C319.031 62.0035 319.671 61.4896 319.469 60.9739C318.334 61.1096 317.149 61.0391 316.066 60.7712C314.984 60.5033 314.051 60.0503 313.389 59.4699C320.593 59.2636 328.254 59.1192 334.59 61.276C335.335 62.2744 331.417 63.0111 332.443 63.9189C332.77 64.2084 333.436 64.2553 334.014 64.2737C338.445 64.4145 342.902 64.555 347.292 64.2455C348.897 64.1324 350.518 63.9594 352.124 64.1112C354.798 64.3641 357.066 65.4799 359.693 65.8828C360.763 66.0467 361.965 66.0764 362.877 65.7221C363.788 65.3679 364.194 64.5267 363.464 64.0265C365.974 62.624 370.084 63.0695 373.342 63.8332C376.6 64.5968 379.677 65.7834 383.138 66.0101C385.619 66.1727 388.145 65.8253 390.594 66.13C392.133 66.3215 393.56 66.7614 395.062 67.0446C397.903 67.5803 400.921 67.542 403.881 67.6262C411.432 67.8432 418.883 68.8853 425.866 70.7007C426.776 70.8973 427.606 71.2101 428.299 71.617C428.943 72.0486 429.262 72.7053 428.813 73.2045L421.575 72.421C422.241 73.2394 424.006 73.413 425.436 73.7202C426.865 74.0273 428.334 75.006 427.456 75.7281C425.907 75.3999 424.478 76.3006 423.675 77.1398C422.872 77.9791 421.893 78.9839 420.262 79.0023C418.802 79.0188 417.052 78.2392 416.087 78.883C417.381 79.9017 418.484 81.0009 419.376 82.1604C420.292 83.3507 420.931 84.8399 419.638 85.8671C419.435 86.051 419.129 86.1853 418.773 86.2469C417.732 86.3825 417.074 85.6096 416.339 85.1342C415.414 84.5351 413.999 84.3416 412.735 84.0435C411.471 83.7454 410.145 83.183 410.062 82.3767C410.01 81.875 410.462 81.419 410.797 80.9632C411.36 80.195 411.617 79.3556 411.547 78.51C411.49 77.8298 411.186 77.1171 410.381 76.6259C409.575 76.1348 408.171 75.9552 407.287 76.3715C406.874 76.5658 406.54 76.8832 406.009 76.8844C405.072 76.8864 404.373 75.8947 403.612 76.2126C403.693 76.5697 403.562 76.9298 403.243 77.2298C400.969 78.3532 397.523 77.7868 394.614 78.1401C393.23 78.3476 391.903 78.6651 390.667 79.0842C390.206 79.1921 389.811 79.38 389.533 79.6243C389.162 80.0375 389.55 80.5845 390.183 80.8775C390.854 81.1396 391.611 81.3106 392.4 81.3779C395.927 81.8514 399.501 82.5455 402.265 83.9612C405.028 85.3769 406.812 87.6597 405.886 89.7274L398.996 85.5992C399.226 87.2775 399.341 88.958 399.342 90.6407C399.381 90.9701 399.298 91.2989 399.101 91.6041C398.591 92.2503 397.239 92.4434 396.055 92.5639C395.726 92.5944 395.413 92.6664 395.137 92.7751C394.86 92.8839 394.627 93.0269 394.451 93.1947C394.276 93.3626 394.163 93.5516 394.119 93.7493C394.076 93.9469 394.103 94.1488 394.199 94.3416C394.602 95.1678 395.634 95.8268 396.579 96.4817C397.523 97.1366 398.451 97.878 398.558 98.7324C398.666 99.5869 397.571 100.525 396.146 100.436C395.065 100.369 394.275 99.7733 393.826 99.1771C393.377 98.5809 393.116 97.9217 392.433 97.4089C390.366 95.8568 385.641 96.4058 383.795 94.7585C383.309 95.0735 382.969 95.4594 382.806 95.8795C382.643 96.2996 382.664 96.74 382.866 97.1589C383.747 96.8497 384.938 97.1786 385.585 97.6677C386.232 98.1568 386.529 98.773 387.034 99.3177C387.715 100.053 388.81 100.715 388.89 101.547C388.857 101.861 388.86 102.175 388.897 102.489C389.059 102.996 389.762 103.372 390.247 103.803C391.374 104.805 391.289 106.148 390.527 107.243C389.765 108.338 388.417 109.238 387.082 110.11C384.752 111.633 382.374 113.147 379.623 114.395C378.838 114.751 378 115.1 377.505 115.61C377.01 116.121 376.97 116.851 377.706 117.262C377.174 117.267 376.215 117.404 375.683 117.409C375.522 116.128 375.508 114.843 375.64 113.565C373.552 112.919 371.256 114.487 371.499 115.877C371.741 117.267 373.393 118.412 374.56 119.635C375.413 120.529 376.04 121.563 375.728 122.561C375.417 123.559 373.898 124.455 372.202 124.331C369.504 124.134 368.423 121.793 365.754 121.472C365.518 121.434 365.271 121.444 365.049 121.499C364.649 121.621 364.574 121.938 364.546 122.208C364.409 123.533 364.286 124.911 365.127 126.153C366.358 127.97 369.602 129.541 368.875 131.427C365.196 130.322 363.323 127.8 362.498 125.398C361.674 122.996 361.58 120.491 360.06 118.205C358.852 119.092 356.368 118.286 355.302 117.308C354.29 116.38 353.678 115.318 352.697 114.379C351.717 113.439 350.203 112.585 348.373 112.497C346.454 112.404 344.773 113.157 343.294 113.871C342.077 114.458 340.828 115.069 340.107 115.9C339.057 117.11 339.295 118.567 339.217 119.941C339.133 121.426 338.574 122.983 336.858 124.036C335.141 125.089 332.007 125.403 330.159 124.384C329.194 123.852 328.737 123.078 328.332 122.335C326.377 118.754 324.763 115.114 323.497 111.432C323.166 112.26 321.919 113.309 320.759 112.794C320.499 112.656 320.29 112.488 320.145 112.3C318.009 110.043 313.995 108.633 309.928 107.753C305.861 106.873 301.573 106.413 297.553 105.456C295.3 104.919 293.152 104.23 291.151 103.404C290.627 103.845 290.316 104.365 290.25 104.91C290.185 105.454 290.367 106.002 290.777 106.496C291.653 107.463 293.669 108.054 295.411 107.758C296.311 107.605 297.076 107.249 297.969 107.083C298.863 106.918 300.055 107.033 300.433 107.554C300.796 108.052 300.221 108.634 300.489 109.152C300.898 109.941 302.865 110.041 303.538 110.766C304.039 111.304 303.603 111.997 302.864 112.408C302.124 112.819 301.144 113.033 300.245 113.311C297.33 114.214 295.237 115.815 292.681 117.041C290.124 118.267 286.535 119.127 283.536 118.245C284.3 116.083 279.997 114.396 279.245 112.212C278.997 111.494 279.149 110.739 278.788 110.036C278.266 109.019 276.788 108.296 275.579 107.509C274.113 106.543 272.978 105.416 272.243 104.193C271.507 102.971 271.185 101.678 271.295 100.391C271.379 99.4972 271.673 98.5929 271.35 97.713C271.027 96.8332 269.836 95.9634 268.338 95.972C264.916 95.9916 260.604 96.0547 258.846 94.2741C258.218 93.6387 257.958 92.7216 258.894 92.264C259.554 91.9412 260.518 91.9928 261.375 92.061L269.071 92.6737C270.871 92.817 272.818 92.9448 274.376 92.4133C275.935 91.8819 276.636 90.4001 275.217 89.7076C274.181 89.2016 272.305 89.1891 272.017 88.4127C271.777 87.7661 272.979 87.063 272.349 86.5137C271.898 86.1199 270.862 86.2051 270.229 86.4803C269.597 86.7555 269.134 87.1674 268.428 87.371C267.191 87.7283 265.729 87.3337 264.411 87.0588C263.093 86.784 261.32 86.7263 260.664 87.4477C259.929 88.2546 261.261 89.3594 260.532 90.1681C259.567 91.2372 256.391 90.5516 255.05 91.4606C253.51 92.5038 256.027 94.1588 255.487 95.5209C254.829 95.7009 254.101 95.7747 253.374 95.7352C252.647 95.6957 251.944 95.5442 251.336 95.2955C250.739 95.0378 250.265 94.6895 249.966 94.2877C249.667 93.8858 249.555 93.4454 249.64 93.0134C249.779 92.3985 250.33 91.7793 249.982 91.1883C249.7 90.7104 248.913 90.4132 248.182 90.1546L240.745 87.5253C240.034 88.2821 240.893 89.2564 241.98 89.8585C243.067 90.4605 244.435 90.9252 245.142 91.7025C245.587 92.2401 245.677 92.8548 245.392 93.421C245.108 93.9871 244.47 94.4621 243.609 94.7489C243.501 94.7908 243.379 94.8181 243.251 94.8288C243.122 94.8395 242.991 94.8334 242.866 94.8109C242.747 94.7665 242.644 94.7084 242.563 94.6402C242.481 94.572 242.423 94.495 242.392 94.4139C241.113 92.3646 239.17 90.3301 236.02 89.2083C232.871 88.0865 228.309 88.2094 226.192 89.9457C225.69 90.358 225.348 90.8329 224.908 91.2708C222.573 93.5973 217.648 94.6201 213.07 94.4519C212.622 94.4575 212.178 94.3857 211.79 94.245C211.057 93.9241 211.103 93.2762 211.228 92.7449L211.755 90.4905C211.861 90.0378 212.011 89.5381 212.619 89.2667C213.476 88.8842 214.694 89.162 215.775 89.175C216.594 89.169 217.384 89.0124 218.039 88.7265C218.694 88.4405 219.182 88.0391 219.436 87.5765C219.664 87.1087 219.673 86.6097 219.462 86.1334C219.251 85.657 218.827 85.2212 218.238 84.873C217.748 84.5846 217.091 84.2216 217.36 83.852C217.467 83.7505 217.61 83.6646 217.779 83.6005C217.948 83.5364 218.14 83.4955 218.34 83.4808C220.288 83.184 222.34 83.138 224.257 82.7799C226.173 82.4217 228.041 81.6465 228.517 80.478C228.663 80.12 228.735 79.684 229.281 79.5163C229.554 79.4532 229.847 79.4236 230.142 79.4291C231.179 79.3624 232.127 79.0655 232.801 78.5967C233.475 78.1279 233.826 77.5212 233.784 76.8961C234.706 76.5329 235.982 76.8404 236.858 77.2652C237.734 77.6899 238.504 78.243 239.577 78.4405C241.577 78.8085 243.538 77.7864 245.617 77.8245C246.491 77.8405 247.393 78.0441 248.219 77.8838C249.057 77.7213 249.565 77.2353 250.212 76.8818C250.86 76.5283 251.988 76.3278 252.57 76.7351L252.113 74.4957C253.124 74.6697 254.18 74.7133 255.211 74.6233C256.242 74.5334 257.224 74.3121 258.091 73.9742L251.614 72.5256C251.388 72.4871 251.18 72.416 251.009 72.3186C250.543 72.0043 251.022 71.5396 251.414 71.2014C252.351 70.3924 252.534 69.0317 251.03 68.5882C250.003 68.2855 248.811 68.5988 247.813 68.9087L243.033 70.3933C242.871 70.9298 243.968 71.2584 244.644 71.636C245.053 71.8645 245.34 72.1601 245.467 72.4841C245.594 72.8081 245.555 73.1453 245.355 73.4514C245.155 73.7574 244.803 74.0181 244.347 74.1992C243.89 74.3802 243.349 74.4732 242.796 74.4658C243.103 74.7153 243.315 75.0017 243.414 75.3039C243.514 75.6061 243.499 75.9163 243.371 76.2116L240.174 76.2829C239.814 76.3186 239.443 76.2674 239.14 76.1406C238.802 75.9521 238.855 75.6351 238.782 75.3644C238.604 74.711 237.55 74.2339 236.467 74.0947C235.384 73.9556 234.271 74.0822 233.193 74.2077C232.735 74.2965 232.234 74.2792 231.788 74.1592C231.533 74.054 231.34 73.9026 231.24 73.728C230.783 73.0351 231.24 72.2412 232.009 71.6727C232.778 71.1041 233.822 70.6984 234.763 70.2313C237.012 69.11 238.678 67.6277 239.573 65.9518C241.34 65.5477 243.173 64.9868 244.94 64.5826C247.668 63.8179 250.715 63.5286 253.739 63.7471L259.693 63.9382C261.455 63.9948 263.265 64.0581 264.887 64.4937C266.509 64.9293 267.924 65.8282 268.014 66.8828C268.046 67.0026 268.026 67.1246 267.957 67.2373C267.888 67.3499 267.771 67.4496 267.619 67.5269C267.387 67.5973 267.126 67.6271 266.864 67.6128C265.219 67.6134 264.513 67.8439 262.868 67.8444Z" fill="#3F3D56"/>
<path d="M215.175 78.0226C215.41 77.8957 215.581 77.7317 215.669 77.5485C215.757 77.3654 215.758 77.1702 215.672 76.9845C215.108 76.8421 214.493 76.7959 213.896 76.8509C213.298 76.9059 212.742 77.0599 212.289 77.2958C211.932 77.5018 211.623 77.7359 211.37 77.9918C210.572 78.739 209.861 79.6365 210.297 80.4992C210.332 80.593 210.398 80.6821 210.49 80.7613C210.583 80.8404 210.701 80.908 210.837 80.9602C211.039 81.0131 211.258 81.0382 211.477 81.0334C212.339 81.0506 213.201 81.0367 214.057 80.9919C214.584 80.9643 215.196 80.8882 215.405 80.6001C215.68 80.2213 215.043 79.7731 215.239 79.3764C215.367 79.1999 215.558 79.0429 215.799 78.9166C215.919 78.853 216.012 78.7732 216.07 78.6836C216.128 78.5939 216.15 78.497 216.135 78.4004C216.063 78.2108 215.583 78.0943 215.407 78.254" fill="#3F3D56"/>
<path d="M219.716 74.6496C218.953 74.5286 218.164 74.4827 217.381 74.5135C217.209 74.5069 217.037 74.5266 216.882 74.5709C216.732 74.6335 216.622 74.7248 216.57 74.8302C216.398 75.1437 216.432 75.487 216.664 75.7917C216.896 76.0964 217.309 76.3402 217.822 76.4745C218.102 76.5189 218.369 76.5891 218.615 76.6825C219.269 77.0028 218.835 77.6209 218.95 78.1181C219.079 78.6763 219.968 79.1611 219.792 79.7107C219.653 80.1437 218.868 80.4725 218.984 80.9113C219.106 81.3708 220.072 81.5281 220.844 81.5806C221.291 81.6368 221.753 81.6147 222.173 81.5171C222.596 81.3543 222.9 81.1021 223.026 80.8093C223.354 80.2528 223.499 79.6615 223.453 79.0673C223.456 78.7976 223.348 78.5301 223.139 78.2881C222.911 78.095 222.656 77.9131 222.379 77.7441C220.92 76.6838 222.511 75.1801 219.716 74.6496Z" fill="#3F3D56"/>
<path opacity="0.8" d="M412.716 159.338C412.716 159.338 300.138 118.075 251.173 124.44C251.173 124.44 147.587 128.958 135.295 143.355C135.295 143.355 103.681 81.2254 91.7344 78.9292" stroke="#6C63FF" stroke-width="2" stroke-miterlimit="10"/>
<path opacity="0.8" d="M135.295 143.355C154.933 113.433 326.9 83.3823 326.9 83.3823C302.503 86.5664 251.173 124.44 251.173 124.44C251.173 124.44 145.26 75.7327 91.7344 78.9292C91.7344 78.9292 326.967 88.4042 412.716 159.338" stroke="#6C63FF" stroke-width="2" stroke-miterlimit="10"/>
<path d="M91.673 81.8993C94.4161 81.956 96.6674 80.6723 96.7013 79.0319C96.7352 77.3916 94.5389 76.0159 91.7958 75.9592C89.0526 75.9024 86.8014 77.1862 86.7675 78.8265C86.7336 80.4668 88.9298 81.8426 91.673 81.8993Z" fill="#00B0FF"/>
<path d="M135.233 146.326C137.976 146.382 140.228 145.099 140.262 143.458C140.296 141.818 138.099 140.442 135.356 140.385C132.613 140.329 130.362 141.612 130.328 143.253C130.294 144.893 132.49 146.269 135.233 146.326Z" fill="#00B0FF"/>
<path d="M326.839 86.3524C329.582 86.4091 331.833 85.1254 331.867 83.4851C331.901 81.8447 329.704 80.469 326.961 80.4123C324.218 80.3556 321.967 81.6393 321.933 83.2796C321.899 84.92 324.095 86.2957 326.839 86.3524Z" fill="#00B0FF"/>
<path d="M412.654 162.308C415.397 162.365 417.649 161.081 417.682 159.441C417.716 157.8 415.52 156.425 412.777 156.368C410.034 156.311 407.783 157.595 407.749 159.235C407.715 160.876 409.911 162.251 412.654 162.308Z" fill="#00B0FF"/>
<path d="M251.111 127.41C253.855 127.467 256.106 126.183 256.14 124.543C256.174 122.902 253.977 121.527 251.234 121.47C248.491 121.413 246.24 122.697 246.206 124.337C246.172 125.978 248.368 127.353 251.111 127.41Z" fill="#00B0FF"/>
</g>
<defs>
<clipPath id="clip0_120_161">
<rect width="488.412" height="216.939" fill="white" transform="translate(4.48508) rotate(1.18464)"/>
</clipPath>
</defs>
</svg>
