<svg width="642" height="861" viewBox="0 0 642 861" fill="none" xmlns="http://www.w3.org/2000/svg">
<g clip-path="url(#clip0_187_406)">
<path d="M200.087 228.674H204.875C205.477 228.674 206.054 228.433 206.48 228.005C206.905 227.576 207.145 226.996 207.146 226.391V186.257C207.145 185.651 206.905 185.071 206.48 184.643C206.054 184.215 205.477 183.974 204.875 183.973H200.087C199.485 183.974 198.907 184.215 198.482 184.643C198.056 185.071 197.816 185.651 197.816 186.257V226.391C197.816 226.996 198.056 227.576 198.482 228.005C198.907 228.433 199.485 228.674 200.087 228.674Z" fill="#F9A826"/>
<path d="M210.205 228.674H214.993C215.596 228.674 216.173 228.433 216.598 228.005C217.024 227.576 217.264 226.996 217.264 226.391V186.257C217.264 185.651 217.024 185.071 216.598 184.643C216.173 184.215 215.596 183.974 214.993 183.973H210.205C209.603 183.974 209.026 184.215 208.601 184.643C208.175 185.071 207.935 185.651 207.935 186.257V226.391C207.935 226.996 208.175 227.576 208.601 228.005C209.026 228.433 209.603 228.674 210.205 228.674Z" fill="#F9A826"/>
<path d="M336.308 98.803C337.277 102.885 338.502 103.857 339.661 103.578C340.821 103.3 341.477 101.877 340.508 97.7944C339.538 93.7124 336.151 88.7957 336.151 88.7957C336.151 88.7957 335.339 94.7209 336.308 98.803Z" fill="#CCCCCC"/>
<path d="M338.903 169.926C339.872 174.008 341.097 174.98 342.257 174.701C343.416 174.423 344.072 172.999 343.103 168.917C342.134 164.835 338.746 159.918 338.746 159.918C338.746 159.918 337.934 165.844 338.903 169.926Z" fill="#CCCCCC"/>
<path d="M196.873 42.8116C196.873 42.8116 194.651 38.0845 198.241 36.8555C201.831 35.6265 201.573 40.5773 201.573 40.5773L197.206 43.1838" fill="#5F6C72"/>
<path d="M215.458 71.8059L240.712 135.194C240.712 135.194 244.749 145.691 235.829 147.702C230.466 148.912 227.631 145.64 226.223 142.839C224.719 139.846 228.802 137.215 230.842 139.866C230.875 139.909 230.909 139.953 230.942 139.998C230.992 140.065 236.342 144.24 236.339 138.526C236.326 137.208 236.054 135.907 235.54 134.695L210.721 74.7475L215.458 71.8059Z" fill="#3F3D56"/>
<path d="M199.436 40.1211C199.436 40.1211 206.542 39.0776 210.539 36.8062C210.539 36.8062 254.398 27.4178 279.721 62.4413C279.721 62.4413 160.507 90.1947 155.365 107.654C155.365 107.654 147.883 75.3445 187.519 45.5208C187.519 45.5208 197.215 42.1316 199.436 40.1211Z" fill="#3F3D56"/>
<path d="M334.66 140.848C335.252 143.339 335.999 143.932 336.707 143.762C337.414 143.592 337.814 142.724 337.223 140.233C336.631 137.742 334.565 134.742 334.565 134.742C334.565 134.742 334.069 138.358 334.66 140.848Z" fill="#CCCCCC"/>
<path d="M353.151 152.92C353.743 155.411 354.49 156.004 355.197 155.834C355.905 155.664 356.305 154.795 355.714 152.304C355.122 149.814 353.055 146.813 353.055 146.813C353.055 146.813 352.56 150.429 353.151 152.92Z" fill="#CCCCCC"/>
<path d="M217.253 35.1839C218.222 39.266 219.447 40.2376 220.606 39.9591C221.766 39.6806 222.422 38.2574 221.452 34.1753C220.483 30.0932 217.096 25.1765 217.096 25.1765C217.096 25.1765 216.283 31.1018 217.253 35.1839Z" fill="#CCCCCC"/>
<path d="M213.01 6.10646C213.601 8.59734 214.348 9.19019 215.056 9.02025C215.764 8.8503 216.164 7.98187 215.572 5.491C214.981 3.00012 212.914 0 212.914 0C212.914 0 212.418 3.61561 213.01 6.10646Z" fill="#CCCCCC"/>
<path d="M231.501 18.1778C232.092 20.6686 232.839 21.2615 233.547 21.0915C234.255 20.9216 234.655 20.0532 234.063 17.5623C233.472 15.0714 231.405 12.0713 231.405 12.0713C231.405 12.0713 230.909 15.6869 231.501 18.1778Z" fill="#CCCCCC"/>
<path d="M268.508 163.075C269.477 167.157 270.702 168.128 271.862 167.85C273.021 167.571 273.677 166.148 272.708 162.066C271.739 157.984 268.351 153.067 268.351 153.067C268.351 153.067 267.539 158.993 268.508 163.075Z" fill="#CCCCCC"/>
<path d="M264.265 133.997C264.857 136.488 265.604 137.081 266.311 136.911C267.019 136.741 267.419 135.872 266.828 133.382C266.236 130.891 264.17 127.891 264.17 127.891C264.17 127.891 263.674 131.506 264.265 133.997Z" fill="#CCCCCC"/>
<path d="M282.756 146.069C283.348 148.56 284.095 149.152 284.802 148.982C285.51 148.812 285.91 147.944 285.319 145.453C284.727 142.962 282.66 139.962 282.66 139.962C282.66 139.962 282.165 143.578 282.756 146.069Z" fill="#CCCCCC"/>
<path d="M287.648 41.3826C288.617 45.4647 289.842 46.4364 291.001 46.1578C292.161 45.8793 292.817 44.4561 291.847 40.374C290.878 36.2919 287.491 31.3752 287.491 31.3752C287.491 31.3752 286.679 37.3005 287.648 41.3826Z" fill="#CCCCCC"/>
<path d="M290.243 112.506C291.212 116.588 292.437 117.559 293.596 117.281C294.756 117.002 295.412 115.579 294.443 111.497C293.473 107.415 290.086 102.498 290.086 102.498C290.086 102.498 289.274 108.424 290.243 112.506Z" fill="#CCCCCC"/>
<path d="M286 83.4282C286.592 85.9191 287.339 86.512 288.046 86.342C288.754 86.1721 289.154 85.3036 288.563 82.8128C287.971 80.3219 285.904 77.3218 285.904 77.3218C285.904 77.3218 285.409 80.9374 286 83.4282Z" fill="#CCCCCC"/>
<path d="M304.491 95.4995C305.082 97.9904 305.83 98.5833 306.537 98.4133C307.245 98.2434 307.645 97.3749 307.054 94.8841C306.462 92.3932 304.395 89.3931 304.395 89.3931C304.395 89.3931 303.899 93.0087 304.491 95.4995Z" fill="#CCCCCC"/>
<path d="M238.015 44.3189C238.984 48.401 240.208 49.3726 241.368 49.0941C242.528 48.8156 243.183 47.3924 242.214 43.3103C241.245 39.2282 237.858 34.3115 237.858 34.3115C237.858 34.3115 237.045 40.2368 238.015 44.3189Z" fill="#CCCCCC"/>
<path d="M240.61 115.442C241.579 119.524 242.803 120.496 243.963 120.217C245.123 119.939 245.779 118.515 244.809 114.433C243.84 110.351 240.453 105.435 240.453 105.435C240.453 105.435 239.64 111.36 240.61 115.442Z" fill="#CCCCCC"/>
<path d="M236.367 86.3645C236.958 88.8554 237.705 89.4482 238.413 89.2783C239.121 89.1084 239.521 88.2399 238.929 85.7491C238.338 83.2582 236.271 80.2581 236.271 80.2581C236.271 80.2581 235.775 83.8737 236.367 86.3645Z" fill="#CCCCCC"/>
<path d="M191.95 58.0215C192.919 62.1037 194.143 63.0753 195.303 62.7967C196.463 62.5182 197.119 61.095 196.149 57.0129C195.18 52.9309 191.793 48.0142 191.793 48.0142C191.793 48.0142 190.98 53.9394 191.95 58.0215Z" fill="#CCCCCC"/>
<path d="M206.197 41.0154C206.789 43.5063 207.536 44.0991 208.244 43.9292C208.951 43.7592 209.352 42.8908 208.76 40.3999C208.169 37.9091 206.102 34.9089 206.102 34.9089C206.102 34.9089 205.606 38.5246 206.197 41.0154Z" fill="#CCCCCC"/>
<path d="M168.917 38.7728C169.886 42.8549 171.111 43.8265 172.271 43.548C173.43 43.2694 174.086 41.8463 173.117 37.7642C172.147 33.6821 168.76 28.7654 168.76 28.7654C168.76 28.7654 167.948 34.6907 168.917 38.7728Z" fill="#CCCCCC"/>
<path d="M171.512 109.896C172.482 113.978 173.706 114.949 174.866 114.671C176.025 114.392 176.681 112.969 175.712 108.887C174.743 104.805 171.356 99.8882 171.356 99.8882C171.356 99.8882 170.543 105.813 171.512 109.896Z" fill="#CCCCCC"/>
<path d="M167.269 80.8181C167.861 83.309 168.608 83.9019 169.316 83.7319C170.023 83.562 170.423 82.6935 169.832 80.2027C169.24 77.7118 167.174 74.7117 167.174 74.7117C167.174 74.7117 166.678 78.3273 167.269 80.8181Z" fill="#CCCCCC"/>
<path d="M122.852 52.4752C123.821 56.5573 125.046 57.5289 126.206 57.2504C127.365 56.9718 128.021 55.5486 127.052 51.4666C126.082 47.3845 122.695 42.4678 122.695 42.4678C122.695 42.4678 121.883 48.393 122.852 52.4752Z" fill="#CCCCCC"/>
<path d="M137.1 35.469C137.691 37.9599 138.439 38.5528 139.146 38.3828C139.854 38.2129 140.254 37.3444 139.663 34.8536C139.071 32.3627 137.004 29.3625 137.004 29.3625C137.004 29.3625 136.509 32.9782 137.1 35.469Z" fill="#CCCCCC"/>
<path d="M141.992 85.4268C142.961 89.5089 144.186 90.4805 145.345 90.202C146.505 89.9235 147.161 88.5003 146.191 84.4182C145.222 80.3361 141.835 75.4194 141.835 75.4194C141.835 75.4194 141.023 81.3447 141.992 85.4268Z" fill="#CCCCCC"/>
<path d="M144.587 156.55C145.556 160.632 146.781 161.603 147.94 161.325C149.1 161.046 149.756 159.623 148.787 155.541C147.817 151.459 144.43 146.542 144.43 146.542C144.43 146.542 143.618 152.468 144.587 156.55Z" fill="#CCCCCC"/>
<path d="M140.344 127.472C140.936 129.963 141.683 130.556 142.39 130.386C143.098 130.216 143.498 129.348 142.907 126.857C142.315 124.366 140.248 121.366 140.248 121.366C140.248 121.366 139.753 124.981 140.344 127.472Z" fill="#CCCCCC"/>
<path d="M95.9269 99.1292C96.8962 103.211 98.1206 104.183 99.2803 103.904C100.44 103.626 101.096 102.203 100.127 98.1206C99.1572 94.0385 95.7702 89.1218 95.7702 89.1218C95.7702 89.1218 94.9576 95.0471 95.9269 99.1292Z" fill="#CCCCCC"/>
<path d="M110.175 82.1231C110.766 84.6139 111.513 85.2068 112.221 85.0369C112.929 84.8669 113.329 83.9985 112.737 81.5076C112.146 79.0167 110.079 76.0166 110.079 76.0166C110.079 76.0166 109.583 79.6322 110.175 82.1231Z" fill="#CCCCCC"/>
<path d="M204.212 140.012C195.075 140.012 187.668 132.562 187.668 123.373C187.668 114.183 195.075 106.734 204.212 106.734C213.35 106.734 220.757 114.183 220.757 123.373C220.757 132.562 213.35 140.012 204.212 140.012Z" fill="#F9A826"/>
<path d="M217.525 130.357C218.598 130.327 219.933 130.29 220.96 129.534C221.267 129.3 221.518 129.002 221.698 128.659C221.877 128.317 221.98 127.939 221.999 127.553C222.017 127.278 221.972 127.003 221.868 126.749C221.763 126.495 221.601 126.268 221.395 126.087C220.858 125.631 220.074 125.524 219.229 125.774L220.104 119.338L219.461 119.25L218.432 126.815L218.969 126.568C219.591 126.281 220.445 126.135 220.976 126.586C221.107 126.704 221.208 126.85 221.273 127.014C221.338 127.178 221.364 127.354 221.35 127.53C221.334 127.818 221.257 128.098 221.124 128.353C220.991 128.608 220.804 128.831 220.578 129.007C219.778 129.595 218.714 129.671 217.507 129.705L217.525 130.357Z" fill="#5F6C72"/>
<path d="M212.254 119.893H215.748V120.546H212.254V119.893Z" fill="#5F6C72"/>
<path d="M203.055 106.685C202.933 104.718 202.393 102.8 201.47 101.062C200.547 99.3231 199.264 97.8043 197.707 96.6081C196.098 95.4099 194.241 94.5918 192.274 94.2146C190.308 93.8374 188.282 93.9108 186.348 94.4294C184.426 94.9317 182.642 95.8662 181.132 97.1626C179.621 98.4589 178.423 100.083 177.627 101.913C176.826 103.729 176.427 105.699 176.456 107.685C176.544 109.846 177.078 111.964 178.023 113.906C178.999 116.044 180.229 118.049 181.298 120.139C182.35 122.199 183.258 124.331 184.015 126.519C185.555 130.977 186.464 135.631 186.715 140.344C187.112 147.773 186.405 158.619 178.066 161.47C175.946 162.195 173.658 162.33 171.435 162.324C169.093 162.352 166.758 162.077 164.486 161.505C160.549 160.448 156.812 157.965 155.135 154.108C154.748 153.218 154.489 152.277 154.365 151.313C154.33 151.049 154.614 150.826 154.851 150.823C154.98 150.826 155.102 150.879 155.192 150.97C155.283 151.061 155.335 151.184 155.338 151.313C155.881 155.423 159.287 158.575 162.984 159.992C165.144 160.779 167.414 161.221 169.711 161.3C171.996 161.417 174.37 161.399 176.608 160.87C178.6 160.436 180.413 159.4 181.803 157.9C183.042 156.465 183.966 154.784 184.515 152.966C185.831 148.925 185.969 144.483 185.738 140.271C185.476 135.574 184.548 130.939 182.981 126.506C182.19 124.268 181.235 122.091 180.125 119.994C179.041 117.944 177.837 115.951 176.923 113.813C176.031 111.848 175.541 109.723 175.481 107.564C175.474 105.57 175.869 103.595 176.641 101.759C177.401 99.9153 178.539 98.2541 179.982 96.8843C181.425 95.5145 183.14 94.4672 185.014 93.8112C186.921 93.1437 188.945 92.8846 190.957 93.0503C192.969 93.2161 194.925 93.8031 196.698 94.7737C198.384 95.7488 199.862 97.0505 201.046 98.6035C202.229 100.157 203.095 101.93 203.593 103.822C203.835 104.758 203.981 105.718 204.028 106.685C204.06 107.314 203.087 107.312 203.055 106.685Z" fill="#5F6C72"/>
<path d="M199.82 107.028C199.554 105.213 198.65 103.554 197.271 102.352C195.805 101.117 193.926 100.489 192.017 100.598C191.391 100.63 191.393 99.6509 192.017 99.6195C194.092 99.5254 196.13 100.202 197.741 101.52C199.353 102.838 200.427 104.706 200.758 106.768C200.852 107.384 199.914 107.65 199.82 107.028Z" fill="#5F6C72"/>
<path d="M199.978 108.071L204.598 106.537C205.007 106.401 205.345 106.108 205.539 105.722C205.732 105.335 205.765 104.887 205.63 104.476C205.495 104.066 205.204 103.726 204.819 103.531C204.435 103.336 203.99 103.303 203.581 103.439L198.961 104.973C198.552 105.109 198.214 105.402 198.02 105.789C197.827 106.175 197.794 106.623 197.929 107.034C198.064 107.445 198.355 107.785 198.74 107.979C199.124 108.174 199.569 108.207 199.978 108.071Z" fill="#5F6C72"/>
<path d="M192.489 200.757H222.914C223.473 200.757 224.009 200.533 224.404 200.135C224.8 199.738 225.022 199.199 225.023 198.637V193.821C225.022 193.259 224.8 192.72 224.404 192.323C224.009 191.925 223.473 191.701 222.914 191.701H192.489C191.93 191.701 191.394 191.925 190.998 192.323C190.603 192.72 190.381 193.259 190.38 193.821V198.637C190.381 199.199 190.603 199.738 190.998 200.135C191.394 200.533 191.93 200.757 192.489 200.757Z" fill="#CCCCCC"/>
<path d="M186.007 193.469C186.022 193.469 186.037 193.469 186.052 193.468L228.598 192.567C228.911 192.561 229.219 192.484 229.499 192.343C229.778 192.202 230.024 192 230.216 191.752C230.409 191.504 230.544 191.215 230.612 190.908C230.68 190.601 230.679 190.282 230.609 189.975L220.251 144.365C220.146 143.896 219.885 143.477 219.511 143.177C219.137 142.877 218.673 142.715 218.195 142.717H211.261C206.377 142.734 201.646 144.432 197.855 147.529C194.065 150.627 191.443 154.936 190.427 159.74L183.944 190.914C183.88 191.222 183.885 191.542 183.959 191.848C184.033 192.154 184.173 192.44 184.371 192.685C184.569 192.93 184.818 193.127 185.101 193.263C185.384 193.398 185.693 193.469 186.007 193.469Z" fill="#00B0FF" fill-opacity="0.85"/>
<path d="M213.341 167.665C213.895 167.666 214.428 167.447 214.822 167.054L243.216 138.853C243.413 138.658 243.57 138.425 243.677 138.168C243.785 137.912 243.841 137.636 243.843 137.358C243.844 137.079 243.792 136.803 243.687 136.545C243.583 136.287 243.429 136.052 243.234 135.854L239.87 132.428C239.477 132.028 238.942 131.801 238.383 131.798C237.824 131.794 237.286 132.014 236.888 132.409L208.495 160.61C208.097 161.006 207.872 161.544 207.869 162.106C207.865 162.668 208.084 163.209 208.476 163.609L211.84 167.036C212.036 167.235 212.27 167.394 212.528 167.502C212.785 167.61 213.062 167.666 213.341 167.665Z" fill="#F9A826"/>
<path d="M214.654 168.519L227.139 156.267C227.528 155.885 227.756 155.367 227.776 154.82C227.795 154.273 227.605 153.74 227.244 153.331L221.989 147.374C221.781 147.138 221.524 146.952 221.237 146.829C220.949 146.705 220.638 146.647 220.325 146.659C220.013 146.671 219.706 146.753 219.429 146.898C219.151 147.043 218.909 147.248 218.72 147.498L205.361 161.191C204.987 161.611 204.793 162.163 204.822 162.727C204.852 163.29 205.102 163.819 205.518 164.197L211.661 168.679C212.079 169.056 212.629 169.251 213.19 169.221C213.751 169.192 214.278 168.939 214.654 168.519Z" fill="#00B0FF"/>
<path d="M94.3863 229H333.89C333.94 229 333.991 228.99 334.038 228.971C334.085 228.951 334.127 228.923 334.163 228.887C334.199 228.851 334.228 228.808 334.247 228.761C334.267 228.713 334.277 228.663 334.277 228.612C334.277 228.56 334.267 228.51 334.247 228.463C334.228 228.415 334.199 228.373 334.163 228.337C334.127 228.3 334.085 228.272 334.038 228.252C333.991 228.233 333.94 228.223 333.89 228.223H94.3863C94.3354 228.223 94.2851 228.233 94.2381 228.252C94.1911 228.272 94.1484 228.3 94.1124 228.337C94.0764 228.373 94.0479 228.415 94.0284 228.463C94.0089 228.51 93.9989 228.56 93.9989 228.612C93.9989 228.663 94.0089 228.713 94.0284 228.761C94.0479 228.808 94.0764 228.851 94.1124 228.887C94.1484 228.923 94.1911 228.951 94.2381 228.971C94.2851 228.99 94.3354 229 94.3863 229Z" fill="#F2F2F2"/>
<g filter="url(#filter0_i_187_406)">
<ellipse cx="273" cy="17.5" rx="62" ry="53.5" fill="#F2F2F2" fill-opacity="0.3"/>
</g>
</g>
<g filter="url(#filter1_d_187_406)">
<ellipse cx="270.5" cy="160.5" rx="78.5" ry="79.5" fill="#F2F2F2" fill-opacity="0.3" shape-rendering="crispEdges"/>
</g>
<g filter="url(#filter2_d_187_406)">
<path d="M400.08 572.209C393.927 572.209 384.296 587.025 384.197 587.178C375.322 597.312 366.195 622.972 361.543 637.368C361.014 639.002 360.87 640.716 361.121 642.403C361.371 644.089 362.009 645.711 362.996 647.164C363.983 648.618 365.297 649.873 366.854 650.849C368.411 651.825 370.178 652.502 372.043 652.835C381.767 654.572 390.034 657.041 396.614 660.174C412.193 667.589 430.666 660.578 432.537 659.831L426.406 631.486C419.597 611.255 405.431 572.849 400.528 572.237C400.379 572.218 400.23 572.209 400.08 572.209Z" fill="black" fill-opacity="0.8"/>
<path opacity="0.1" d="M426.617 631.439C426.617 631.439 406.896 572.836 400.558 572.044C394.22 571.252 386.602 587.241 386.602 587.241C382.605 602.023 372.628 622.352 365.384 636.082C364.492 637.772 364.035 639.62 364.049 641.49C364.062 643.359 364.545 645.202 365.461 646.882C366.378 648.562 367.704 650.036 369.343 651.196C370.982 652.355 372.892 653.171 374.93 653.581C381.824 654.964 389.684 657.095 396.512 660.345C413.149 668.265 432.783 659.944 432.783 659.944L426.617 631.439Z" fill="black"/>
<path d="M414.059 635.371L382.28 631.865L388.81 606.159L414.059 606.938V635.371Z" fill="#9E616A"/>
<path d="M396.368 745.049L389.999 744.125L390.954 721.707L400.354 723.07L396.368 745.049Z" fill="#9E616A"/>
<path d="M428.11 733.164L422.349 735.764L407.092 715.955L415.593 712.117L428.11 733.164Z" fill="#9E616A"/>
<path d="M409.929 725.961L383.405 665.449C373.912 642.249 382.393 626.259 382.48 626.101L382.524 626.023L382.614 625.993C383.704 629.786 408.4 629.528 414.059 623.686C417.363 626.168 421.759 632.014 422.701 638.999C423.685 646.492 422.939 654.087 420.508 661.312L410.06 693.001L422.986 719.054L409.929 725.961Z" fill="#2F2E41"/>
<path d="M397.138 688.427L387.561 731.876L400.316 734.028L408.342 696.418L397.138 688.427Z" fill="#2F2E41"/>
<path d="M398.474 737.774L397.695 737.732L390.29 737.334L389.245 737.28V740.82L380.469 746.242C380.036 746.51 379.709 746.894 379.537 747.34C379.366 747.786 379.358 748.269 379.515 748.719C379.672 749.169 379.986 749.562 380.41 749.841C380.835 750.12 381.348 750.27 381.875 750.269H392.863L394.757 746.772L395.497 750.269H399.637L398.474 737.774Z" fill="#2F2E41"/>
<path d="M436.348 741.595L427.794 731.663L427.354 731.885L421.599 734.791L419.745 735.726L421.886 738.697L417.803 747.512C417.602 747.947 417.562 748.428 417.688 748.885C417.814 749.343 418.1 749.752 418.504 750.054C418.908 750.355 419.41 750.534 419.935 750.562C420.46 750.591 420.982 750.47 421.425 750.215L430.658 744.883L430.127 741.023L432.87 743.605L436.348 741.595Z" fill="#2F2E41"/>
<path d="M411.994 566.81C420.739 566.81 427.828 560.468 427.828 552.644C427.828 544.82 420.739 538.478 411.994 538.478C403.25 538.478 396.161 544.82 396.161 552.644C396.161 560.468 403.25 566.81 411.994 566.81Z" fill="#2F2E41"/>
<path d="M331.851 612.165C330.39 611.632 329.199 610.637 328.503 609.371C327.807 608.104 327.654 606.653 328.074 605.293C328.493 603.932 329.456 602.756 330.78 601.988C332.104 601.221 333.696 600.914 335.256 601.126L355.57 597.632L363.192 605.734L340.57 608.106C340.368 608.924 339.967 609.693 339.397 610.359C338.827 611.024 338.101 611.569 337.27 611.956C336.438 612.343 335.522 612.563 334.586 612.599C333.65 612.635 332.716 612.487 331.851 612.165Z" fill="#9E616A"/>
<path d="M394.977 594.056L369.765 607.893L347.019 608.496L340.194 599.617L364.989 595.538L399.134 572.219L394.977 594.056Z" fill="#2F2E41"/>
<path d="M390.553 585.423C384.396 590.932 390.113 596.834 390.113 596.834L383.076 611.001L410.785 617.69L420.468 578.978L413.871 572.682C412.467 572.64 412.954 568.705 411.833 568.666C407.744 568.526 405.43 568.41 404.119 568.324C402.412 568.211 400.669 572.044 400.669 572.044C398.357 574.068 390.553 585.423 390.553 585.423Z" fill="#FFC93C" fill-opacity="0.9"/>
<path d="M437.699 645.049C436.225 643.954 434.869 642.737 433.65 641.415C431.405 639.011 429.395 636.439 427.643 633.727C425.271 630.083 423.288 626.248 421.718 622.272C421.713 622.264 421.713 622.256 421.709 622.248C421.217 621.006 420.762 619.727 420.342 618.412C420.338 618.397 420.332 618.383 420.325 618.369C419.617 616.147 419.045 613.893 418.61 611.615C416.851 602.396 420.264 593.999 423.437 588.577C423.708 588.12 423.94 587.645 424.129 587.156C424.995 585.014 425.062 582.68 424.321 580.501C423.581 578.323 422.072 576.417 420.02 575.07L419.868 574.969C418.613 574.139 417.187 573.54 415.672 573.205C414.157 572.871 412.583 572.809 411.041 573.022C409.499 573.235 408.02 573.719 406.688 574.446C405.356 575.173 404.198 576.129 403.282 577.259C403.27 577.269 403.26 577.281 403.251 577.294C397.827 584.055 392.716 594.05 394.923 606.4C395.45 609.308 396.319 612.159 397.518 614.903C397.883 615.748 398.284 616.601 398.719 617.462C400.5 620.967 402.247 624.257 403.961 627.331C405.463 630.03 406.931 632.563 408.366 634.93C413.011 642.603 417.26 648.527 420.865 652.675C425.035 657.466 428.344 659.885 430.411 659.885C430.623 659.887 430.833 659.858 431.034 659.799C431.043 659.795 431.047 659.795 431.056 659.791C432.666 659.304 434.647 657.805 436.297 655.9C437.825 654.128 439.066 652.005 439.458 650.015C439.749 648.531 439.68 646.467 437.699 645.049Z" fill="#2F2E41"/>
<path d="M412.809 565.418C418.457 562.656 420.533 556.32 417.445 551.266C414.358 546.213 407.276 544.356 401.628 547.118C395.979 549.881 393.904 556.217 396.991 561.27C400.079 566.324 407.161 568.181 412.809 565.418Z" fill="#9E616A"/>
<path d="M392.133 554.701H408.963L409.135 552.539L409.998 554.701H412.59L412.932 550.416L414.642 554.701H419.656V554.489C419.653 551.506 418.326 548.646 415.969 546.537C413.611 544.427 410.415 543.241 407.081 543.238H404.708C401.374 543.241 398.178 544.427 395.82 546.537C393.463 548.646 392.136 551.506 392.133 554.489V554.701Z" fill="#2F2E41"/>
<path d="M446.353 652.389C445.836 653.722 444.789 654.839 443.413 655.528C442.036 656.218 440.424 656.431 438.883 656.128C437.343 655.826 435.979 655.028 435.052 653.886C434.125 652.744 433.698 651.337 433.852 649.932L428.874 631.968L437.513 624.729L441.36 644.815C442.285 644.952 443.164 645.268 443.937 645.743C444.71 646.217 445.357 646.837 445.833 647.559C446.309 648.281 446.603 649.088 446.692 649.922C446.782 650.757 446.667 651.599 446.353 652.389Z" fill="#9E616A"/>
<path d="M423.908 581.079L442.066 637.865L432.229 643.082L403.728 581.839L423.908 581.079Z" fill="#2F2E41"/>
<path d="M455.801 560.965C452.33 558.81 450.171 555.333 448.686 551.794C447.201 548.256 446.267 544.537 444.584 541.071C442.547 536.885 439.472 533.168 435.593 530.203C433.108 528.308 430.218 526.707 426.996 526.238C423.773 525.769 420.182 526.606 418.121 528.872C416.061 531.137 416.065 534.886 418.561 536.769C417.816 536.067 416.371 536.241 415.724 537.017C415.426 537.422 415.28 537.902 415.307 538.387C415.334 538.872 415.533 539.337 415.875 539.713C416.125 539.993 416.431 540.227 416.777 540.404C417.555 541.96 418.887 543.243 420.565 544.052C422.604 544.951 425.323 544.763 426.867 543.27C428.411 541.777 428.191 538.988 426.201 538.003C429.296 537.47 432.498 539.077 434.293 541.396C436.087 543.714 436.691 546.61 436.838 549.426C436.986 552.243 436.723 555.072 436.989 557.882C437.254 560.692 438.113 563.568 440.187 565.691C443.586 569.17 449.561 569.82 454.505 568.484C459.45 567.148 463.613 564.196 467.642 561.304C464.29 563.605 459.272 563.119 455.801 560.965Z" fill="#2F2E41"/>
<path d="M319.069 604.402C316.824 605.884 316.254 608.595 317.025 610.895C317.426 612.152 318.218 613.281 319.308 614.152C320.398 615.022 321.742 615.598 323.184 615.812C326.417 616.357 329.877 615.222 332.391 613.426C335.226 611.402 336.869 608.449 338.501 605.627C340.712 601.805 343.139 598.075 345.474 594.312C348.079 590.116 350.683 585.92 353.286 581.723C359.138 572.282 364.961 562.827 370.757 553.359C376.546 543.88 382.269 534.369 387.927 524.826C392.511 517.05 397.051 509.246 401.297 501.316C401.715 500.537 402.128 499.756 402.538 498.974C402.658 498.684 402.647 498.364 402.506 498.082C402.366 497.799 402.107 497.578 401.785 497.464C401.461 497.36 401.105 497.371 400.79 497.497C400.476 497.622 400.228 497.852 400.098 498.138C396.233 505.523 392.052 512.776 387.829 520C382.536 529.057 377.146 538.068 371.661 547.033C365.991 556.355 360.279 565.656 354.524 574.936C349.543 582.987 344.552 591.033 339.552 599.075C338.338 601.032 337.107 602.982 335.957 604.971C334.472 607.541 332.928 610.232 330.235 611.958C327.948 613.423 324.705 614.199 322.056 613.066C320.083 612.223 319.076 610.115 319.347 608.294C319.402 607.879 319.553 607.479 319.791 607.119C320.029 606.76 320.349 606.449 320.729 606.207C322.085 605.312 320.419 603.511 319.069 604.402Z" fill="#2F2E41"/>
<path d="M460.343 554.673L460.189 554.656C454.256 554.005 448.377 553.219 442.717 552.319C438.689 551.679 434.756 550.983 431.027 550.25C427.883 549.635 424.775 548.976 421.789 548.292C418.46 547.533 415.157 546.716 411.972 545.864C410.642 545.514 409.289 545.143 407.95 544.762C405.469 544.058 403.078 543.341 400.844 542.633C398.675 541.954 396.488 541.23 394.344 540.481C394.298 540.469 394.253 540.454 394.209 540.437C389.864 538.927 385.598 537.298 381.534 535.596C380.746 535.269 379.963 534.937 379.185 534.6C355.739 524.463 336.109 510.708 320.841 493.719L320.754 493.623L320.815 493.512C328.976 478.535 343.105 466.831 360.422 460.702C377.74 454.573 396.993 454.461 414.398 460.39C416.543 461.123 418.654 461.943 420.673 462.827L426.11 465.205C429.048 466.49 431.89 467.944 434.617 469.559C449.704 478.518 460.639 492.077 465.384 507.712C470.13 523.347 468.362 539.993 460.411 554.549L460.343 554.673Z" fill="#00B0FF" fill-opacity="0.8"/>
<path d="M331.718 503.067C351.98 489.629 374.074 478.556 397.465 470.116C404.027 467.746 410.678 465.59 417.418 463.645C418.216 463.415 417.663 462.355 416.871 462.584C392.761 469.545 369.744 479.231 348.376 491.407C342.405 494.804 336.576 498.391 330.888 502.165C330.211 502.614 331.044 503.515 331.718 503.067Z" fill="#3F3D56"/>
<path d="M430.444 467.483C430.367 467.582 430.327 467.701 430.331 467.821C430.334 467.942 430.381 468.058 430.463 468.154C434.152 472.73 437.279 477.647 439.792 482.821C442.306 487.996 444.222 493.386 445.511 498.909C446.814 504.432 447.498 510.057 447.554 515.702C447.613 521.345 447.036 526.98 445.833 532.52C444.804 537.258 443.291 541.901 441.313 546.391C440.982 547.145 440.637 547.893 440.278 548.637C439.968 549.279 439.648 549.917 439.318 550.549C438.964 551.235 440.187 551.646 440.541 550.969C440.973 550.13 441.393 549.286 441.787 548.432C443.858 544.011 445.482 539.434 446.64 534.754C448.021 529.172 448.761 523.479 448.848 517.763C448.941 512.039 448.402 506.32 447.238 500.691C446.076 495.067 444.283 489.564 441.883 484.263C439.478 478.942 436.439 473.869 432.82 469.13C432.655 468.912 432.486 468.694 432.317 468.479L430.444 467.483Z" fill="#3F3D56"/>
<path d="M365.633 527.544L386.588 504.952L407.544 482.36L419.34 469.643C419.878 469.063 418.816 468.382 418.281 468.959L397.326 491.551L376.37 514.142L364.574 526.86C364.036 527.44 365.098 528.12 365.633 527.544Z" fill="#3F3D56"/>
<path d="M411.492 544.983L417.448 517.318L423.384 489.748L426.732 474.198C426.891 473.46 425.59 473.352 425.432 474.085L419.476 501.75L413.54 529.32L410.192 544.87C410.033 545.608 411.334 545.716 411.492 544.983Z" fill="#3F3D56"/>
<path d="M434.496 469.721C433.227 471.75 431.216 473.325 428.801 474.184C426.386 475.043 423.715 475.132 421.236 474.437C418.756 473.742 416.62 472.305 415.184 470.367C413.749 468.429 413.103 466.108 413.354 463.794C413.472 462.679 413.799 461.59 414.321 460.572C416.425 461.291 418.511 462.101 420.578 463.002L426.014 465.38C428.944 466.661 431.778 468.111 434.496 469.721Z" fill="#3F3D56"/>
<path d="M170.01 476.086C172.041 482.437 175.083 488.494 179.04 494.071C180.167 495.656 181.366 497.197 182.637 498.693C183.139 499.285 184.273 498.703 183.765 498.103C179.348 492.901 175.794 487.155 173.213 481.043C172.485 479.311 171.837 477.556 171.269 475.775C171.219 475.631 171.107 475.509 170.959 475.437C170.81 475.364 170.635 475.346 170.472 475.387C170.309 475.427 170.169 475.522 170.083 475.653C169.997 475.783 169.971 475.939 170.01 476.086Z" fill="#F2F2F2"/>
<path d="M208.687 501.4L216.62 513.747C216.711 513.875 216.853 513.967 217.018 514.003C217.182 514.039 217.356 514.016 217.503 513.939C217.649 513.863 217.756 513.739 217.802 513.593C217.848 513.447 217.828 513.29 217.748 513.157L209.815 500.81C209.724 500.682 209.582 500.59 209.417 500.554C209.252 500.518 209.079 500.541 208.932 500.617C208.786 500.694 208.679 500.818 208.633 500.964C208.587 501.11 208.607 501.266 208.687 501.4Z" fill="#F2F2F2"/>
<path d="M226.388 483.753L232.849 496.1C233.205 496.78 234.331 496.188 233.976 495.51L227.515 483.163C227.159 482.483 226.033 483.075 226.388 483.753Z" fill="#F2F2F2"/>
<path d="M290.597 492.055C292.628 498.406 295.669 504.463 299.627 510.04C300.753 511.625 301.952 513.166 303.224 514.662C303.725 515.254 304.86 514.672 304.351 514.072C299.934 508.87 296.38 503.124 293.799 497.012C293.071 495.28 292.423 493.525 291.856 491.744C291.805 491.6 291.694 491.478 291.545 491.406C291.396 491.333 291.222 491.315 291.058 491.356C290.895 491.396 290.756 491.491 290.67 491.622C290.583 491.752 290.557 491.908 290.597 492.055Z" fill="#F2F2F2"/>
<path d="M329.273 517.369L337.207 529.716C337.297 529.844 337.44 529.936 337.604 529.972C337.769 530.008 337.943 529.985 338.089 529.908C338.235 529.832 338.343 529.708 338.388 529.562C338.434 529.416 338.415 529.259 338.334 529.126L330.401 516.779C330.311 516.651 330.168 516.559 330.003 516.523C329.839 516.487 329.665 516.51 329.519 516.586C329.373 516.663 329.265 516.787 329.219 516.933C329.174 517.079 329.193 517.235 329.273 517.369Z" fill="#F2F2F2"/>
<path d="M346.974 499.722L353.435 512.069C353.791 512.749 354.917 512.157 354.563 511.479L348.102 499.132C347.746 498.452 346.62 499.044 346.974 499.722Z" fill="#F2F2F2"/>
<path d="M271.007 567.616C273.038 573.967 276.079 580.024 280.037 585.601C281.164 587.186 282.363 588.726 283.634 590.223C284.135 590.815 285.27 590.233 284.762 589.633C280.344 584.431 276.79 578.684 274.209 572.572C273.481 570.841 272.834 569.085 272.266 567.305C272.215 567.161 272.104 567.039 271.955 566.967C271.806 566.894 271.632 566.876 271.469 566.916C271.305 566.957 271.166 567.052 271.08 567.183C270.993 567.313 270.967 567.468 271.007 567.616Z" fill="#F2F2F2"/>
<path d="M309.684 592.929L317.617 605.277C317.707 605.405 317.85 605.496 318.014 605.532C318.179 605.568 318.353 605.546 318.499 605.469C318.645 605.393 318.753 605.268 318.799 605.122C318.844 604.976 318.825 604.82 318.744 604.687L310.811 592.34C310.721 592.211 310.578 592.12 310.414 592.084C310.249 592.048 310.075 592.071 309.929 592.147C309.783 592.224 309.675 592.348 309.63 592.494C309.584 592.64 309.603 592.796 309.684 592.929Z" fill="#F2F2F2"/>
<path d="M327.384 575.282L333.845 587.629C334.201 588.31 335.328 587.717 334.973 587.04L328.512 574.693C328.156 574.012 327.03 574.605 327.384 575.282Z" fill="#F2F2F2"/>
<path d="M306.269 638.503C308.3 644.854 311.341 650.911 315.299 656.487C316.425 658.072 317.624 659.613 318.896 661.11C319.397 661.701 320.532 661.12 320.023 660.52C315.606 655.317 312.052 649.571 309.471 643.459C308.743 641.728 308.095 639.972 307.528 638.192C307.477 638.047 307.366 637.926 307.217 637.853C307.068 637.781 306.894 637.763 306.73 637.803C306.567 637.843 306.428 637.939 306.341 638.069C306.255 638.2 306.229 638.355 306.269 638.503Z" fill="#F2F2F2"/>
<path d="M344.945 663.816L352.879 676.163C352.969 676.291 353.112 676.383 353.276 676.419C353.441 676.455 353.615 676.432 353.761 676.356C353.907 676.279 354.014 676.155 354.06 676.009C354.106 675.863 354.087 675.707 354.006 675.574L346.073 663.226C345.983 663.098 345.84 663.006 345.675 662.971C345.511 662.935 345.337 662.957 345.191 663.034C345.044 663.11 344.937 663.235 344.891 663.381C344.845 663.527 344.865 663.683 344.945 663.816Z" fill="#F2F2F2"/>
<path d="M362.646 646.169L369.107 658.516C369.463 659.197 370.589 658.604 370.235 657.926L363.774 645.579C363.418 644.899 362.291 645.491 362.646 646.169Z" fill="#F2F2F2"/>
<path d="M378.098 596.827C380.129 603.178 383.17 609.235 387.128 614.812C388.255 616.397 389.454 617.938 390.725 619.434C391.226 620.026 392.361 619.444 391.853 618.845C387.436 613.642 383.881 607.896 381.301 601.784C380.573 600.053 379.925 598.297 379.357 596.517C379.307 596.372 379.195 596.251 379.046 596.178C378.898 596.105 378.723 596.087 378.56 596.128C378.397 596.168 378.257 596.263 378.171 596.394C378.085 596.524 378.059 596.68 378.098 596.827Z" fill="#F2F2F2"/>
<path d="M416.775 622.141L424.708 634.488C424.799 634.616 424.941 634.708 425.106 634.744C425.27 634.78 425.444 634.757 425.59 634.681C425.737 634.604 425.844 634.48 425.89 634.334C425.936 634.188 425.916 634.032 425.836 633.898L417.903 621.551C417.812 621.423 417.67 621.331 417.505 621.295C417.34 621.259 417.167 621.282 417.02 621.358C416.874 621.435 416.767 621.559 416.721 621.705C416.675 621.851 416.694 622.007 416.775 622.141Z" fill="#F2F2F2"/>
<path d="M434.476 604.494L440.936 616.841C441.293 617.521 442.419 616.929 442.064 616.251L435.603 603.904C435.247 603.224 434.121 603.816 434.476 604.494Z" fill="#F2F2F2"/>
<path d="M394.641 508.803C396.672 515.154 399.713 521.211 403.671 526.788C404.797 528.373 405.996 529.914 407.268 531.41C407.769 532.002 408.904 531.42 408.395 530.82C403.978 525.618 400.424 519.872 397.843 513.76C397.115 512.028 396.467 510.273 395.9 508.492C395.849 508.348 395.738 508.226 395.589 508.154C395.44 508.081 395.266 508.063 395.103 508.104C394.939 508.144 394.8 508.239 394.714 508.37C394.627 508.5 394.601 508.656 394.641 508.803Z" fill="#F2F2F2"/>
<path d="M433.317 534.117L441.251 546.464C441.341 546.592 441.484 546.684 441.648 546.72C441.813 546.756 441.987 546.733 442.133 546.656C442.279 546.58 442.387 546.456 442.432 546.31C442.478 546.164 442.459 546.008 442.378 545.874L434.445 533.527C434.355 533.399 434.212 533.307 434.047 533.271C433.883 533.235 433.709 533.258 433.563 533.334C433.417 533.411 433.309 533.535 433.263 533.681C433.218 533.827 433.237 533.983 433.317 534.117Z" fill="#F2F2F2"/>
<path d="M451.018 516.47L457.479 528.817C457.835 529.497 458.961 528.905 458.607 528.227L452.146 515.88C451.79 515.2 450.664 515.792 451.018 516.47Z" fill="#F2F2F2"/>
<path d="M42.0229 477.644C44.0542 483.995 47.0954 490.052 51.0533 495.629C52.1798 497.214 53.3788 498.755 54.6501 500.251C55.1514 500.843 56.286 500.261 55.7777 499.662C51.3605 494.459 47.8064 488.713 45.2256 482.601C44.4976 480.869 43.8498 479.114 43.2822 477.333C43.2316 477.189 43.1201 477.067 42.9714 476.995C42.8226 476.922 42.6482 476.904 42.4849 476.945C42.3215 476.985 42.1821 477.08 42.0959 477.211C42.0097 477.341 41.9836 477.497 42.0229 477.644Z" fill="#F2F2F2"/>
<path d="M80.6998 502.958L88.633 515.305C88.7235 515.433 88.8661 515.525 89.0307 515.561C89.1953 515.597 89.3691 515.574 89.5154 515.498C89.6616 515.421 89.769 515.297 89.8148 515.151C89.8606 515.005 89.8412 514.849 89.7607 514.715L81.8275 502.368C81.737 502.24 81.5945 502.148 81.4298 502.112C81.2652 502.076 81.0915 502.099 80.9452 502.175C80.7989 502.252 80.6915 502.376 80.6458 502.522C80.6 502.668 80.6194 502.824 80.6998 502.958Z" fill="#F2F2F2"/>
<path d="M98.4005 485.311L104.861 497.658C105.218 498.338 106.344 497.746 105.989 497.068L99.5282 484.721C99.1721 484.04 98.0459 484.633 98.4005 485.311Z" fill="#F2F2F2"/>
<path d="M6.32581 616.302C8.35707 622.653 11.3983 628.71 15.3562 634.287C16.4827 635.871 17.6817 637.412 18.953 638.909C19.4543 639.5 20.5889 638.919 20.0807 638.319C15.6634 633.116 12.1093 627.37 9.52849 621.258C8.80049 619.527 8.1527 617.771 7.58513 615.991C7.53448 615.846 7.42303 615.725 7.27428 615.652C7.12553 615.58 6.9511 615.562 6.78778 615.602C6.62446 615.642 6.485 615.738 6.39882 615.868C6.31263 615.999 6.28646 616.154 6.32581 616.302Z" fill="#F2F2F2"/>
</g>
<g filter="url(#filter3_d_187_406)">
<ellipse cx="202" cy="596" rx="91" ry="84" fill="#00B0FF" fill-opacity="0.1" shape-rendering="crispEdges"/>
</g>
<g filter="url(#filter4_d_187_406)">
<ellipse cx="349.5" cy="664" rx="57.5" ry="56" fill="#F2F2F2" fill-opacity="0.3" shape-rendering="crispEdges"/>
</g>
<g filter="url(#filter5_d_187_406)">
<ellipse cx="477" cy="462.5" rx="31" ry="28.5" fill="#00B0FF" fill-opacity="0.3" shape-rendering="crispEdges"/>
</g>
<defs>
<filter id="filter0_i_187_406" x="211" y="-36" width="124" height="111" filterUnits="userSpaceOnUse" color-interpolation-filters="sRGB">
<feFlood flood-opacity="0" result="BackgroundImageFix"/>
<feBlend mode="normal" in="SourceGraphic" in2="BackgroundImageFix" result="shape"/>
<feColorMatrix in="SourceAlpha" type="matrix" values="0 0 0 0 0 0 0 0 0 0 0 0 0 0 0 0 0 0 127 0" result="hardAlpha"/>
<feOffset dy="4"/>
<feGaussianBlur stdDeviation="2"/>
<feComposite in2="hardAlpha" operator="arithmetic" k2="-1" k3="1"/>
<feColorMatrix type="matrix" values="0 0 0 0 0 0 0 0 0 0 0 0 0 0 0 0 0 0 0.25 0"/>
<feBlend mode="normal" in2="shape" result="effect1_innerShadow_187_406"/>
</filter>
<filter id="filter1_d_187_406" x="188" y="81" width="165" height="167" filterUnits="userSpaceOnUse" color-interpolation-filters="sRGB">
<feFlood flood-opacity="0" result="BackgroundImageFix"/>
<feColorMatrix in="SourceAlpha" type="matrix" values="0 0 0 0 0 0 0 0 0 0 0 0 0 0 0 0 0 0 127 0" result="hardAlpha"/>
<feOffset dy="4"/>
<feGaussianBlur stdDeviation="2"/>
<feComposite in2="hardAlpha" operator="out"/>
<feColorMatrix type="matrix" values="0 0 0 0 0 0 0 0 0 0 0 0 0 0 0 0 0 0 0.25 0"/>
<feBlend mode="normal" in2="BackgroundImageFix" result="effect1_dropShadow_187_406"/>
<feBlend mode="normal" in="SourceGraphic" in2="effect1_dropShadow_187_406" result="shape"/>
</filter>
<filter id="filter2_d_187_406" x="0" y="330" width="646" height="539" filterUnits="userSpaceOnUse" color-interpolation-filters="sRGB">
<feFlood flood-opacity="0" result="BackgroundImageFix"/>
<feColorMatrix in="SourceAlpha" type="matrix" values="0 0 0 0 0 0 0 0 0 0 0 0 0 0 0 0 0 0 127 0" result="hardAlpha"/>
<feOffset dy="4"/>
<feGaussianBlur stdDeviation="2"/>
<feComposite in2="hardAlpha" operator="out"/>
<feColorMatrix type="matrix" values="0 0 0 0 0 0 0 0 0 0 0 0 0 0 0 0 0 0 0.25 0"/>
<feBlend mode="normal" in2="BackgroundImageFix" result="effect1_dropShadow_187_406"/>
<feBlend mode="normal" in="SourceGraphic" in2="effect1_dropShadow_187_406" result="shape"/>
</filter>
<filter id="filter3_d_187_406" x="107" y="512" width="190" height="176" filterUnits="userSpaceOnUse" color-interpolation-filters="sRGB">
<feFlood flood-opacity="0" result="BackgroundImageFix"/>
<feColorMatrix in="SourceAlpha" type="matrix" values="0 0 0 0 0 0 0 0 0 0 0 0 0 0 0 0 0 0 127 0" result="hardAlpha"/>
<feOffset dy="4"/>
<feGaussianBlur stdDeviation="2"/>
<feComposite in2="hardAlpha" operator="out"/>
<feColorMatrix type="matrix" values="0 0 0 0 0 0 0 0 0 0 0 0 0 0 0 0 0 0 0.25 0"/>
<feBlend mode="normal" in2="BackgroundImageFix" result="effect1_dropShadow_187_406"/>
<feBlend mode="normal" in="SourceGraphic" in2="effect1_dropShadow_187_406" result="shape"/>
</filter>
<filter id="filter4_d_187_406" x="288" y="608" width="123" height="120" filterUnits="userSpaceOnUse" color-interpolation-filters="sRGB">
<feFlood flood-opacity="0" result="BackgroundImageFix"/>
<feColorMatrix in="SourceAlpha" type="matrix" values="0 0 0 0 0 0 0 0 0 0 0 0 0 0 0 0 0 0 127 0" result="hardAlpha"/>
<feOffset dy="4"/>
<feGaussianBlur stdDeviation="2"/>
<feComposite in2="hardAlpha" operator="out"/>
<feColorMatrix type="matrix" values="0 0 0 0 0 0 0 0 0 0 0 0 0 0 0 0 0 0 0.25 0"/>
<feBlend mode="normal" in2="BackgroundImageFix" result="effect1_dropShadow_187_406"/>
<feBlend mode="normal" in="SourceGraphic" in2="effect1_dropShadow_187_406" result="shape"/>
</filter>
<filter id="filter5_d_187_406" x="442" y="434" width="70" height="65" filterUnits="userSpaceOnUse" color-interpolation-filters="sRGB">
<feFlood flood-opacity="0" result="BackgroundImageFix"/>
<feColorMatrix in="SourceAlpha" type="matrix" values="0 0 0 0 0 0 0 0 0 0 0 0 0 0 0 0 0 0 127 0" result="hardAlpha"/>
<feOffset dy="4"/>
<feGaussianBlur stdDeviation="2"/>
<feComposite in2="hardAlpha" operator="out"/>
<feColorMatrix type="matrix" values="0 0 0 0 0 0 0 0 0 0 0 0 0 0 0 0 0 0 0.25 0"/>
<feBlend mode="normal" in2="BackgroundImageFix" result="effect1_dropShadow_187_406"/>
<feBlend mode="normal" in="SourceGraphic" in2="effect1_dropShadow_187_406" result="shape"/>
</filter>
<clipPath id="clip0_187_406">
<rect width="262" height="229" fill="white" transform="matrix(-1 0 0 1 356 0)"/>
</clipPath>
</defs>
</svg>
