<svg width="311" height="222" viewBox="0 0 311 222" fill="none" xmlns="http://www.w3.org/2000/svg">
<g clip-path="url(#clip0_120_87)">
<path d="M300.12 200.035C299.187 192.79 294.536 185.651 287.379 183.293C290.201 190.75 290.201 198.931 287.377 206.389C286.277 209.261 284.744 212.345 285.779 215.239C286.422 217.04 287.997 218.418 289.757 219.28C291.517 220.142 293.471 220.552 295.4 220.955L295.779 221.258C298.842 214.582 301.054 207.28 300.12 200.035Z" fill="#F0F0F0"/>
<path d="M287.308 183.43C291.476 187.939 294.066 193.601 294.711 199.612C294.874 200.904 294.825 202.212 294.566 203.489C294.271 204.725 293.64 205.862 292.736 206.783C291.911 207.657 290.963 208.46 290.373 209.513C290.079 210.056 289.908 210.653 289.87 211.265C289.832 211.877 289.928 212.489 290.153 213.063C290.674 214.505 291.701 215.681 292.746 216.797C293.907 218.036 295.133 219.305 295.626 220.948C295.686 221.147 296.002 221.046 295.943 220.847C295.084 217.989 292.21 216.365 290.84 213.791C290.2 212.59 289.932 211.195 290.531 209.927C291.056 208.819 292.033 207.99 292.876 207.112C293.771 206.226 294.428 205.142 294.789 203.955C295.115 202.695 295.216 201.391 295.089 200.098C294.85 197.183 294.138 194.322 292.978 191.621C291.673 188.531 289.83 185.679 287.528 183.189C287.386 183.035 287.166 183.277 287.308 183.43Z" fill="white"/>
<path d="M294.622 197.665C295.652 197.423 296.559 196.836 297.182 196.008C297.805 195.181 298.103 194.166 298.023 193.146C298.006 192.939 297.673 192.955 297.69 193.162C297.767 194.112 297.489 195.057 296.907 195.826C296.325 196.596 295.478 197.14 294.517 197.359C294.309 197.407 294.414 197.712 294.622 197.665Z" fill="white"/>
<path d="M293.215 206.392C291.354 205.32 289.981 203.61 289.369 201.604C289.308 201.405 288.992 201.506 289.052 201.705C289.694 203.791 291.126 205.568 293.065 206.68C293.25 206.785 293.398 206.497 293.215 206.392Z" fill="white"/>
<path d="M291.364 188.835C290.985 189.009 290.568 189.089 290.15 189.069C289.732 189.048 289.325 188.928 288.967 188.718C288.783 188.61 288.635 188.898 288.817 189.005C289.214 189.235 289.663 189.368 290.125 189.391C290.587 189.415 291.048 189.329 291.468 189.141C291.509 189.126 291.543 189.097 291.563 189.06C291.583 189.022 291.587 188.978 291.574 188.938C291.56 188.897 291.53 188.864 291.491 188.845C291.451 188.826 291.406 188.822 291.364 188.835Z" fill="white"/>
<path d="M265.562 196.234C265.674 196.305 265.787 196.375 265.899 196.449C267.407 197.405 268.831 198.479 270.158 199.659C270.263 199.748 270.367 199.841 270.468 199.933C273.634 202.808 276.22 206.225 278.094 210.011C278.839 211.519 279.463 213.078 279.962 214.677C280.651 216.885 281.217 219.332 282.581 221.138C282.721 221.328 282.874 221.51 283.037 221.681H295.367C295.395 221.668 295.423 221.657 295.451 221.643L295.944 221.665C295.924 221.581 295.901 221.494 295.882 221.41C295.87 221.361 295.856 221.312 295.845 221.263C295.837 221.231 295.828 221.198 295.823 221.168C295.82 221.157 295.817 221.146 295.814 221.138C295.809 221.108 295.8 221.081 295.794 221.054C295.671 220.568 295.543 220.082 295.412 219.596C295.412 219.593 295.412 219.593 295.409 219.59C294.446 215.877 293.029 212.287 291.189 208.895C291.133 208.795 291.077 208.692 291.015 208.591C290.163 207.09 289.186 205.658 288.092 204.311C287.491 203.575 286.851 202.869 286.176 202.195C284.428 200.458 282.408 198.997 280.19 197.866C275.768 195.612 270.648 194.748 265.922 196.125C265.801 196.161 265.683 196.196 265.562 196.234Z" fill="#F0F0F0"/>
<path d="M265.59 196.385C271.729 197.562 277.329 200.577 281.593 205.002C282.528 205.939 283.305 207.012 283.894 208.182C284.43 209.34 284.635 210.615 284.487 211.876C284.374 213.053 284.118 214.245 284.303 215.429C284.408 216.033 284.643 216.61 284.994 217.12C285.346 217.631 285.805 218.064 286.341 218.391C287.657 219.24 289.21 219.582 290.74 219.865C292.44 220.18 294.21 220.481 295.629 221.506C295.801 221.63 295.99 221.365 295.819 221.241C293.351 219.458 290.044 219.832 287.344 218.574C286.084 217.986 285 217.029 284.688 215.668C284.415 214.478 284.679 213.248 284.804 212.057C284.966 210.83 284.815 209.583 284.363 208.425C283.838 207.229 283.105 206.129 282.197 205.171C280.188 202.982 277.836 201.112 275.225 199.629C272.256 197.92 269.006 196.715 265.615 196.064C265.405 196.024 265.381 196.345 265.59 196.385Z" fill="white"/>
<path d="M280.307 203.499C280.978 202.708 281.337 201.712 281.318 200.689C281.299 199.666 280.905 198.682 280.204 197.914C280.062 197.759 279.806 197.966 279.948 198.121C280.602 198.835 280.97 199.751 280.985 200.703C281.001 201.656 280.663 202.583 280.033 203.316C279.896 203.476 280.171 203.658 280.307 203.499Z" fill="white"/>
<path d="M284.626 211.286C282.472 211.511 280.309 210.944 278.569 209.698C278.397 209.574 278.207 209.839 278.379 209.962C280.193 211.256 282.445 211.841 284.686 211.602C284.899 211.579 284.839 211.263 284.626 211.286Z" fill="white"/>
<path d="M272.199 198.344C272.005 198.702 271.722 199.009 271.375 199.235C271.029 199.462 270.629 199.602 270.212 199.643C269.998 199.663 270.059 199.98 270.272 199.96C270.732 199.912 271.173 199.757 271.557 199.508C271.941 199.258 272.255 198.921 272.473 198.527C272.497 198.491 272.506 198.448 272.498 198.407C272.49 198.365 272.466 198.328 272.431 198.303C272.395 198.279 272.35 198.27 272.307 198.277C272.263 198.285 272.225 198.309 272.199 198.344Z" fill="white"/>
<path d="M46.1882 63.6902C35.1132 69.3296 26.387 80.4647 26.7975 92.5461C37.1061 83.9578 50.229 79.1666 63.8444 79.02C69.0955 78.9819 74.9401 79.4673 78.9772 76.2251C81.4892 74.2078 82.7772 71.0465 83.1282 67.9104C83.4792 64.7741 82.9936 61.6131 82.5092 58.4934L82.773 57.7483C70.2711 57.0805 57.2632 58.0508 46.1882 63.6902Z" fill="#F0F0F0"/>
<path d="M27.0589 92.572C31.8495 83.6996 39.414 76.51 48.6781 72.0245C50.6546 71.0246 52.7821 70.3318 54.9821 69.9716C57.137 69.6875 59.3314 69.9657 61.3372 70.7773C63.2232 71.4977 65.0659 72.4455 67.1005 72.7108C68.144 72.8316 69.2022 72.7382 70.2057 72.4365C71.2092 72.1349 72.1353 71.6318 72.9233 70.9604C74.9318 69.3367 76.2162 67.1131 77.394 64.8965C78.7017 62.4354 80.0196 59.859 82.3657 58.1591C82.6499 57.9531 82.3022 57.5394 82.0184 57.745C77.9367 60.7026 77.016 65.95 73.6896 69.5069C72.1375 71.1667 70.0578 72.3849 67.6727 72.2313C65.587 72.097 63.6859 71.1212 61.7828 70.3759C59.8381 69.5565 57.7151 69.2093 55.5994 69.3646C53.3874 69.6155 51.2358 70.228 49.2368 71.1759C44.7009 73.2405 40.5296 75.9807 36.8755 79.2963C32.6833 83.058 29.1886 87.4843 26.5425 92.3837C26.3789 92.687 26.8963 92.8734 27.0589 92.572Z" fill="white"/>
<path d="M45.607 73.2992C44.6165 71.9008 43.1433 70.8879 41.4506 70.4413C39.7579 69.9948 37.9558 70.1436 36.3663 70.8613C36.0452 71.0076 36.2656 71.4962 36.5871 71.3497C38.066 70.6788 39.7446 70.5403 41.32 70.9592C42.8954 71.3782 44.2637 72.327 45.1781 73.6344C45.3772 73.9183 45.8049 73.5815 45.607 73.2992Z" fill="white"/>
<path d="M60.4308 70.2903C59.8004 73.6995 57.8622 76.754 55.0027 78.8449C54.7192 79.0518 55.0667 79.4657 55.3499 79.259C58.3214 77.0778 60.3317 73.8951 60.9796 70.3461C61.0411 70.0077 60.4919 69.9538 60.4308 70.2903Z" fill="white"/>
<path d="M33.3534 83.3417C33.8535 83.8057 34.2264 84.3823 34.4385 85.0197C34.6507 85.6572 34.6956 86.3355 34.5691 86.9939C34.5031 87.3313 35.0524 87.3848 35.1179 87.0496C35.2541 86.3216 35.2036 85.5725 34.9708 84.8677C34.738 84.1629 34.33 83.5239 33.7824 83.0065C33.735 82.9535 33.6685 82.92 33.5964 82.9126C33.5243 82.9053 33.4521 82.9248 33.3943 82.967C33.3377 83.0117 33.3017 83.0761 33.2941 83.1463C33.2864 83.2164 33.3078 83.2866 33.3534 83.3417Z" fill="white"/>
<path d="M60.3348 117.581C60.3822 117.372 60.4296 117.162 60.4812 116.951C61.1332 114.137 62.0209 111.379 63.1355 108.703C63.2183 108.495 63.3055 108.286 63.3942 108.08C66.1509 101.663 70.1177 95.7948 75.0931 90.7752C77.0748 88.7795 79.2109 86.9323 81.483 85.2495C84.6209 82.9257 88.2147 80.6471 90.3124 77.5494C90.535 77.2286 90.7368 76.8948 90.9166 76.5499L83.6942 58.1167C83.656 58.0827 83.6221 58.047 83.5838 58.0129L83.3303 57.2642C83.2068 57.343 83.0805 57.4274 82.9571 57.5063C82.8852 57.5518 82.815 57.6014 82.7432 57.6468C82.6959 57.6785 82.6486 57.7103 82.604 57.7362C82.5881 57.7467 82.5724 57.7573 82.5609 57.7662C82.5163 57.7921 82.4777 57.8208 82.4375 57.8451C81.7302 58.3149 81.0251 58.7903 80.3223 59.2713C80.3179 59.2729 80.3179 59.2729 80.3151 59.2786C74.9692 62.9569 69.8943 67.0983 65.6319 71.8518C65.5037 71.9948 65.3711 72.1393 65.2462 72.2907C63.3372 74.4437 61.6137 76.7436 60.0929 79.1676C59.2645 80.4975 58.5065 81.867 57.8216 83.2709C56.0591 86.9017 54.8991 90.7774 54.3842 94.7562C53.359 102.688 54.9727 110.848 59.9497 117.107C60.0771 117.267 60.203 117.423 60.3348 117.581Z" fill="#F0F0F0"/>
<path d="M60.5609 117.452C58.8528 107.583 60.409 97.4457 65.0084 88.4795C65.9631 86.5323 67.2297 84.7426 68.7617 83.1762C70.305 81.6968 72.2306 80.6435 74.3383 80.1256C76.2934 79.6046 78.3558 79.2903 80.1457 78.3195C81.0543 77.8094 81.8409 77.1197 82.454 76.2956C83.0671 75.4715 83.4929 74.5315 83.7033 73.5374C84.2944 71.0736 83.9332 68.5516 83.4912 66.0972C83.0005 63.372 82.4461 60.5489 83.2591 57.828C83.3577 57.4983 82.822 57.37 82.7236 57.6992C81.3091 62.4331 83.8465 67.158 83.4088 71.9315C83.2045 74.1589 82.3037 76.3404 80.3036 77.6041C78.5545 78.7092 76.4281 79.0351 74.4437 79.5461C72.38 80.0222 70.4683 80.979 68.8759 82.3327C67.2663 83.8188 65.9303 85.5584 64.9253 87.4772C62.5913 91.7621 60.9696 96.3746 60.1197 101.146C59.1185 106.586 59.0885 112.151 60.0312 117.601C60.0897 117.939 60.6191 117.787 60.5609 117.452Z" fill="white"/>
<path d="M63.3514 91.2823C61.6884 90.7416 59.8805 90.7891 58.2504 91.4164C56.6204 92.0437 55.2744 93.21 54.4528 94.7069C54.2877 95.0104 54.7684 95.2724 54.9337 94.9686C55.6961 93.5732 56.95 92.487 58.4691 91.9058C59.9883 91.3246 61.6725 91.2869 63.218 91.7993C63.554 91.9103 63.6854 91.3927 63.3514 91.2823Z" fill="white"/>
<path d="M73.3109 80.2636C74.9337 83.3521 75.2911 86.9175 74.3118 90.2491C74.2145 90.579 74.7501 90.7074 74.8473 90.3778C75.8596 86.9091 75.4799 83.1995 73.7839 79.9891C73.622 79.6833 73.1499 79.9594 73.3109 80.2636Z" fill="white"/>
<path d="M59.8305 106.423C60.5191 106.503 61.1764 106.746 61.7433 107.132C62.3103 107.518 62.7691 108.033 63.0787 108.633C63.2365 108.94 63.7084 108.664 63.5517 108.358C63.2064 107.698 62.699 107.129 62.0735 106.701C61.4481 106.274 60.7238 106.001 59.9639 105.906C59.893 105.891 59.819 105.903 59.7569 105.939C59.6948 105.975 59.6492 106.033 59.6294 106.1C59.6121 106.169 59.6235 106.241 59.6612 106.302C59.6988 106.362 59.7596 106.406 59.8305 106.423Z" fill="white"/>
<path d="M169.022 44.715H167.951V16.3924C167.951 14.2397 167.512 12.1081 166.659 10.1193C165.806 8.13047 164.555 6.32339 162.978 4.80122C161.402 3.27905 159.53 2.07159 157.47 1.2478C155.41 0.424004 153.202 2.09153e-06 150.972 0H88.8171C84.3138 -8.44792e-06 79.995 1.72703 76.8107 4.80118C73.6264 7.87534 71.8375 12.0448 71.8375 16.3923V171.772C71.8375 176.12 73.6264 180.289 76.8107 183.363C79.9949 186.438 84.3138 188.165 88.817 188.165H150.972C155.475 188.165 159.794 186.438 162.978 183.363C166.162 180.289 167.951 176.12 167.951 171.772V64.8755H169.022V44.715Z" fill="#5F6C72"/>
<path d="M151.657 4.26466H143.544C143.917 5.14776 144.059 6.10589 143.958 7.05465C143.858 8.00341 143.517 8.91368 142.966 9.70527C142.415 10.4969 141.67 11.1455 140.798 11.594C139.927 12.0425 138.954 12.2771 137.966 12.2772H102.358C101.37 12.2771 100.398 12.0425 99.5258 11.594C98.6539 11.1455 97.9097 10.4969 97.3586 9.70528C96.8076 8.91369 96.4667 8.00342 96.3659 7.05465C96.2651 6.10589 96.4075 5.14775 96.7806 4.26465H89.2028C85.8398 4.26465 82.6146 5.55438 80.2366 7.85013C77.8586 10.1459 76.5226 13.2596 76.5226 16.5063V171.658C76.5226 174.905 77.8586 178.019 80.2366 180.314C82.6146 182.61 85.8398 183.9 89.2028 183.9H151.657C155.02 183.9 158.245 182.61 160.623 180.314C163.001 178.019 164.337 174.905 164.337 171.658V16.5063C164.337 14.8987 164.009 13.3068 163.372 11.8216C162.735 10.3364 161.801 8.98687 160.623 7.85013C159.446 6.7134 158.048 5.81169 156.509 5.19649C154.971 4.58129 153.322 4.26466 151.657 4.26466Z" fill="white"/>
<path d="M120.448 95.2938C113.048 95.2938 105.814 93.1753 99.6605 89.2061C93.5073 85.2368 88.7115 79.5952 85.8796 72.9947C83.0476 66.3941 82.3066 59.131 83.7503 52.1239C85.1941 45.1167 88.7577 38.6803 93.9905 33.6284C99.2234 28.5766 105.89 25.1362 113.149 23.7424C120.407 22.3486 127.93 23.064 134.767 25.7981C141.604 28.5321 147.448 33.1621 151.559 39.1024C155.67 45.0428 157.865 52.0268 157.865 59.1712C157.854 68.7482 153.908 77.9299 146.893 84.7018C139.879 91.4738 130.368 95.283 120.448 95.2938ZM120.448 23.6854C113.178 23.6854 106.072 25.7666 100.027 29.6658C93.9825 33.565 89.2713 39.1071 86.4892 45.5913C83.7072 52.0755 82.9793 59.2104 84.3975 66.094C85.8158 72.9775 89.3165 79.3005 94.4571 84.2632C99.5976 89.226 106.147 92.6057 113.277 93.9749C120.407 95.3442 127.798 94.6414 134.514 91.9556C141.231 89.2698 146.971 84.7215 151.01 78.886C155.049 73.0504 157.205 66.1896 157.205 59.1712C157.194 49.763 153.318 40.7433 146.427 34.0907C139.536 27.4381 130.193 23.6961 120.448 23.6854Z" fill="#3F3D56"/>
<path d="M116.136 62.2919C114.844 58.5969 110.235 56.3358 106.383 57.5075C103.051 58.5206 100.785 61.9502 100.966 65.2793C99.8516 61.2131 95.565 58.0331 91.1686 58.3311C86.2277 58.6659 82.0562 63.331 82.4342 68.0987C82.2602 66.8479 81.6494 65.6919 80.7029 64.8216C79.7563 63.9512 78.5306 63.4186 77.2281 63.3116C75.9256 63.2047 74.6243 63.5298 73.5391 64.2334C72.4539 64.9369 71.6497 65.9768 71.2594 67.1812L71.2609 67.0929C70.4748 66.6664 69.4102 67.4137 69.3631 68.2832C69.316 69.1526 70.023 69.9272 70.852 70.27C71.6809 70.6129 72.6118 70.6172 73.5137 70.6162C84.7674 70.6022 96.0213 70.5882 107.275 70.5742C109.889 70.5709 112.771 70.4719 114.693 68.7608C116.469 67.1793 116.908 64.5022 116.136 62.2919Z" fill="#E4E4E4"/>
<path d="M143.039 79.1615C142.667 78.2095 141.94 77.4261 141 76.9652C140.06 76.5042 138.976 76.3988 137.96 76.6697C136.225 77.1974 135.045 78.9836 135.139 80.7174C134.559 78.5997 132.326 76.9435 130.036 77.0987C127.463 77.2731 125.291 79.7027 125.487 82.1858C125.397 81.5344 125.079 80.9323 124.586 80.479C124.093 80.0257 123.454 79.7483 122.776 79.6926C122.098 79.6369 121.42 79.8063 120.855 80.1727C120.29 80.5391 119.871 81.0807 119.667 81.7079L119.668 81.6619C119.259 81.4398 118.704 81.829 118.68 82.2819C118.688 82.5091 118.766 82.7288 118.905 82.9131C119.043 83.0973 119.234 83.2378 119.455 83.3166C119.9 83.4665 120.372 83.5278 120.841 83.4969C126.703 83.4896 132.564 83.4823 138.425 83.475C139.786 83.4733 141.287 83.4218 142.288 82.5306C143.213 81.7069 143.442 80.3127 143.039 79.1615Z" fill="#E4E4E4"/>
<path d="M127.866 50.8796C134.98 50.8796 140.748 45.3113 140.748 38.4424C140.748 31.5735 134.98 26.0051 127.866 26.0051C120.751 26.0051 114.983 31.5735 114.983 38.4424C114.983 45.3113 120.751 50.8796 127.866 50.8796Z" fill="#FC633E"/>
<path d="M163.372 42.6937C162.081 38.9987 157.472 36.7377 153.619 37.9093C150.288 38.9225 148.022 42.352 148.203 45.6812C147.088 41.6149 142.802 38.4349 138.405 38.7329C133.465 39.0678 129.293 43.7329 129.671 48.5005C129.497 47.2498 128.886 46.0938 127.94 45.2234C126.993 44.3531 125.767 43.8204 124.465 43.7135C123.162 43.6065 121.861 43.9317 120.776 44.6352C119.691 45.3388 118.887 46.3786 118.496 47.583L118.498 47.4947C117.712 47.0682 116.647 47.8156 116.6 48.6851C116.553 49.5545 117.26 50.329 118.089 50.6719C118.918 51.0148 119.849 51.0191 120.75 51.018C132.004 51.004 143.258 50.99 154.512 50.976C157.126 50.9728 160.008 50.8738 161.93 49.1627C163.706 47.5811 164.145 44.904 163.372 42.6937Z" fill="#E4E4E4"/>
<path d="M138.21 62.2158L140.692 60.2998C138.764 60.0945 137.972 61.1094 137.648 61.9128C136.142 61.3091 134.502 62.1003 134.502 62.1003L139.467 63.8404C139.217 63.1945 138.781 62.631 138.21 62.2158Z" fill="#3F3D56"/>
<path d="M106.198 81.0601L108.68 79.144C106.752 78.9387 105.96 79.9537 105.636 80.7571C104.13 80.1533 102.49 80.9445 102.49 80.9445L107.455 82.6847C107.205 82.0388 106.769 81.4752 106.198 81.0601Z" fill="#3F3D56"/>
<path d="M100.733 48.648L103.214 46.7319C101.287 46.5266 100.495 47.5416 100.17 48.345C98.6644 47.7412 97.025 48.5324 97.025 48.5324L101.99 50.2725C101.739 49.6267 101.303 49.0631 100.733 48.648Z" fill="#3F3D56"/>
<path d="M118.496 160.176C130.57 160.176 140.358 159.164 140.358 157.915C140.358 156.666 130.57 155.654 118.496 155.654C106.422 155.654 96.6346 156.666 96.6346 157.915C96.6346 159.164 106.422 160.176 118.496 160.176Z" fill="#F0F0F0"/>
<path d="M11.1463 121.504H113.692C116.321 121.505 118.866 122.402 120.876 124.038C122.887 125.674 124.233 127.944 124.678 130.446C125.122 132.948 124.637 135.521 123.306 137.71C121.976 139.9 119.886 141.565 117.407 142.411V149.841L110.348 143.026H11.1463C8.19116 143.024 5.35762 141.89 3.2686 139.872C1.17958 137.854 0.006073 135.118 0.006073 132.265C0.006073 129.412 1.17958 126.676 3.2686 124.658C5.35762 122.64 8.19116 121.506 11.1463 121.504Z" fill="#00B0FF" fill-opacity="0.75"/>
<path d="M15.9763 129.754H106.261C106.458 129.754 106.647 129.679 106.787 129.544C106.926 129.41 107.004 129.227 107.004 129.037C107.004 128.847 106.926 128.664 106.787 128.53C106.647 128.395 106.458 128.32 106.261 128.32H15.9763C15.7793 128.32 15.5902 128.395 15.4509 128.53C15.3115 128.664 15.2332 128.847 15.2332 129.037C15.2332 129.227 15.3115 129.41 15.4509 129.544C15.5902 129.679 15.7793 129.754 15.9763 129.754Z" fill="white"/>
<path d="M15.9763 135.135H106.261C106.458 135.135 106.647 135.059 106.787 134.925C106.926 134.79 107.004 134.608 107.004 134.417C107.004 134.227 106.926 134.045 106.787 133.91C106.647 133.776 106.458 133.7 106.261 133.7H15.9763C15.7793 133.7 15.5902 133.776 15.4509 133.91C15.3115 134.045 15.2332 134.227 15.2332 134.417C15.2332 134.608 15.3115 134.79 15.4509 134.925C15.5902 135.059 15.7793 135.135 15.9763 135.135Z" fill="white"/>
<path d="M238.775 158.427C239.268 158.157 239.694 157.785 240.022 157.338C240.35 156.892 240.573 156.381 240.675 155.842C240.776 155.304 240.755 154.75 240.611 154.22C240.467 153.691 240.204 153.198 239.842 152.777L244.353 118.94L235.922 119.282L234.139 152.435C233.447 153.07 233.02 153.928 232.939 154.846C232.858 155.765 233.129 156.68 233.7 157.419C234.271 158.158 235.104 158.668 236.039 158.854C236.975 159.04 237.948 158.888 238.775 158.427Z" fill="#FFB6B6"/>
<path d="M278.007 118.935L279.09 136.236L271.777 154.884L268.282 149.896L271.613 131.755L270.689 120.149L278.007 118.935Z" fill="#FFB6B6"/>
<path d="M267.535 172.278L268.433 216.751L264.495 217.34L255.984 171.821L267.535 172.278Z" fill="#FFB6B6"/>
<path d="M241.997 174.427L248.16 218.509H252.145L253.34 172.269L241.997 174.427Z" fill="#FFB6B6"/>
<path d="M253.594 96.3196C258.12 96.3196 261.788 92.7777 261.788 88.4086C261.788 84.0394 258.12 80.4976 253.594 80.4976C249.068 80.4976 245.4 84.0394 245.4 88.4086C245.4 92.7777 249.068 96.3196 253.594 96.3196Z" fill="#FFB6B6"/>
<path d="M260.489 91.7607C260.768 92.3532 261.206 91.9827 261.716 91.5785C262.669 90.8243 263.224 89.6457 263.543 88.5224C264.093 86.6547 264.143 84.6827 263.688 82.7913C263.224 80.896 262.142 79.1945 260.602 77.9368C260.25 77.6521 259.867 77.4053 259.459 77.2009C258.086 76.5275 256.464 76.4984 254.94 76.7169C252.94 77.0139 251.018 77.6796 249.279 78.6776C248.489 79.0804 247.801 79.646 247.263 80.3342C246.998 80.6809 246.826 81.0855 246.762 81.5119C246.699 81.9383 246.745 82.3734 246.898 82.7782C246.924 82.8489 246.968 82.9115 247.028 82.9595C247.138 83.0152 247.265 83.0288 247.385 82.9978C248.623 82.834 249.878 82.8378 251.114 83.0092C251.285 83.0105 251.454 83.05 251.606 83.1244C251.759 83.1988 251.891 83.3063 251.994 83.4384C252.064 83.6725 252.118 83.9105 252.157 84.1512C252.437 84.8744 253.674 84.6969 254.14 85.3246C254.433 85.7189 254.303 86.2792 254.508 86.7224C254.835 87.4332 255.834 87.5461 256.63 87.4239C257.425 87.3017 258.286 87.0596 259 87.4194C259.688 87.766 259.988 88.5537 260.162 89.2842C260.33 89.9935 260.193 91.1325 260.489 91.7607Z" fill="#2F2E41"/>
<path d="M268.536 147.471L271.975 155.233L268.536 165.677V176.487L255.368 176.563L255.077 163.27L253.305 176.563H239.897L237.415 149.918L240.975 143.613L268.536 147.471Z" fill="#5F6C72"/>
<path d="M245.368 107.817L237.415 106.654C237.415 106.654 235.238 118.983 235.255 121.798L244.855 123.276L245.368 107.817Z" fill="#F9A826"/>
<path d="M270.729 106.641L274.53 105.855C274.53 105.855 275.996 110.347 278.415 120.925L268.537 124.253L270.729 106.641Z" fill="#F9A826"/>
<path d="M252.918 221.402L238.608 221.401V221.227C238.608 219.8 239.195 218.433 240.239 217.424C241.284 216.416 242.7 215.849 244.177 215.849H244.178L252.918 215.85L252.918 221.402Z" fill="#2F2E41"/>
<path d="M270.165 219.288L256.023 221.402L255.995 221.229C255.769 219.82 256.133 218.382 257.005 217.231C257.877 216.08 259.188 215.311 260.647 215.092L269.285 213.801L270.165 219.288Z" fill="#2F2E41"/>
<path d="M310.67 222H184.963C184.875 222 184.791 221.967 184.729 221.907C184.668 221.847 184.633 221.766 184.633 221.682C184.633 221.597 184.668 221.516 184.729 221.456C184.791 221.397 184.875 221.363 184.963 221.363H310.67C310.758 221.363 310.841 221.397 310.903 221.456C310.965 221.516 311 221.597 311 221.682C311 221.766 310.965 221.847 310.903 221.907C310.841 221.967 310.758 222 310.67 222Z" fill="#CACACA"/>
</g>
<defs>
<clipPath id="clip0_120_87">
<rect width="311" height="222" fill="white"/>
</clipPath>
</defs>
</svg>
