<svg width="262" height="229" viewBox="0 0 262 229" fill="none" xmlns="http://www.w3.org/2000/svg">
<g clip-path="url(#clip0_120_38)">
<path d="M106.087 228.674H110.875C111.477 228.674 112.054 228.433 112.48 228.005C112.905 227.576 113.145 226.996 113.146 226.391V186.257C113.145 185.651 112.905 185.071 112.48 184.643C112.054 184.215 111.477 183.974 110.875 183.973H106.087C105.485 183.974 104.907 184.215 104.482 184.643C104.056 185.071 103.816 185.651 103.816 186.257V226.391C103.816 226.996 104.056 227.576 104.482 228.005C104.907 228.433 105.485 228.674 106.087 228.674Z" fill="#F9A826"/>
<path d="M116.205 228.674H120.993C121.596 228.674 122.173 228.433 122.598 228.005C123.024 227.576 123.264 226.996 123.264 226.391V186.257C123.264 185.651 123.024 185.071 122.598 184.643C122.173 184.215 121.596 183.974 120.993 183.973H116.205C115.603 183.974 115.026 184.215 114.601 184.643C114.175 185.071 113.935 185.651 113.935 186.257V226.391C113.935 226.996 114.175 227.576 114.601 228.005C115.026 228.433 115.603 228.674 116.205 228.674Z" fill="#F9A826"/>
<path d="M242.308 98.803C243.277 102.885 244.502 103.857 245.661 103.578C246.821 103.3 247.477 101.877 246.508 97.7944C245.538 93.7124 242.151 88.7957 242.151 88.7957C242.151 88.7957 241.339 94.7209 242.308 98.803Z" fill="#CCCCCC"/>
<path d="M244.903 169.926C245.872 174.008 247.097 174.98 248.257 174.701C249.416 174.423 250.072 172.999 249.103 168.917C248.134 164.835 244.746 159.918 244.746 159.918C244.746 159.918 243.934 165.844 244.903 169.926Z" fill="#CCCCCC"/>
<path d="M102.873 42.8116C102.873 42.8116 100.651 38.0845 104.241 36.8555C107.831 35.6265 107.573 40.5773 107.573 40.5773L103.206 43.1838" fill="#5F6C72"/>
<path d="M121.458 71.8059L146.712 135.194C146.712 135.194 150.749 145.691 141.829 147.702C136.466 148.912 133.631 145.64 132.223 142.839C130.719 139.846 134.802 137.215 136.842 139.866C136.875 139.909 136.909 139.953 136.942 139.998C136.992 140.065 142.342 144.24 142.339 138.526C142.326 137.208 142.054 135.907 141.54 134.695L116.721 74.7475L121.458 71.8059Z" fill="#3F3D56"/>
<path d="M105.436 40.1211C105.436 40.1211 112.542 39.0776 116.539 36.8062C116.539 36.8062 160.398 27.4178 185.721 62.4413C185.721 62.4413 66.507 90.1947 61.3653 107.654C61.3653 107.654 53.8829 75.3445 93.5186 45.5208C93.5186 45.5208 103.215 42.1316 105.436 40.1211Z" fill="#3F3D56"/>
<path d="M240.66 140.848C241.252 143.339 241.999 143.932 242.707 143.762C243.414 143.592 243.814 142.724 243.223 140.233C242.631 137.742 240.565 134.742 240.565 134.742C240.565 134.742 240.069 138.358 240.66 140.848Z" fill="#CCCCCC"/>
<path d="M259.151 152.92C259.743 155.411 260.49 156.004 261.197 155.834C261.905 155.664 262.305 154.795 261.714 152.304C261.122 149.814 259.055 146.813 259.055 146.813C259.055 146.813 258.56 150.429 259.151 152.92Z" fill="#CCCCCC"/>
<path d="M123.253 35.1839C124.222 39.266 125.447 40.2376 126.606 39.9591C127.766 39.6806 128.422 38.2574 127.452 34.1753C126.483 30.0932 123.096 25.1765 123.096 25.1765C123.096 25.1765 122.284 31.1018 123.253 35.1839Z" fill="#CCCCCC"/>
<path d="M119.01 6.10646C119.601 8.59734 120.348 9.19019 121.056 9.02025C121.764 8.8503 122.164 7.98187 121.572 5.491C120.981 3.00012 118.914 0 118.914 0C118.914 0 118.418 3.61561 119.01 6.10646Z" fill="#CCCCCC"/>
<path d="M137.501 18.1778C138.092 20.6686 138.839 21.2615 139.547 21.0915C140.255 20.9216 140.655 20.0532 140.063 17.5623C139.472 15.0714 137.405 12.0713 137.405 12.0713C137.405 12.0713 136.909 15.6869 137.501 18.1778Z" fill="#CCCCCC"/>
<path d="M174.508 163.075C175.478 167.157 176.702 168.128 177.862 167.85C179.021 167.571 179.677 166.148 178.708 162.066C177.739 157.984 174.352 153.067 174.352 153.067C174.352 153.067 173.539 158.993 174.508 163.075Z" fill="#CCCCCC"/>
<path d="M170.265 133.997C170.857 136.488 171.604 137.081 172.311 136.911C173.019 136.741 173.419 135.872 172.828 133.382C172.236 130.891 170.17 127.891 170.17 127.891C170.17 127.891 169.674 131.506 170.265 133.997Z" fill="#CCCCCC"/>
<path d="M188.756 146.069C189.348 148.56 190.095 149.152 190.802 148.982C191.51 148.812 191.91 147.944 191.319 145.453C190.727 142.962 188.66 139.962 188.66 139.962C188.66 139.962 188.165 143.578 188.756 146.069Z" fill="#CCCCCC"/>
<path d="M193.648 41.3826C194.617 45.4647 195.842 46.4364 197.001 46.1578C198.161 45.8793 198.817 44.4561 197.848 40.374C196.878 36.2919 193.491 31.3752 193.491 31.3752C193.491 31.3752 192.679 37.3005 193.648 41.3826Z" fill="#CCCCCC"/>
<path d="M196.243 112.506C197.212 116.588 198.437 117.559 199.597 117.281C200.756 117.002 201.412 115.579 200.443 111.497C199.473 107.415 196.086 102.498 196.086 102.498C196.086 102.498 195.274 108.424 196.243 112.506Z" fill="#CCCCCC"/>
<path d="M192 83.4282C192.592 85.9191 193.339 86.512 194.046 86.342C194.754 86.1721 195.154 85.3036 194.563 82.8128C193.971 80.3219 191.904 77.3218 191.904 77.3218C191.904 77.3218 191.409 80.9374 192 83.4282Z" fill="#CCCCCC"/>
<path d="M210.491 95.4995C211.082 97.9904 211.83 98.5833 212.537 98.4133C213.245 98.2434 213.645 97.3749 213.054 94.8841C212.462 92.3932 210.395 89.3931 210.395 89.3931C210.395 89.3931 209.899 93.0087 210.491 95.4995Z" fill="#CCCCCC"/>
<path d="M144.015 44.3189C144.984 48.401 146.208 49.3726 147.368 49.0941C148.528 48.8156 149.183 47.3924 148.214 43.3103C147.245 39.2282 143.858 34.3115 143.858 34.3115C143.858 34.3115 143.045 40.2368 144.015 44.3189Z" fill="#CCCCCC"/>
<path d="M146.61 115.442C147.579 119.524 148.803 120.496 149.963 120.217C151.123 119.939 151.779 118.515 150.809 114.433C149.84 110.351 146.453 105.435 146.453 105.435C146.453 105.435 145.64 111.36 146.61 115.442Z" fill="#CCCCCC"/>
<path d="M142.367 86.3645C142.958 88.8554 143.705 89.4482 144.413 89.2783C145.121 89.1084 145.521 88.2399 144.929 85.7491C144.338 83.2582 142.271 80.2581 142.271 80.2581C142.271 80.2581 141.775 83.8737 142.367 86.3645Z" fill="#CCCCCC"/>
<path d="M97.9496 58.0215C98.9189 62.1037 100.143 63.0753 101.303 62.7967C102.463 62.5182 103.119 61.095 102.149 57.0129C101.18 52.9309 97.7929 48.0142 97.7929 48.0142C97.7929 48.0142 96.9803 53.9394 97.9496 58.0215Z" fill="#CCCCCC"/>
<path d="M112.197 41.0154C112.789 43.5063 113.536 44.0991 114.244 43.9292C114.951 43.7592 115.351 42.8908 114.76 40.3999C114.169 37.9091 112.102 34.9089 112.102 34.9089C112.102 34.9089 111.606 38.5246 112.197 41.0154Z" fill="#CCCCCC"/>
<path d="M74.9171 38.7728C75.8864 42.8549 77.1109 43.8265 78.2706 43.548C79.4303 43.2694 80.086 41.8463 79.1167 37.7642C78.1474 33.6821 74.7604 28.7654 74.7604 28.7654C74.7604 28.7654 73.9478 34.6907 74.9171 38.7728Z" fill="#CCCCCC"/>
<path d="M77.5123 109.896C78.4816 113.978 79.7061 114.949 80.8658 114.671C82.0255 114.392 82.6813 112.969 81.712 108.887C80.7427 104.805 77.3556 99.8882 77.3556 99.8882C77.3556 99.8882 76.543 105.813 77.5123 109.896Z" fill="#CCCCCC"/>
<path d="M73.2693 80.8181C73.8608 83.309 74.608 83.9019 75.3156 83.7319C76.0232 83.562 76.4234 82.6935 75.8319 80.2027C75.2405 77.7118 73.1737 74.7117 73.1737 74.7117C73.1737 74.7117 72.6779 78.3273 73.2693 80.8181Z" fill="#CCCCCC"/>
<path d="M28.8522 52.4752C29.8215 56.5573 31.0459 57.5289 32.2056 57.2504C33.3653 56.9718 34.0211 55.5486 33.0518 51.4666C32.0825 47.3845 28.6955 42.4678 28.6955 42.4678C28.6955 42.4678 27.8829 48.393 28.8522 52.4752Z" fill="#CCCCCC"/>
<path d="M43.1 35.469C43.6915 37.9599 44.4386 38.5528 45.1463 38.3828C45.8539 38.2129 46.2541 37.3444 45.6626 34.8536C45.0712 32.3627 43.0044 29.3625 43.0044 29.3625C43.0044 29.3625 42.5086 32.9782 43.1 35.469Z" fill="#CCCCCC"/>
<path d="M47.9918 85.4268C48.9611 89.5089 50.1856 90.4805 51.3453 90.202C52.505 89.9235 53.1608 88.5003 52.1914 84.4182C51.2221 80.3361 47.8351 75.4194 47.8351 75.4194C47.8351 75.4194 47.0225 81.3447 47.9918 85.4268Z" fill="#CCCCCC"/>
<path d="M50.587 156.55C51.5563 160.632 52.7808 161.603 53.9405 161.325C55.1002 161.046 55.756 159.623 54.7867 155.541C53.8174 151.459 50.4303 146.542 50.4303 146.542C50.4303 146.542 49.6177 152.468 50.587 156.55Z" fill="#CCCCCC"/>
<path d="M46.344 127.472C46.9355 129.963 47.6827 130.556 48.3903 130.386C49.0979 130.216 49.4981 129.348 48.9066 126.857C48.3152 124.366 46.2484 121.366 46.2484 121.366C46.2484 121.366 45.7526 124.981 46.344 127.472Z" fill="#CCCCCC"/>
<path d="M1.92688 99.1292C2.89619 103.211 4.12062 104.183 5.28032 103.904C6.44002 103.626 7.09581 102.203 6.12651 98.1206C5.1572 94.0385 1.77016 89.1218 1.77016 89.1218C1.77016 89.1218 0.957572 95.0471 1.92688 99.1292Z" fill="#CCCCCC"/>
<path d="M16.1748 82.1231C16.7662 84.6139 17.5134 85.2068 18.221 85.0369C18.9287 84.8669 19.3288 83.9985 18.7374 81.5076C18.1459 79.0167 16.0792 76.0166 16.0792 76.0166C16.0792 76.0166 15.5833 79.6322 16.1748 82.1231Z" fill="#CCCCCC"/>
<path d="M110.212 140.012C101.075 140.012 93.668 132.562 93.668 123.373C93.668 114.183 101.075 106.734 110.212 106.734C119.35 106.734 126.757 114.183 126.757 123.373C126.757 132.562 119.35 140.012 110.212 140.012Z" fill="#F9A826"/>
<path d="M123.525 130.357C124.598 130.327 125.933 130.29 126.96 129.534C127.267 129.3 127.518 129.002 127.698 128.659C127.877 128.317 127.98 127.939 127.999 127.553C128.017 127.278 127.972 127.003 127.868 126.749C127.763 126.495 127.601 126.268 127.395 126.087C126.858 125.631 126.074 125.524 125.229 125.774L126.104 119.338L125.461 119.25L124.432 126.815L124.969 126.568C125.591 126.281 126.445 126.135 126.976 126.586C127.107 126.704 127.208 126.85 127.273 127.014C127.338 127.178 127.364 127.354 127.35 127.53C127.334 127.818 127.257 128.098 127.124 128.353C126.991 128.608 126.804 128.831 126.578 129.007C125.778 129.595 124.714 129.671 123.507 129.705L123.525 130.357Z" fill="#5F6C72"/>
<path d="M118.254 119.893H121.748V120.546H118.254V119.893Z" fill="#5F6C72"/>
<path d="M109.055 106.685C108.933 104.718 108.393 102.8 107.47 101.062C106.547 99.3231 105.264 97.8043 103.707 96.6081C102.098 95.4099 100.241 94.5918 98.2745 94.2146C96.308 93.8374 94.2822 93.9108 92.3478 94.4294C90.4258 94.9317 88.6422 95.8662 87.1316 97.1626C85.621 98.4589 84.4227 100.083 83.6271 101.913C82.8263 103.729 82.4267 105.699 82.4559 107.685C82.5442 109.846 83.0778 111.964 84.023 113.906C84.9985 116.044 86.2289 118.049 87.2975 120.139C88.35 122.199 89.2581 124.331 90.0151 126.519C91.5554 130.977 92.4641 135.631 92.7147 140.344C93.1118 147.773 92.4051 158.619 84.0662 161.47C81.9456 162.195 79.658 162.33 77.4347 162.324C75.0931 162.352 72.7576 162.077 70.4859 161.505C66.5492 160.448 62.8121 157.965 61.1346 154.108C60.7481 153.218 60.4889 152.277 60.3648 151.313C60.3299 151.049 60.6135 150.826 60.8514 150.823C60.9795 150.826 61.1016 150.879 61.1922 150.97C61.2828 151.061 61.335 151.184 61.338 151.313C61.8811 155.423 65.2865 158.575 68.9839 159.992C71.1443 160.779 73.4141 161.221 75.7107 161.3C77.9965 161.417 80.3698 161.399 82.608 160.87C84.6004 160.436 86.4132 159.4 87.8029 157.9C89.0418 156.465 89.9659 154.784 90.5147 152.966C91.8309 148.925 91.9689 144.483 91.7376 140.271C91.4759 135.574 90.5476 130.939 88.9809 126.506C88.1896 124.268 87.235 122.091 86.1249 119.994C85.0407 117.944 83.8367 115.951 82.9231 113.813C82.0314 111.848 81.5411 109.723 81.4813 107.564C81.4741 105.57 81.8688 103.595 82.6413 101.759C83.4007 99.9153 84.5393 98.2541 85.9823 96.8843C87.4254 95.5145 89.1402 94.4672 91.0141 93.8112C92.9207 93.1437 94.945 92.8846 96.9571 93.0503C98.9692 93.2161 100.925 93.8031 102.698 94.7737C104.384 95.7488 105.862 97.0505 107.046 98.6035C108.229 100.157 109.095 101.93 109.593 103.822C109.835 104.758 109.981 105.718 110.028 106.685C110.06 107.314 109.087 107.312 109.055 106.685Z" fill="#5F6C72"/>
<path d="M105.82 107.028C105.554 105.213 104.65 103.554 103.271 102.352C101.805 101.117 99.9264 100.489 98.0171 100.598C97.3911 100.63 97.3928 99.6509 98.0171 99.6195C100.092 99.5254 102.129 100.202 103.741 101.52C105.353 102.838 106.427 104.706 106.758 106.768C106.852 107.384 105.914 107.65 105.82 107.028Z" fill="#5F6C72"/>
<path d="M105.978 108.071L110.598 106.537C111.007 106.401 111.345 106.108 111.538 105.722C111.732 105.335 111.765 104.887 111.63 104.476C111.495 104.066 111.203 103.726 110.819 103.531C110.435 103.336 109.99 103.303 109.581 103.439L104.961 104.973C104.552 105.109 104.214 105.402 104.02 105.789C103.827 106.175 103.794 106.623 103.929 107.034C104.064 107.445 104.355 107.785 104.74 107.979C105.124 108.174 105.569 108.207 105.978 108.071Z" fill="#5F6C72"/>
<path d="M98.4886 200.757H128.914C129.473 200.757 130.009 200.533 130.404 200.135C130.8 199.738 131.022 199.199 131.023 198.637V193.821C131.022 193.259 130.8 192.72 130.404 192.323C130.009 191.925 129.473 191.701 128.914 191.701H98.4886C97.9295 191.701 97.3935 191.925 96.9982 192.323C96.6029 192.72 96.3806 193.259 96.3799 193.821V198.637C96.3806 199.199 96.6029 199.738 96.9982 200.135C97.3935 200.533 97.9295 200.757 98.4886 200.757Z" fill="#CCCCCC"/>
<path d="M92.0068 193.469C92.022 193.469 92.0372 193.469 92.0524 193.468L134.598 192.567C134.911 192.561 135.219 192.484 135.499 192.343C135.778 192.202 136.024 192 136.216 191.752C136.409 191.504 136.544 191.215 136.612 190.908C136.68 190.601 136.679 190.282 136.609 189.975L126.251 144.365C126.146 143.896 125.885 143.477 125.511 143.177C125.137 142.877 124.673 142.715 124.195 142.717H117.261C112.377 142.734 107.646 144.432 103.855 147.529C100.065 150.627 97.4432 154.936 96.4269 159.74L89.944 190.914C89.8798 191.222 89.8849 191.542 89.9587 191.848C90.0326 192.154 90.1735 192.44 90.3711 192.685C90.5686 192.93 90.818 193.127 91.1009 193.263C91.3839 193.398 91.6934 193.469 92.0068 193.469Z" fill="#00B0FF" fill-opacity="0.85"/>
<path d="M119.341 167.665C119.895 167.666 120.428 167.447 120.822 167.054L149.216 138.853C149.413 138.658 149.57 138.425 149.677 138.168C149.785 137.912 149.841 137.636 149.843 137.358C149.845 137.079 149.792 136.803 149.687 136.545C149.583 136.287 149.429 136.052 149.234 135.854L145.87 132.428C145.477 132.028 144.942 131.801 144.383 131.798C143.824 131.794 143.286 132.014 142.888 132.409L114.495 160.61C114.097 161.006 113.872 161.544 113.869 162.106C113.865 162.668 114.084 163.209 114.476 163.609L117.84 167.036C118.036 167.235 118.27 167.394 118.528 167.502C118.785 167.61 119.062 167.666 119.341 167.665Z" fill="#F9A826"/>
<path d="M120.654 168.519L133.139 156.267C133.528 155.885 133.756 155.367 133.776 154.82C133.795 154.273 133.605 153.74 133.244 153.331L127.989 147.374C127.781 147.138 127.524 146.952 127.237 146.829C126.949 146.705 126.638 146.647 126.325 146.659C126.013 146.671 125.706 146.753 125.429 146.898C125.151 147.043 124.909 147.248 124.72 147.498L111.361 161.191C110.987 161.611 110.793 162.163 110.822 162.727C110.852 163.29 111.102 163.819 111.518 164.197L117.661 168.679C118.079 169.056 118.629 169.251 119.19 169.221C119.751 169.192 120.278 168.939 120.654 168.519Z" fill="#00B0FF"/>
<path d="M0.386261 229H239.89C239.94 229 239.991 228.99 240.038 228.971C240.085 228.951 240.127 228.923 240.163 228.887C240.199 228.851 240.228 228.808 240.247 228.761C240.267 228.713 240.277 228.663 240.277 228.612C240.277 228.56 240.267 228.51 240.247 228.463C240.228 228.415 240.199 228.373 240.163 228.337C240.127 228.3 240.085 228.272 240.038 228.252C239.991 228.233 239.94 228.223 239.89 228.223H0.386261C0.335449 228.223 0.28511 228.233 0.238129 228.252C0.191132 228.272 0.148422 228.3 0.112427 228.337C0.0764465 228.373 0.0478821 228.415 0.0283966 228.463C0.00892639 228.51 -0.00109863 228.56 -0.00109863 228.612C-0.00109863 228.663 0.00892639 228.713 0.0283966 228.761C0.0478821 228.808 0.0764465 228.851 0.112427 228.887C0.148422 228.923 0.191132 228.951 0.238129 228.971C0.28511 228.99 0.335449 229 0.386261 229Z" fill="#F2F2F2"/>
</g>
<defs>
<clipPath id="clip0_120_38">
<rect width="262" height="229" fill="white" transform="matrix(-1 0 0 1 262 0)"/>
</clipPath>
</defs>
</svg>
