<svg width="1402" height="883" viewBox="0 0 1402 883" fill="none" xmlns="http://www.w3.org/2000/svg">
<g filter="url(#filter0_d_160_75)">
<rect x="148" width="1108" height="800" rx="10" fill="#F2F2F2" fill-opacity="0.4" shape-rendering="crispEdges"/>
</g>
<g clip-path="url(#clip0_160_75)">
<path d="M106.087 295.674H110.875C111.477 295.674 112.054 295.433 112.48 295.005C112.905 294.576 113.145 293.996 113.146 293.391V253.257C113.145 252.651 112.905 252.071 112.48 251.643C112.054 251.215 111.477 250.974 110.875 250.973H106.087C105.485 250.974 104.907 251.215 104.482 251.643C104.056 252.071 103.816 252.651 103.816 253.257V293.391C103.816 293.996 104.056 294.576 104.482 295.005C104.907 295.433 105.485 295.674 106.087 295.674Z" fill="#F9A826"/>
<path d="M116.205 295.674H120.993C121.596 295.674 122.173 295.433 122.598 295.005C123.024 294.576 123.264 293.996 123.264 293.391V253.257C123.264 252.651 123.024 252.071 122.598 251.643C122.173 251.215 121.596 250.974 120.993 250.973H116.205C115.603 250.974 115.026 251.215 114.601 251.643C114.175 252.071 113.935 252.651 113.935 253.257V293.391C113.935 293.996 114.175 294.576 114.601 295.005C115.026 295.433 115.603 295.674 116.205 295.674Z" fill="#F9A826"/>
<path d="M242.308 165.803C243.277 169.885 244.502 170.857 245.661 170.578C246.821 170.3 247.477 168.877 246.508 164.794C245.538 160.712 242.151 155.796 242.151 155.796C242.151 155.796 241.339 161.721 242.308 165.803Z" fill="#CCCCCC"/>
<path d="M244.903 236.926C245.872 241.008 247.097 241.98 248.257 241.701C249.416 241.423 250.072 239.999 249.103 235.917C248.134 231.835 244.746 226.918 244.746 226.918C244.746 226.918 243.934 232.844 244.903 236.926Z" fill="#CCCCCC"/>
<path d="M102.873 109.812C102.873 109.812 100.651 105.085 104.241 103.855C107.831 102.626 107.573 107.577 107.573 107.577L103.206 110.184" fill="#5F6C72"/>
<path d="M121.458 138.806L146.712 202.194C146.712 202.194 150.749 212.691 141.829 214.702C136.466 215.912 133.631 212.64 132.223 209.839C130.719 206.846 134.802 204.215 136.842 206.866C136.875 206.909 136.909 206.953 136.942 206.998C136.992 207.065 142.342 211.24 142.339 205.526C142.326 204.208 142.054 202.907 141.54 201.695L116.721 141.747L121.458 138.806Z" fill="#3F3D56"/>
<path d="M105.436 107.121C105.436 107.121 112.542 106.078 116.539 103.806C116.539 103.806 160.398 94.4178 185.721 129.441C185.721 129.441 66.507 157.195 61.3653 174.654C61.3653 174.654 53.8829 142.345 93.5186 112.521C93.5186 112.521 103.215 109.132 105.436 107.121Z" fill="#3F3D56"/>
<path d="M240.66 207.848C241.252 210.339 241.999 210.932 242.707 210.762C243.414 210.592 243.814 209.724 243.223 207.233C242.631 204.742 240.565 201.742 240.565 201.742C240.565 201.742 240.069 205.358 240.66 207.848Z" fill="#CCCCCC"/>
<path d="M259.151 219.92C259.743 222.411 260.49 223.004 261.197 222.834C261.905 222.664 262.305 221.795 261.714 219.304C261.122 216.814 259.055 213.813 259.055 213.813C259.055 213.813 258.56 217.429 259.151 219.92Z" fill="#CCCCCC"/>
<path d="M123.253 102.184C124.222 106.266 125.447 107.238 126.606 106.959C127.766 106.681 128.422 105.257 127.452 101.175C126.483 97.0932 123.096 92.1765 123.096 92.1765C123.096 92.1765 122.284 98.1018 123.253 102.184Z" fill="#CCCCCC"/>
<path d="M119.01 73.1065C119.601 75.5973 120.348 76.1902 121.056 76.0202C121.764 75.8503 122.164 74.9819 121.572 72.491C120.981 70.0001 118.914 67 118.914 67C118.914 67 118.418 70.6156 119.01 73.1065Z" fill="#CCCCCC"/>
<path d="M137.501 85.1778C138.092 87.6686 138.839 88.2615 139.547 88.0915C140.255 87.9216 140.655 87.0532 140.063 84.5623C139.472 82.0714 137.405 79.0713 137.405 79.0713C137.405 79.0713 136.909 82.6869 137.501 85.1778Z" fill="#CCCCCC"/>
<path d="M174.508 230.075C175.478 234.157 176.702 235.128 177.862 234.85C179.021 234.571 179.677 233.148 178.708 229.066C177.739 224.984 174.352 220.067 174.352 220.067C174.352 220.067 173.539 225.993 174.508 230.075Z" fill="#CCCCCC"/>
<path d="M170.265 200.997C170.857 203.488 171.604 204.081 172.311 203.911C173.019 203.741 173.419 202.872 172.828 200.382C172.236 197.891 170.17 194.891 170.17 194.891C170.17 194.891 169.674 198.506 170.265 200.997Z" fill="#CCCCCC"/>
<path d="M188.756 213.069C189.348 215.56 190.095 216.152 190.802 215.982C191.51 215.812 191.91 214.944 191.319 212.453C190.727 209.962 188.66 206.962 188.66 206.962C188.66 206.962 188.165 210.578 188.756 213.069Z" fill="#CCCCCC"/>
<path d="M193.648 108.383C194.617 112.465 195.842 113.436 197.001 113.158C198.161 112.879 198.817 111.456 197.848 107.374C196.878 103.292 193.491 98.3752 193.491 98.3752C193.491 98.3752 192.679 104.301 193.648 108.383Z" fill="#CCCCCC"/>
<path d="M196.243 179.506C197.212 183.588 198.437 184.559 199.597 184.281C200.756 184.002 201.412 182.579 200.443 178.497C199.473 174.415 196.086 169.498 196.086 169.498C196.086 169.498 195.274 175.424 196.243 179.506Z" fill="#CCCCCC"/>
<path d="M192 150.428C192.592 152.919 193.339 153.512 194.046 153.342C194.754 153.172 195.154 152.304 194.563 149.813C193.971 147.322 191.904 144.322 191.904 144.322C191.904 144.322 191.409 147.937 192 150.428Z" fill="#CCCCCC"/>
<path d="M210.491 162.5C211.082 164.99 211.83 165.583 212.537 165.413C213.245 165.243 213.645 164.375 213.054 161.884C212.462 159.393 210.395 156.393 210.395 156.393C210.395 156.393 209.899 160.009 210.491 162.5Z" fill="#CCCCCC"/>
<path d="M144.015 111.319C144.984 115.401 146.208 116.373 147.368 116.094C148.528 115.816 149.183 114.392 148.214 110.31C147.245 106.228 143.858 101.312 143.858 101.312C143.858 101.312 143.045 107.237 144.015 111.319Z" fill="#CCCCCC"/>
<path d="M146.61 182.442C147.579 186.524 148.803 187.496 149.963 187.217C151.123 186.939 151.779 185.515 150.809 181.433C149.84 177.351 146.453 172.435 146.453 172.435C146.453 172.435 145.64 178.36 146.61 182.442Z" fill="#CCCCCC"/>
<path d="M142.367 153.365C142.958 155.855 143.705 156.448 144.413 156.278C145.121 156.108 145.521 155.24 144.929 152.749C144.338 150.258 142.271 147.258 142.271 147.258C142.271 147.258 141.775 150.874 142.367 153.365Z" fill="#CCCCCC"/>
<path d="M97.9496 125.022C98.9189 129.104 100.143 130.075 101.303 129.797C102.463 129.518 103.119 128.095 102.149 124.013C101.18 119.931 97.7929 115.014 97.7929 115.014C97.7929 115.014 96.9803 120.939 97.9496 125.022Z" fill="#CCCCCC"/>
<path d="M112.197 108.015C112.789 110.506 113.536 111.099 114.244 110.929C114.951 110.759 115.351 109.891 114.76 107.4C114.169 104.909 112.102 101.909 112.102 101.909C112.102 101.909 111.606 105.525 112.197 108.015Z" fill="#CCCCCC"/>
<path d="M74.9171 105.773C75.8864 109.855 77.1109 110.826 78.2706 110.548C79.4303 110.269 80.086 108.846 79.1167 104.764C78.1474 100.682 74.7604 95.7654 74.7604 95.7654C74.7604 95.7654 73.9478 101.691 74.9171 105.773Z" fill="#CCCCCC"/>
<path d="M77.5123 176.896C78.4816 180.978 79.7061 181.949 80.8658 181.671C82.0255 181.392 82.6813 179.969 81.712 175.887C80.7427 171.805 77.3556 166.888 77.3556 166.888C77.3556 166.888 76.543 172.813 77.5123 176.896Z" fill="#CCCCCC"/>
<path d="M73.2693 147.818C73.8608 150.309 74.608 150.902 75.3156 150.732C76.0232 150.562 76.4234 149.694 75.8319 147.203C75.2405 144.712 73.1737 141.712 73.1737 141.712C73.1737 141.712 72.6779 145.327 73.2693 147.818Z" fill="#CCCCCC"/>
<path d="M28.8522 119.475C29.8215 123.557 31.0459 124.529 32.2056 124.25C33.3653 123.972 34.0211 122.549 33.0518 118.467C32.0825 114.384 28.6955 109.468 28.6955 109.468C28.6955 109.468 27.8829 115.393 28.8522 119.475Z" fill="#CCCCCC"/>
<path d="M43.1 102.469C43.6915 104.96 44.4386 105.553 45.1463 105.383C45.8539 105.213 46.2541 104.344 45.6626 101.854C45.0712 99.3627 43.0044 96.3625 43.0044 96.3625C43.0044 96.3625 42.5086 99.9782 43.1 102.469Z" fill="#CCCCCC"/>
<path d="M47.9918 152.427C48.9611 156.509 50.1856 157.481 51.3453 157.202C52.505 156.923 53.1608 155.5 52.1914 151.418C51.2221 147.336 47.8351 142.419 47.8351 142.419C47.8351 142.419 47.0225 148.345 47.9918 152.427Z" fill="#CCCCCC"/>
<path d="M50.587 223.55C51.5563 227.632 52.7808 228.603 53.9405 228.325C55.1002 228.046 55.756 226.623 54.7867 222.541C53.8174 218.459 50.4303 213.542 50.4303 213.542C50.4303 213.542 49.6177 219.468 50.587 223.55Z" fill="#CCCCCC"/>
<path d="M46.344 194.472C46.9355 196.963 47.6827 197.556 48.3903 197.386C49.0979 197.216 49.4981 196.348 48.9066 193.857C48.3152 191.366 46.2484 188.366 46.2484 188.366C46.2484 188.366 45.7526 191.981 46.344 194.472Z" fill="#CCCCCC"/>
<path d="M1.92688 166.129C2.89619 170.211 4.12062 171.183 5.28032 170.904C6.44002 170.626 7.09581 169.203 6.12651 165.121C5.1572 161.039 1.77016 156.122 1.77016 156.122C1.77016 156.122 0.957572 162.047 1.92688 166.129Z" fill="#CCCCCC"/>
<path d="M16.1748 149.123C16.7662 151.614 17.5134 152.207 18.221 152.037C18.9287 151.867 19.3288 150.998 18.7374 148.508C18.1459 146.017 16.0792 143.017 16.0792 143.017C16.0792 143.017 15.5833 146.632 16.1748 149.123Z" fill="#CCCCCC"/>
<path d="M110.212 207.012C101.075 207.012 93.668 199.562 93.668 190.373C93.668 181.183 101.075 173.734 110.212 173.734C119.35 173.734 126.757 181.183 126.757 190.373C126.757 199.562 119.35 207.012 110.212 207.012Z" fill="#F9A826"/>
<path d="M123.525 197.357C124.598 197.327 125.933 197.29 126.96 196.534C127.267 196.3 127.518 196.002 127.698 195.659C127.877 195.317 127.98 194.939 127.999 194.553C128.017 194.278 127.972 194.003 127.868 193.749C127.763 193.495 127.601 193.268 127.395 193.087C126.858 192.631 126.074 192.524 125.229 192.774L126.104 186.338L125.461 186.25L124.432 193.815L124.969 193.568C125.591 193.281 126.445 193.135 126.976 193.586C127.107 193.704 127.208 193.85 127.273 194.014C127.338 194.178 127.364 194.354 127.35 194.53C127.334 194.818 127.257 195.098 127.124 195.353C126.991 195.608 126.804 195.831 126.578 196.007C125.778 196.595 124.714 196.671 123.507 196.705L123.525 197.357Z" fill="#5F6C72"/>
<path d="M118.254 186.893H121.748V187.546H118.254V186.893Z" fill="#5F6C72"/>
<path d="M109.055 173.685C108.933 171.718 108.393 169.8 107.47 168.062C106.547 166.323 105.264 164.804 103.707 163.608C102.098 162.41 100.241 161.592 98.2745 161.215C96.308 160.837 94.2822 160.911 92.3478 161.429C90.4258 161.932 88.6422 162.866 87.1316 164.163C85.621 165.459 84.4227 167.083 83.6271 168.913C82.8263 170.729 82.4267 172.699 82.4559 174.685C82.5442 176.846 83.0778 178.964 84.023 180.906C84.9985 183.044 86.2289 185.049 87.2975 187.139C88.35 189.199 89.2581 191.331 90.0151 193.519C91.5554 197.977 92.4641 202.631 92.7147 207.344C93.1118 214.773 92.4051 225.619 84.0662 228.47C81.9456 229.195 79.658 229.33 77.4347 229.324C75.0931 229.352 72.7576 229.077 70.4859 228.505C66.5492 227.448 62.8121 224.965 61.1346 221.108C60.7481 220.218 60.4889 219.277 60.3648 218.313C60.3299 218.049 60.6135 217.826 60.8514 217.823C60.9795 217.826 61.1016 217.879 61.1922 217.97C61.2828 218.061 61.335 218.184 61.338 218.313C61.8811 222.423 65.2865 225.575 68.9839 226.992C71.1443 227.779 73.4141 228.221 75.7107 228.3C77.9965 228.417 80.3698 228.399 82.608 227.87C84.6004 227.436 86.4132 226.4 87.8029 224.9C89.0418 223.465 89.9659 221.784 90.5147 219.966C91.831 215.925 91.9689 211.483 91.7376 207.271C91.4759 202.574 90.5476 197.939 88.9809 193.506C88.1896 191.268 87.235 189.091 86.1249 186.994C85.0407 184.944 83.8367 182.951 82.9231 180.813C82.0314 178.848 81.5411 176.723 81.4813 174.564C81.4741 172.57 81.8688 170.595 82.6413 168.759C83.4007 166.915 84.5393 165.254 85.9823 163.884C87.4254 162.515 89.1402 161.467 91.0141 160.811C92.9207 160.144 94.945 159.885 96.9571 160.05C98.9692 160.216 100.925 160.803 102.698 161.774C104.384 162.749 105.862 164.051 107.046 165.604C108.229 167.157 109.095 168.93 109.593 170.822C109.835 171.758 109.981 172.718 110.028 173.685C110.06 174.314 109.087 174.312 109.055 173.685Z" fill="#5F6C72"/>
<path d="M105.82 174.028C105.554 172.213 104.65 170.554 103.271 169.352C101.805 168.117 99.9264 167.489 98.0171 167.598C97.3911 167.63 97.3928 166.651 98.0171 166.619C100.092 166.525 102.129 167.202 103.741 168.52C105.353 169.838 106.427 171.706 106.758 173.768C106.852 174.384 105.914 174.65 105.82 174.028Z" fill="#5F6C72"/>
<path d="M105.978 175.071L110.598 173.537C111.007 173.401 111.345 173.108 111.538 172.722C111.732 172.335 111.765 171.887 111.63 171.476C111.495 171.066 111.203 170.726 110.819 170.531C110.435 170.336 109.99 170.303 109.581 170.439L104.961 171.973C104.552 172.109 104.214 172.402 104.02 172.789C103.827 173.175 103.794 173.623 103.929 174.034C104.064 174.445 104.355 174.785 104.74 174.979C105.124 175.174 105.569 175.207 105.978 175.071Z" fill="#5F6C72"/>
<path d="M98.4886 267.757H128.914C129.473 267.757 130.009 267.533 130.404 267.135C130.8 266.738 131.022 266.199 131.023 265.637V260.821C131.022 260.259 130.8 259.72 130.404 259.323C130.009 258.925 129.473 258.701 128.914 258.701H98.4886C97.9295 258.701 97.3935 258.925 96.9982 259.323C96.6029 259.72 96.3806 260.259 96.3799 260.821V265.637C96.3806 266.199 96.6029 266.738 96.9982 267.135C97.3935 267.533 97.9295 267.757 98.4886 267.757Z" fill="#CCCCCC"/>
<path d="M92.0068 260.469C92.022 260.469 92.0372 260.469 92.0524 260.468L134.598 259.567C134.911 259.561 135.219 259.484 135.499 259.343C135.778 259.202 136.024 259 136.216 258.752C136.409 258.504 136.544 258.215 136.612 257.908C136.68 257.601 136.679 257.282 136.609 256.975L126.251 211.365C126.146 210.896 125.885 210.477 125.511 210.177C125.137 209.877 124.673 209.715 124.195 209.717H117.261C112.377 209.734 107.646 211.432 103.855 214.529C100.065 217.627 97.4432 221.936 96.4269 226.74L89.944 257.914C89.8798 258.222 89.8849 258.542 89.9587 258.848C90.0326 259.154 90.1735 259.44 90.3711 259.685C90.5686 259.93 90.818 260.127 91.1009 260.263C91.3839 260.398 91.6934 260.469 92.0068 260.469Z" fill="#00B0FF" fill-opacity="0.85"/>
<path d="M119.341 234.665C119.895 234.666 120.428 234.447 120.822 234.054L149.216 205.853C149.413 205.658 149.57 205.425 149.677 205.168C149.785 204.912 149.841 204.636 149.843 204.358C149.845 204.079 149.792 203.803 149.687 203.545C149.583 203.287 149.429 203.052 149.234 202.854L145.87 199.428C145.477 199.028 144.942 198.801 144.383 198.798C143.824 198.794 143.286 199.014 142.888 199.409L114.495 227.61C114.097 228.006 113.872 228.544 113.869 229.106C113.865 229.668 114.084 230.209 114.476 230.609L117.84 234.036C118.036 234.235 118.27 234.394 118.528 234.502C118.785 234.61 119.062 234.666 119.341 234.665Z" fill="#F9A826"/>
<path d="M120.654 235.519L133.139 223.267C133.528 222.885 133.756 222.367 133.776 221.82C133.795 221.273 133.605 220.74 133.244 220.331L127.989 214.374C127.781 214.138 127.524 213.952 127.237 213.829C126.949 213.705 126.638 213.647 126.325 213.659C126.013 213.671 125.706 213.753 125.429 213.898C125.151 214.043 124.909 214.248 124.72 214.498L111.361 228.191C110.987 228.611 110.793 229.163 110.822 229.727C110.852 230.29 111.102 230.819 111.518 231.197L117.661 235.679C118.079 236.056 118.629 236.251 119.19 236.221C119.751 236.192 120.278 235.939 120.654 235.519Z" fill="#00B0FF"/>
<path d="M0.386264 296H239.89C239.94 296 239.991 295.99 240.038 295.971C240.085 295.951 240.127 295.923 240.163 295.887C240.199 295.851 240.228 295.808 240.247 295.761C240.267 295.713 240.277 295.663 240.277 295.612C240.277 295.56 240.267 295.51 240.247 295.463C240.228 295.415 240.199 295.373 240.163 295.337C240.127 295.3 240.085 295.272 240.038 295.252C239.991 295.233 239.94 295.223 239.89 295.223H0.386264C0.335445 295.223 0.285114 295.233 0.238121 295.252C0.191129 295.272 0.148418 295.3 0.112432 295.337C0.0764452 295.373 0.0478824 295.415 0.0284009 295.463C0.0089194 295.51 -0.00110092 295.56 -0.00110092 295.612C-0.00110092 295.663 0.0089194 295.713 0.0284009 295.761C0.0478824 295.808 0.0764452 295.851 0.112432 295.887C0.148418 295.923 0.191129 295.951 0.238121 295.971C0.285114 295.99 0.335445 296 0.386264 296Z" fill="#F2F2F2"/>
</g>
<g clip-path="url(#clip1_160_75)">
<path d="M1391.12 861.035C1390.19 853.79 1385.54 846.651 1378.38 844.293C1381.2 851.75 1381.2 859.931 1378.38 867.389C1377.28 870.261 1375.74 873.345 1376.78 876.239C1377.42 878.04 1379 879.418 1380.76 880.28C1382.52 881.142 1384.47 881.552 1386.4 881.955L1386.78 882.258C1389.84 875.582 1392.05 868.28 1391.12 861.035Z" fill="#F0F0F0"/>
<path d="M1378.31 844.43C1382.48 848.939 1385.07 854.601 1385.71 860.612C1385.87 861.904 1385.82 863.212 1385.57 864.489C1385.27 865.725 1384.64 866.862 1383.74 867.783C1382.91 868.657 1381.96 869.46 1381.37 870.513C1381.08 871.056 1380.91 871.653 1380.87 872.265C1380.83 872.877 1380.93 873.489 1381.15 874.063C1381.67 875.505 1382.7 876.681 1383.75 877.797C1384.91 879.036 1386.13 880.305 1386.63 881.948C1386.69 882.147 1387 882.046 1386.94 881.847C1386.08 878.989 1383.21 877.365 1381.84 874.791C1381.2 873.59 1380.93 872.195 1381.53 870.927C1382.06 869.819 1383.03 868.99 1383.88 868.112C1384.77 867.226 1385.43 866.142 1385.79 864.955C1386.11 863.695 1386.22 862.391 1386.09 861.098C1385.85 858.183 1385.14 855.322 1383.98 852.621C1382.67 849.531 1380.83 846.679 1378.53 844.189C1378.39 844.035 1378.17 844.277 1378.31 844.43Z" fill="white"/>
<path d="M1385.62 858.665C1386.65 858.423 1387.56 857.836 1388.18 857.008C1388.81 856.181 1389.1 855.166 1389.02 854.146C1389.01 853.939 1388.67 853.955 1388.69 854.162C1388.77 855.112 1388.49 856.057 1387.91 856.826C1387.33 857.596 1386.48 858.14 1385.52 858.359C1385.31 858.407 1385.41 858.712 1385.62 858.665Z" fill="white"/>
<path d="M1384.21 867.392C1382.35 866.32 1380.98 864.61 1380.37 862.604C1380.31 862.405 1379.99 862.506 1380.05 862.705C1380.69 864.791 1382.13 866.568 1384.06 867.68C1384.25 867.785 1384.4 867.497 1384.21 867.392Z" fill="white"/>
<path d="M1382.36 849.835C1381.99 850.009 1381.57 850.089 1381.15 850.069C1380.73 850.048 1380.32 849.928 1379.97 849.718C1379.78 849.61 1379.63 849.898 1379.82 850.005C1380.21 850.235 1380.66 850.368 1381.13 850.391C1381.59 850.415 1382.05 850.329 1382.47 850.141C1382.51 850.126 1382.54 850.097 1382.56 850.06C1382.58 850.022 1382.59 849.978 1382.57 849.938C1382.56 849.897 1382.53 849.864 1382.49 849.845C1382.45 849.826 1382.41 849.822 1382.36 849.835Z" fill="white"/>
<path d="M1356.56 857.234C1356.67 857.305 1356.79 857.375 1356.9 857.449C1358.41 858.405 1359.83 859.479 1361.16 860.659C1361.26 860.748 1361.37 860.841 1361.47 860.933C1364.63 863.808 1367.22 867.225 1369.09 871.011C1369.84 872.519 1370.46 874.078 1370.96 875.677C1371.65 877.885 1372.22 880.332 1373.58 882.138C1373.72 882.328 1373.87 882.51 1374.04 882.681H1386.37C1386.39 882.668 1386.42 882.657 1386.45 882.643L1386.94 882.665C1386.92 882.581 1386.9 882.494 1386.88 882.41C1386.87 882.361 1386.86 882.312 1386.85 882.263C1386.84 882.231 1386.83 882.198 1386.82 882.168C1386.82 882.157 1386.82 882.146 1386.81 882.138C1386.81 882.108 1386.8 882.081 1386.79 882.054C1386.67 881.568 1386.54 881.082 1386.41 880.596C1386.41 880.593 1386.41 880.593 1386.41 880.59C1385.45 876.877 1384.03 873.287 1382.19 869.895C1382.13 869.795 1382.08 869.692 1382.01 869.591C1381.16 868.09 1380.19 866.658 1379.09 865.311C1378.49 864.575 1377.85 863.869 1377.18 863.195C1375.43 861.458 1373.41 859.997 1371.19 858.866C1366.77 856.612 1361.65 855.748 1356.92 857.125C1356.8 857.161 1356.68 857.196 1356.56 857.234Z" fill="#F0F0F0"/>
<path d="M1356.59 857.385C1362.73 858.562 1368.33 861.577 1372.59 866.002C1373.53 866.939 1374.3 868.012 1374.89 869.182C1375.43 870.34 1375.63 871.615 1375.49 872.876C1375.37 874.053 1375.12 875.245 1375.3 876.429C1375.41 877.033 1375.64 877.61 1375.99 878.12C1376.35 878.631 1376.8 879.064 1377.34 879.391C1378.66 880.24 1380.21 880.582 1381.74 880.865C1383.44 881.18 1385.21 881.481 1386.63 882.506C1386.8 882.63 1386.99 882.365 1386.82 882.241C1384.35 880.458 1381.04 880.832 1378.34 879.574C1377.08 878.986 1376 878.029 1375.69 876.668C1375.42 875.478 1375.68 874.248 1375.8 873.057C1375.97 871.83 1375.82 870.583 1375.36 869.425C1374.84 868.229 1374.11 867.129 1373.2 866.171C1371.19 863.982 1368.84 862.112 1366.23 860.629C1363.26 858.92 1360.01 857.715 1356.62 857.064C1356.41 857.024 1356.38 857.345 1356.59 857.385Z" fill="white"/>
<path d="M1371.31 864.499C1371.98 863.708 1372.34 862.712 1372.32 861.689C1372.3 860.666 1371.9 859.682 1371.2 858.914C1371.06 858.759 1370.81 858.966 1370.95 859.121C1371.6 859.835 1371.97 860.751 1371.99 861.703C1372 862.656 1371.66 863.583 1371.03 864.316C1370.9 864.476 1371.17 864.658 1371.31 864.499Z" fill="white"/>
<path d="M1375.63 872.286C1373.47 872.511 1371.31 871.944 1369.57 870.698C1369.4 870.574 1369.21 870.839 1369.38 870.962C1371.19 872.256 1373.44 872.841 1375.69 872.602C1375.9 872.579 1375.84 872.263 1375.63 872.286Z" fill="white"/>
<path d="M1363.2 859.344C1363.01 859.702 1362.72 860.009 1362.38 860.235C1362.03 860.462 1361.63 860.602 1361.21 860.643C1361 860.663 1361.06 860.98 1361.27 860.96C1361.73 860.912 1362.17 860.757 1362.56 860.508C1362.94 860.258 1363.26 859.921 1363.47 859.527C1363.5 859.491 1363.51 859.448 1363.5 859.407C1363.49 859.365 1363.47 859.328 1363.43 859.303C1363.39 859.279 1363.35 859.27 1363.31 859.277C1363.26 859.285 1363.22 859.309 1363.2 859.344Z" fill="white"/>
<path d="M1137.19 724.69C1126.11 730.33 1117.39 741.465 1117.8 753.546C1128.11 744.958 1141.23 740.167 1154.84 740.02C1160.1 739.982 1165.94 740.467 1169.98 737.225C1172.49 735.208 1173.78 732.047 1174.13 728.91C1174.48 725.774 1173.99 722.613 1173.51 719.493L1173.77 718.748C1161.27 718.081 1148.26 719.051 1137.19 724.69Z" fill="#F0F0F0"/>
<path d="M1118.06 753.572C1122.85 744.7 1130.41 737.51 1139.68 733.024C1141.65 732.025 1143.78 731.332 1145.98 730.972C1148.14 730.688 1150.33 730.966 1152.34 731.777C1154.22 732.498 1156.07 733.445 1158.1 733.711C1159.14 733.832 1160.2 733.738 1161.21 733.437C1162.21 733.135 1163.14 732.632 1163.92 731.96C1165.93 730.337 1167.22 728.113 1168.39 725.897C1169.7 723.435 1171.02 720.859 1173.37 719.159C1173.65 718.953 1173.3 718.539 1173.02 718.745C1168.94 721.703 1168.02 726.95 1164.69 730.507C1163.14 732.167 1161.06 733.385 1158.67 733.231C1156.59 733.097 1154.69 732.121 1152.78 731.376C1150.84 730.556 1148.72 730.209 1146.6 730.365C1144.39 730.616 1142.24 731.228 1140.24 732.176C1135.7 734.24 1131.53 736.981 1127.88 740.296C1123.68 744.058 1120.19 748.484 1117.54 753.384C1117.38 753.687 1117.9 753.873 1118.06 753.572Z" fill="white"/>
<path d="M1136.61 734.299C1135.62 732.901 1134.14 731.888 1132.45 731.441C1130.76 730.995 1128.96 731.144 1127.37 731.861C1127.05 732.008 1127.27 732.496 1127.59 732.35C1129.07 731.679 1130.74 731.54 1132.32 731.959C1133.9 732.378 1135.26 733.327 1136.18 734.634C1136.38 734.918 1136.8 734.581 1136.61 734.299Z" fill="white"/>
<path d="M1151.43 731.29C1150.8 734.699 1148.86 737.754 1146 739.845C1145.72 740.052 1146.07 740.466 1146.35 740.259C1149.32 738.078 1151.33 734.895 1151.98 731.346C1152.04 731.008 1151.49 730.954 1151.43 731.29Z" fill="white"/>
<path d="M1124.35 744.342C1124.85 744.806 1125.23 745.382 1125.44 746.02C1125.65 746.657 1125.7 747.336 1125.57 747.994C1125.5 748.331 1126.05 748.385 1126.12 748.05C1126.25 747.322 1126.2 746.573 1125.97 745.868C1125.74 745.163 1125.33 744.524 1124.78 744.006C1124.73 743.954 1124.67 743.92 1124.6 743.913C1124.52 743.905 1124.45 743.925 1124.39 743.967C1124.34 744.012 1124.3 744.076 1124.29 744.146C1124.29 744.216 1124.31 744.287 1124.35 744.342Z" fill="white"/>
<path d="M1151.33 778.581C1151.38 778.372 1151.43 778.162 1151.48 777.951C1152.13 775.137 1153.02 772.379 1154.14 769.703C1154.22 769.495 1154.31 769.286 1154.39 769.08C1157.15 762.663 1161.12 756.795 1166.09 751.775C1168.07 749.779 1170.21 747.932 1172.48 746.25C1175.62 743.926 1179.21 741.647 1181.31 738.549C1181.53 738.229 1181.74 737.895 1181.92 737.55L1174.69 719.117C1174.66 719.083 1174.62 719.047 1174.58 719.013L1174.33 718.264C1174.21 718.343 1174.08 718.427 1173.96 718.506C1173.89 718.552 1173.82 718.601 1173.74 718.647C1173.7 718.678 1173.65 718.71 1173.6 718.736C1173.59 718.747 1173.57 718.757 1173.56 718.766C1173.52 718.792 1173.48 718.821 1173.44 718.845C1172.73 719.315 1172.03 719.79 1171.32 720.271C1171.32 720.273 1171.32 720.273 1171.32 720.279C1165.97 723.957 1160.89 728.098 1156.63 732.852C1156.5 732.995 1156.37 733.139 1156.25 733.291C1154.34 735.444 1152.61 737.744 1151.09 740.168C1150.26 741.497 1149.51 742.867 1148.82 744.271C1147.06 747.902 1145.9 751.777 1145.38 755.756C1144.36 763.688 1145.97 771.848 1150.95 778.107C1151.08 778.267 1151.2 778.423 1151.33 778.581Z" fill="#F0F0F0"/>
<path d="M1151.56 778.452C1149.85 768.583 1151.41 758.446 1156.01 749.479C1156.96 747.532 1158.23 745.743 1159.76 744.176C1161.31 742.697 1163.23 741.644 1165.34 741.126C1167.29 740.605 1169.36 740.29 1171.15 739.319C1172.05 738.809 1172.84 738.12 1173.45 737.296C1174.07 736.471 1174.49 735.532 1174.7 734.537C1175.29 732.074 1174.93 729.552 1174.49 727.097C1174 724.372 1173.45 721.549 1174.26 718.828C1174.36 718.498 1173.82 718.37 1173.72 718.699C1172.31 723.433 1174.85 728.158 1174.41 732.932C1174.2 735.159 1173.3 737.34 1171.3 738.604C1169.55 739.709 1167.43 740.035 1165.44 740.546C1163.38 741.022 1161.47 741.979 1159.88 743.333C1158.27 744.819 1156.93 746.558 1155.93 748.477C1153.59 752.762 1151.97 757.375 1151.12 762.146C1150.12 767.586 1150.09 773.151 1151.03 778.601C1151.09 778.939 1151.62 778.787 1151.56 778.452Z" fill="white"/>
<path d="M1154.35 752.282C1152.69 751.742 1150.88 751.789 1149.25 752.416C1147.62 753.044 1146.27 754.21 1145.45 755.707C1145.29 756.01 1145.77 756.272 1145.93 755.969C1146.7 754.573 1147.95 753.487 1149.47 752.906C1150.99 752.325 1152.67 752.287 1154.22 752.799C1154.55 752.91 1154.69 752.393 1154.35 752.282Z" fill="white"/>
<path d="M1164.31 741.264C1165.93 744.352 1166.29 747.918 1165.31 751.249C1165.21 751.579 1165.75 751.707 1165.85 751.378C1166.86 747.909 1166.48 744.199 1164.78 740.989C1164.62 740.683 1164.15 740.959 1164.31 741.264Z" fill="white"/>
<path d="M1150.83 767.423C1151.52 767.503 1152.18 767.746 1152.74 768.132C1153.31 768.518 1153.77 769.033 1154.08 769.633C1154.24 769.94 1154.71 769.664 1154.55 769.358C1154.21 768.698 1153.7 768.129 1153.07 767.701C1152.45 767.274 1151.72 767.001 1150.96 766.906C1150.89 766.891 1150.82 766.903 1150.76 766.939C1150.69 766.975 1150.65 767.033 1150.63 767.1C1150.61 767.169 1150.62 767.241 1150.66 767.302C1150.7 767.362 1150.76 767.406 1150.83 767.423Z" fill="white"/>
<path d="M1260.02 705.715H1258.95V677.392C1258.95 675.24 1258.51 673.108 1257.66 671.119C1256.81 669.13 1255.55 667.323 1253.98 665.801C1252.4 664.279 1250.53 663.072 1248.47 662.248C1246.41 661.424 1244.2 661 1241.97 661H1179.82C1175.31 661 1170.99 662.727 1167.81 665.801C1164.63 668.875 1162.84 673.045 1162.84 677.392V832.772C1162.84 837.12 1164.63 841.289 1167.81 844.363C1170.99 847.438 1175.31 849.165 1179.82 849.165H1241.97C1246.48 849.165 1250.79 847.438 1253.98 844.363C1257.16 841.289 1258.95 837.12 1258.95 832.772V725.875H1260.02V705.715Z" fill="#5F6C72"/>
<path d="M1242.66 665.265H1234.54C1234.92 666.148 1235.06 667.106 1234.96 668.055C1234.86 669.003 1234.52 669.914 1233.97 670.705C1233.41 671.497 1232.67 672.145 1231.8 672.594C1230.93 673.042 1229.95 673.277 1228.97 673.277H1193.36C1192.37 673.277 1191.4 673.042 1190.53 672.594C1189.65 672.145 1188.91 671.497 1188.36 670.705C1187.81 669.914 1187.47 669.003 1187.37 668.055C1187.27 667.106 1187.41 666.148 1187.78 665.265H1180.2C1176.84 665.265 1173.61 666.554 1171.24 668.85C1168.86 671.146 1167.52 674.26 1167.52 677.506V832.658C1167.52 835.905 1168.86 839.019 1171.24 841.314C1173.61 843.61 1176.84 844.9 1180.2 844.9H1242.66C1246.02 844.9 1249.25 843.61 1251.62 841.314C1254 839.019 1255.34 835.905 1255.34 832.658V677.506C1255.34 675.899 1255.01 674.307 1254.37 672.822C1253.73 671.336 1252.8 669.987 1251.62 668.85C1250.45 667.713 1249.05 666.812 1247.51 666.196C1245.97 665.581 1244.32 665.265 1242.66 665.265Z" fill="white"/>
<path d="M1211.45 756.294C1204.05 756.294 1196.81 754.175 1190.66 750.206C1184.51 746.237 1179.71 740.595 1176.88 733.995C1174.05 727.394 1173.31 720.131 1174.75 713.124C1176.19 706.117 1179.76 699.68 1184.99 694.628C1190.22 689.577 1196.89 686.136 1204.15 684.742C1211.41 683.349 1218.93 684.064 1225.77 686.798C1232.6 689.532 1238.45 694.162 1242.56 700.102C1246.67 706.043 1248.86 713.027 1248.86 720.171C1248.85 729.748 1244.91 738.93 1237.89 745.702C1230.88 752.474 1221.37 756.283 1211.45 756.294ZM1211.45 684.685C1204.18 684.685 1197.07 686.767 1191.03 690.666C1184.98 694.565 1180.27 700.107 1177.49 706.591C1174.71 713.075 1173.98 720.21 1175.4 727.094C1176.82 733.978 1180.32 740.3 1185.46 745.263C1190.6 750.226 1197.15 753.606 1204.28 754.975C1211.41 756.344 1218.8 755.641 1225.51 752.956C1232.23 750.27 1237.97 745.722 1242.01 739.886C1246.05 734.05 1248.2 727.19 1248.2 720.171C1248.19 710.763 1244.32 701.743 1237.43 695.091C1230.54 688.438 1221.19 684.696 1211.45 684.685Z" fill="#3F3D56"/>
<path d="M1207.14 723.292C1205.84 719.597 1201.24 717.336 1197.38 718.507C1194.05 719.521 1191.78 722.95 1191.97 726.279C1190.85 722.213 1186.57 719.033 1182.17 719.331C1177.23 719.666 1173.06 724.331 1173.43 729.099C1173.26 727.848 1172.65 726.692 1171.7 725.822C1170.76 724.951 1169.53 724.419 1168.23 724.312C1166.93 724.205 1165.62 724.53 1164.54 725.233C1163.45 725.937 1162.65 726.977 1162.26 728.181L1162.26 728.093C1161.47 727.666 1160.41 728.414 1160.36 729.283C1160.32 730.153 1161.02 730.927 1161.85 731.27C1162.68 731.613 1163.61 731.617 1164.51 731.616C1175.77 731.602 1187.02 731.588 1198.28 731.574C1200.89 731.571 1203.77 731.472 1205.69 729.761C1207.47 728.179 1207.91 725.502 1207.14 723.292Z" fill="#E4E4E4"/>
<path d="M1234.04 740.162C1233.67 739.209 1232.94 738.426 1232 737.965C1231.06 737.504 1229.98 737.399 1228.96 737.67C1227.22 738.197 1226.04 739.984 1226.14 741.717C1225.56 739.6 1223.33 737.943 1221.04 738.099C1218.46 738.273 1216.29 740.703 1216.49 743.186C1216.4 742.534 1216.08 741.932 1215.59 741.479C1215.09 741.026 1214.45 740.748 1213.78 740.693C1213.1 740.637 1212.42 740.806 1211.85 741.173C1211.29 741.539 1210.87 742.081 1210.67 742.708L1210.67 742.662C1210.26 742.44 1209.7 742.829 1209.68 743.282C1209.69 743.509 1209.77 743.729 1209.9 743.913C1210.04 744.097 1210.23 744.238 1210.46 744.317C1210.9 744.467 1211.37 744.528 1211.84 744.497C1217.7 744.49 1223.56 744.482 1229.42 744.475C1230.79 744.473 1232.29 744.422 1233.29 743.531C1234.21 742.707 1234.44 741.313 1234.04 740.162Z" fill="#E4E4E4"/>
<path d="M1218.87 711.88C1225.98 711.88 1231.75 706.311 1231.75 699.442C1231.75 692.573 1225.98 687.005 1218.87 687.005C1211.75 687.005 1205.98 692.573 1205.98 699.442C1205.98 706.311 1211.75 711.88 1218.87 711.88Z" fill="#FC633E"/>
<path d="M1254.37 703.694C1253.08 699.999 1248.47 697.738 1244.62 698.909C1241.29 699.923 1239.02 703.352 1239.2 706.681C1238.09 702.615 1233.8 699.435 1229.41 699.733C1224.46 700.068 1220.29 704.733 1220.67 709.501C1220.5 708.25 1219.89 707.094 1218.94 706.223C1217.99 705.353 1216.77 704.82 1215.46 704.713C1214.16 704.607 1212.86 704.932 1211.78 705.635C1210.69 706.339 1209.89 707.379 1209.5 708.583L1209.5 708.495C1208.71 708.068 1207.65 708.816 1207.6 709.685C1207.55 710.555 1208.26 711.329 1209.09 711.672C1209.92 712.015 1210.85 712.019 1211.75 712.018C1223 712.004 1234.26 711.99 1245.51 711.976C1248.13 711.973 1251.01 711.874 1252.93 710.163C1254.71 708.581 1255.14 705.904 1254.37 703.694Z" fill="#E4E4E4"/>
<path d="M1229.21 723.216L1231.69 721.3C1229.76 721.094 1228.97 722.109 1228.65 722.913C1227.14 722.309 1225.5 723.1 1225.5 723.1L1230.47 724.84C1230.22 724.195 1229.78 723.631 1229.21 723.216Z" fill="#3F3D56"/>
<path d="M1197.2 742.06L1199.68 740.144C1197.75 739.939 1196.96 740.954 1196.64 741.757C1195.13 741.153 1193.49 741.945 1193.49 741.945L1198.46 743.685C1198.2 743.039 1197.77 742.475 1197.2 742.06Z" fill="#3F3D56"/>
<path d="M1191.73 709.648L1194.21 707.732C1192.29 707.527 1191.49 708.542 1191.17 709.345C1189.66 708.741 1188.02 709.532 1188.02 709.532L1192.99 711.273C1192.74 710.627 1192.3 710.063 1191.73 709.648Z" fill="#3F3D56"/>
<path d="M1209.5 821.176C1221.57 821.176 1231.36 820.164 1231.36 818.915C1231.36 817.666 1221.57 816.654 1209.5 816.654C1197.42 816.654 1187.63 817.666 1187.63 818.915C1187.63 820.164 1197.42 821.176 1209.5 821.176Z" fill="#F0F0F0"/>
<path d="M1102.15 782.504H1204.69C1207.32 782.505 1209.87 783.402 1211.88 785.038C1213.89 786.674 1215.23 788.944 1215.68 791.446C1216.12 793.948 1215.64 796.521 1214.31 798.71C1212.98 800.9 1210.89 802.565 1208.41 803.411V810.841L1201.35 804.026H1102.15C1099.19 804.024 1096.36 802.89 1094.27 800.872C1092.18 798.854 1091.01 796.118 1091.01 793.265C1091.01 790.412 1092.18 787.676 1094.27 785.658C1096.36 783.64 1099.19 782.506 1102.15 782.504Z" fill="#00B0FF" fill-opacity="0.75"/>
<path d="M1106.98 790.754H1197.26C1197.46 790.754 1197.65 790.679 1197.79 790.544C1197.93 790.41 1198 790.227 1198 790.037C1198 789.847 1197.93 789.664 1197.79 789.53C1197.65 789.395 1197.46 789.32 1197.26 789.32H1106.98C1106.78 789.32 1106.59 789.395 1106.45 789.53C1106.31 789.664 1106.23 789.847 1106.23 790.037C1106.23 790.227 1106.31 790.41 1106.45 790.544C1106.59 790.679 1106.78 790.754 1106.98 790.754Z" fill="white"/>
<path d="M1106.98 796.135H1197.26C1197.46 796.135 1197.65 796.059 1197.79 795.925C1197.93 795.79 1198 795.608 1198 795.417C1198 795.227 1197.93 795.045 1197.79 794.91C1197.65 794.776 1197.46 794.7 1197.26 794.7H1106.98C1106.78 794.7 1106.59 794.776 1106.45 794.91C1106.31 795.045 1106.23 795.227 1106.23 795.417C1106.23 795.608 1106.31 795.79 1106.45 795.925C1106.59 796.059 1106.78 796.135 1106.98 796.135Z" fill="white"/>
<path d="M1329.78 819.427C1330.27 819.157 1330.69 818.785 1331.02 818.338C1331.35 817.892 1331.57 817.381 1331.67 816.842C1331.78 816.304 1331.75 815.75 1331.61 815.22C1331.47 814.691 1331.2 814.198 1330.84 813.777L1335.35 779.94L1326.92 780.282L1325.14 813.435C1324.45 814.07 1324.02 814.928 1323.94 815.846C1323.86 816.765 1324.13 817.68 1324.7 818.419C1325.27 819.158 1326.1 819.668 1327.04 819.854C1327.97 820.04 1328.95 819.888 1329.78 819.427Z" fill="#FFB6B6"/>
<path d="M1369.01 779.935L1370.09 797.236L1362.78 815.884L1359.28 810.896L1362.61 792.755L1361.69 781.149L1369.01 779.935Z" fill="#FFB6B6"/>
<path d="M1358.54 833.278L1359.43 877.751L1355.5 878.34L1346.98 832.821L1358.54 833.278Z" fill="#FFB6B6"/>
<path d="M1333 835.427L1339.16 879.509H1343.14L1344.34 833.269L1333 835.427Z" fill="#FFB6B6"/>
<path d="M1344.59 757.32C1349.12 757.32 1352.79 753.778 1352.79 749.409C1352.79 745.039 1349.12 741.498 1344.59 741.498C1340.07 741.498 1336.4 745.039 1336.4 749.409C1336.4 753.778 1340.07 757.32 1344.59 757.32Z" fill="#FFB6B6"/>
<path d="M1351.49 752.761C1351.77 753.353 1352.21 752.983 1352.72 752.578C1353.67 751.824 1354.22 750.646 1354.54 749.522C1355.09 747.655 1355.14 745.683 1354.69 743.791C1354.22 741.896 1353.14 740.195 1351.6 738.937C1351.25 738.652 1350.87 738.405 1350.46 738.201C1349.09 737.528 1347.46 737.498 1345.94 737.717C1343.94 738.014 1342.02 738.68 1340.28 739.678C1339.49 740.08 1338.8 740.646 1338.26 741.334C1338 741.681 1337.83 742.085 1337.76 742.512C1337.7 742.938 1337.75 743.373 1337.9 743.778C1337.92 743.849 1337.97 743.911 1338.03 743.96C1338.14 744.015 1338.27 744.029 1338.39 743.998C1339.62 743.834 1340.88 743.838 1342.11 744.009C1342.29 744.011 1342.45 744.05 1342.61 744.124C1342.76 744.199 1342.89 744.306 1342.99 744.438C1343.06 744.672 1343.12 744.911 1343.16 745.151C1343.44 745.874 1344.67 745.697 1345.14 746.325C1345.43 746.719 1345.3 747.279 1345.51 747.722C1345.84 748.433 1346.83 748.546 1347.63 748.424C1348.43 748.302 1349.29 748.06 1350 748.419C1350.69 748.766 1350.99 749.554 1351.16 750.284C1351.33 750.994 1351.19 752.133 1351.49 752.761Z" fill="#2F2E41"/>
<path d="M1359.54 808.471L1362.98 816.233L1359.54 826.677V837.487L1346.37 837.563L1346.08 824.27L1344.31 837.563H1330.9L1328.41 810.918L1331.98 804.613L1359.54 808.471Z" fill="#5F6C72"/>
<path d="M1336.37 768.817L1328.41 767.654C1328.41 767.654 1326.24 779.983 1326.26 782.798L1335.85 784.276L1336.37 768.817Z" fill="#F9A826"/>
<path d="M1361.73 767.641L1365.53 766.855C1365.53 766.855 1367 771.347 1369.42 781.925L1359.54 785.253L1361.73 767.641Z" fill="#F9A826"/>
<path d="M1343.92 882.402L1329.61 882.401V882.227C1329.61 880.8 1330.19 879.433 1331.24 878.424C1332.28 877.416 1333.7 876.849 1335.18 876.849H1335.18L1343.92 876.85L1343.92 882.402Z" fill="#2F2E41"/>
<path d="M1361.16 880.288L1347.02 882.402L1347 882.229C1346.77 880.82 1347.13 879.382 1348 878.231C1348.88 877.08 1350.19 876.311 1351.65 876.092L1360.28 874.801L1361.16 880.288Z" fill="#2F2E41"/>
<path d="M1401.67 883H1275.96C1275.88 883 1275.79 882.967 1275.73 882.907C1275.67 882.847 1275.63 882.766 1275.63 882.682C1275.63 882.597 1275.67 882.516 1275.73 882.456C1275.79 882.397 1275.88 882.363 1275.96 882.363H1401.67C1401.76 882.363 1401.84 882.397 1401.9 882.456C1401.97 882.516 1402 882.597 1402 882.682C1402 882.766 1401.97 882.847 1401.9 882.907C1401.84 882.967 1401.76 883 1401.67 883Z" fill="#CACACA"/>
</g>
<path d="M1168.25 53.699C1182.37 51.5837 1196.48 49.4685 1210.6 47.3532L1222.79 45.5269L1222.08 33.2896C1211.43 39.1548 1201.09 48.8109 1191.21 61.5946C1190.27 62.8098 1189.6 65.1541 1189.81 68.4726C1190 71.5007 1190.87 73.8536 1191.92 73.8319C1194.81 73.7725 1197.64 75.7242 1200.29 79.3992L1200.15 68.629C1198.74 70.7117 1197.16 72.4492 1195.86 75.0814C1194.36 78.1215 1193.85 84.059 1194.6 89.1127C1195.51 95.2184 1197.45 96.2399 1199.43 96.5635C1202.11 96.9987 1201.94 84.524 1199.27 84.0903C1198.92 84.0325 1198.55 83.8438 1198.2 83.8427C1198.08 83.8424 1198.35 83.9449 1198.34 84.1756C1198.32 85.0715 1198.26 83.4941 1198.38 84.399C1198.53 85.532 1198.41 83.6744 1198.39 84.7936C1198.38 85.6236 1197.96 85.7686 1198.42 85.2001C1198.64 84.9418 1198.84 84.5877 1199.04 84.2858C1200.16 82.6404 1201.27 80.995 1202.39 79.3495C1203.72 77.3794 1203.63 70.489 1202.25 68.5794C1198.91 63.9584 1195.41 61.2839 1191.76 61.3588L1192.47 73.5961C1202.35 60.8124 1212.69 51.1564 1223.34 45.2911C1225.63 44.028 1224.95 32.7068 1222.63 33.0538C1208.51 35.169 1194.4 37.2842 1180.28 39.3995L1168.09 41.2258C1165.43 41.6241 1165.58 54.0993 1168.25 53.699Z" fill="#00B0FF" fill-opacity="0.3"/>
<defs>
<filter id="filter0_d_160_75" x="144" y="0" width="1116" height="808" filterUnits="userSpaceOnUse" color-interpolation-filters="sRGB">
<feFlood flood-opacity="0" result="BackgroundImageFix"/>
<feColorMatrix in="SourceAlpha" type="matrix" values="0 0 0 0 0 0 0 0 0 0 0 0 0 0 0 0 0 0 127 0" result="hardAlpha"/>
<feOffset dy="4"/>
<feGaussianBlur stdDeviation="2"/>
<feComposite in2="hardAlpha" operator="out"/>
<feColorMatrix type="matrix" values="0 0 0 0 0 0 0 0 0 0 0 0 0 0 0 0 0 0 0.25 0"/>
<feBlend mode="normal" in2="BackgroundImageFix" result="effect1_dropShadow_160_75"/>
<feBlend mode="normal" in="SourceGraphic" in2="effect1_dropShadow_160_75" result="shape"/>
</filter>
<clipPath id="clip0_160_75">
<rect width="262" height="229" fill="white" transform="matrix(-1 0 0 1 262 67)"/>
</clipPath>
<clipPath id="clip1_160_75">
<rect width="311" height="222" fill="white" transform="translate(1091 661)"/>
</clipPath>
</defs>
</svg>
