<svg width="489" height="217" viewBox="0 0 489 217" fill="none" xmlns="http://www.w3.org/2000/svg">
<g opacity="0.1" clip-path="url(#clip0_187_372)">
<path d="M450.148 52.7602C394.714 6.63342 277.613 -12.0776 162.447 8.07461C101.563 18.7285 42.8588 40.0751 13.7666 81.409C-38.2389 155.298 70.9531 178.896 142.353 186.417C176.878 190.054 209.395 196.163 239.109 204.48C292.567 219.444 387.192 232.703 458.545 170.373C510.262 125.195 487.072 83.4851 450.148 52.7602Z" fill="#F2F2F2"/>
<path d="M128.761 61.8861C128.606 61.153 128.292 60.435 127.828 59.7503C127.769 59.6208 127.665 59.5001 127.524 59.3958C127.382 59.2916 127.206 59.2061 127.006 59.1449C126.739 59.1034 126.459 59.1015 126.191 59.1394L122.003 59.5226C121.653 59.5321 121.317 59.6101 121.048 59.7445C120.503 60.0875 121.04 60.6398 121.023 61.1129C121.004 61.645 120.214 62.0768 119.356 62.2197C118.481 62.3255 117.578 62.3188 116.708 62.2001L110.853 61.656C112.577 61.3268 114.112 60.7143 115.282 59.8885C116.053 59.3427 116.463 58.3237 115.349 58.0652C115.018 58.0109 114.673 57.9944 114.332 58.0164C111.68 58.0287 109.592 56.7043 107.109 56.1465C105.519 55.8126 103.794 55.7877 102.179 56.0755C100.565 56.3633 99.144 56.949 98.1198 57.7488L101.239 57.8388C101.532 57.8291 101.823 57.8755 102.07 57.9713C102.753 58.3071 101.903 58.9521 102 59.478C102.125 60.1612 103.642 60.3071 104.785 60.3762C105.929 60.4453 107.38 61.0009 106.83 61.6044C101.082 62.7882 95.2329 59.2902 89.1965 59.7208C87.6687 59.8298 86.2261 60.1887 84.7345 60.4143C75.6227 61.7929 66.2027 58.1147 56.8945 58.8937C54.8252 59.1046 52.7914 59.4254 50.8172 59.8521C49.5503 60.1009 48.2289 60.3697 47.3084 60.9465C46.3879 61.5234 46.0376 62.5099 46.9096 63.1131C44.5061 63.2315 42.0865 63.0939 39.7633 62.7069C40.3916 62.9157 40.9142 63.2218 41.2764 63.5931C41.6385 63.9644 41.8269 64.3871 41.8217 64.8169C38.0689 65.1828 34.4154 65.8489 30.9596 66.7974C31.6046 67.4387 32.3579 68.0388 33.2078 68.5882L28.4568 70.4134C30.0619 70.6552 30.8918 71.964 29.9584 72.7814C31.6227 72.3386 32.6541 71.1933 34.4338 70.9611C35.5998 70.809 36.7862 71.0942 37.8922 71.3621C38.9983 71.63 40.214 71.8898 41.359 71.6887C42.5041 71.4877 43.3486 70.5999 42.621 70.0342C47.5152 69.1803 52.5732 68.7078 57.6696 68.6283C58.0628 68.5988 58.4616 68.6441 58.8093 68.7576C59.4728 69.0329 59.2982 69.6274 59.2625 70.1097C59.2268 70.5921 59.8555 71.2261 60.5764 71.0086C59.7282 71.4485 60.4533 72.2765 61.2671 72.739C62.0809 73.2015 63.0617 73.8396 62.5635 74.4413C62.4335 74.5983 62.2129 74.7239 62.0878 74.8824C61.7185 75.3501 62.3049 75.8953 62.9965 76.2059C63.6881 76.5165 64.5352 76.7335 65.0157 77.1636C65.4961 77.5937 65.2779 78.3465 64.4188 78.4066L61.9771 76.5527C61.1428 77.07 60.5709 77.7181 60.3276 78.4218C62.9169 79.6876 63.3064 82.2638 61.1386 83.7867C60.0308 84.5649 58.4555 85.0378 57.0806 85.6448C55.7056 86.2519 54.4334 87.1162 54.4369 88.1382C54.4428 89.9038 54.2016 91.5441 55.308 93.1811C57.3483 96.1995 59.7039 99.1382 62.3608 101.98C63.0585 102.726 63.9602 103.544 65.3737 103.672C63.5874 101.072 61.9793 98.4312 60.5496 95.7499C61.4808 95.752 62.557 95.7963 63.1029 96.2474C63.5549 96.621 63.4578 97.1289 63.5983 97.5823C63.7769 98.0216 64.0748 98.4404 64.4802 98.822L73.0103 107.908C73.7174 108.661 74.5286 109.47 75.88 109.775C76.7441 109.97 77.7438 109.933 78.5391 110.214C79.1625 110.434 79.5824 110.825 80.2179 111.032C82.0148 111.618 84.5136 110.494 86.1928 111.194C86.673 111.394 86.9785 111.712 87.4209 111.941C88.9718 112.744 91.516 112.207 93.3064 112.806C94.4603 113.192 95.0583 113.964 95.6738 114.664C97.2155 116.417 99.7099 118.134 103.014 118.274C104.052 118.318 105.112 118.2 106.126 118.338C107.141 118.476 108.139 119.006 107.977 119.62C107.697 120.673 108.568 121.827 108.334 122.884C107.908 124.81 103.339 125.657 102.947 127.585C102.861 128.008 102.996 128.444 102.827 128.857C102.621 129.363 101.985 129.776 101.759 130.279C101.331 131.234 102.474 132.183 103.73 132.825C104.986 133.467 106.484 134.021 107.171 134.919C107.896 135.869 107.54 136.977 107.776 138.012C108.291 140.27 111.554 141.945 114.912 143.025C115.935 143.354 117.033 143.672 117.696 144.243C118.56 144.988 118.474 145.97 118.762 146.86C119.469 149.04 122.538 150.836 122.625 153.055C122.687 154.633 121.22 156.064 120.344 157.553C119.523 158.979 119.225 160.495 119.473 161.996C119.72 163.497 120.506 164.949 121.776 166.252C122.432 166.914 123.216 167.538 123.679 168.255C124.507 169.535 124.238 170.991 125.001 172.285C126.01 173.996 128.781 175.41 128.516 177.218C129.774 178.78 132.552 179.548 135.346 180.013L140.352 180.846C141.311 181.006 142.313 181.166 143.289 181.051C144.265 180.935 145.197 180.451 145.172 179.856C142.716 179.525 140.182 179.172 138.158 178.278C136.134 177.383 134.748 175.79 135.516 174.357C135.872 173.692 136.629 172.925 135.909 172.375C135.497 172.061 134.743 171.979 134.278 171.692C133.552 171.245 133.801 170.493 134.323 169.953C134.845 169.414 135.598 168.931 135.809 168.321C135.915 167.98 135.844 167.627 135.605 167.31C135.367 166.993 134.972 166.728 134.474 166.549C135.402 166.34 136.247 166.016 136.952 165.598C137.604 165.153 137.905 164.467 137.392 163.961C138.915 164.077 140.712 164.133 141.711 163.437C142.509 162.881 142.455 162.05 142.139 161.341C141.824 160.633 141.291 159.946 141.274 159.213C144.786 159.312 148.306 159.241 151.798 158.999C151.293 157.982 150.146 157.123 148.599 156.603C150.18 156.443 151.622 155.311 152.121 154.399C152.621 153.488 152.494 152.495 152.185 151.553C152.066 151.311 152.05 151.055 152.137 150.808C152.315 150.468 152.873 150.261 153.389 150.084L161.24 147.388C161.709 147.247 162.134 147.06 162.496 146.833C163.319 146.256 163.197 145.383 162.775 144.668C162.354 143.952 161.68 143.279 161.517 142.526C161.032 140.276 165.061 138.661 166.421 136.542C166.955 135.71 167.064 134.807 167.167 133.918C167.278 132.964 167.286 131.856 166.061 131.241C164.886 130.651 163.051 130.783 161.822 130.234C160.695 129.732 160.306 128.755 159.076 128.349C157.958 127.981 156.556 128.215 155.313 128.042C153.124 127.736 151.746 126.228 149.51 126.088C148.249 126.009 146.821 126.378 145.787 125.939C144.876 125.552 144.84 124.774 144.666 124.113C144.363 123.087 143.54 122.142 142.31 121.404C141.08 120.666 139.501 120.171 137.786 119.986C136.486 119.861 135.07 119.909 133.964 119.481C132.843 119.049 132.33 118.238 131.449 117.639C130.031 116.673 127.797 116.33 125.705 116.036L117.193 114.839C115.682 114.627 113.734 114.514 112.923 115.306C112.683 115.607 112.513 115.926 112.418 116.255C112.114 116.85 111.503 117.372 110.672 117.747C109.84 118.121 108.832 118.328 107.792 118.337C107.079 117.61 105.923 117.075 104.566 116.845C103.703 116.701 102.779 116.685 101.956 116.473C101.508 116.343 101.109 116.158 100.783 115.932C100.458 115.706 100.214 115.442 100.065 115.158C99.9159 114.873 99.8657 114.573 99.9173 114.276C99.9689 113.98 100.121 113.692 100.365 113.432C100.856 112.91 101.045 112.305 100.904 111.712C100.763 111.118 100.3 110.569 99.5851 110.149C98.1375 109.372 96.0436 109.184 94.1027 109.262C93.5943 108.599 94.4443 107.851 95.3602 107.369C96.2762 106.887 97.3884 106.413 97.5879 105.693C97.9016 104.561 95.4857 103.701 93.6513 104.038C91.8169 104.376 90.6461 105.441 89.8722 106.492C89.4281 107.094 89.0506 107.729 88.3501 108.237C87.6497 108.745 86.5217 109.109 85.4548 108.946C83.9443 108.715 83.361 107.642 83.0267 106.731C82.5781 105.509 82.127 104.271 82.221 103.021C82.315 101.772 83.0194 100.489 84.5602 99.643C87.0711 98.2646 90.9229 98.3997 94.3115 98.6196C93.511 98.0802 93.7088 97.1712 94.5654 96.6635C95.0176 96.4233 95.5609 96.2526 96.1484 96.1663C96.7358 96.08 97.3495 96.0807 97.9364 96.1683C98.9575 96.2954 99.8774 96.6243 100.548 97.102C101.511 97.804 101.785 98.7519 102.513 99.5488C103.24 100.346 104.877 101.025 106.217 100.598C107.374 100.229 107.557 99.2691 107.269 98.504C106.981 97.7389 106.37 96.9949 106.474 96.2131C106.673 94.7214 109.259 93.8235 111.541 93.2092C113.823 92.5948 116.436 91.7686 116.797 90.2878C116.81 89.9979 116.901 89.7112 117.068 89.4389C117.321 89.1984 117.673 89.0006 118.09 88.8643C124.75 86.2325 131.52 83.5685 139.132 82.1304C139.528 82.0556 139.575 82.1387 139.978 82.0801C140.543 81.8849 140.169 81.3449 139.627 81.1273C139.086 80.9098 138.362 80.743 138.225 80.3616C138.124 80.0813 138.4 79.806 138.472 79.5224C138.648 78.8257 137.254 78.1824 136.172 78.4609C135.56 77.9767 136.77 77.4141 137.748 77.253C140.686 76.7696 143.701 76.475 146.744 76.3743C147.095 76.3409 147.454 76.3775 147.767 76.4784C148.278 76.6901 148.213 77.1755 147.851 77.4776C147.489 77.7797 146.925 77.9694 146.474 78.225C145.981 78.5122 145.629 78.8749 145.458 79.2734C145.286 79.672 145.3 80.0911 145.499 80.4851C147.088 80.9681 148.814 81.4654 150.573 81.2952C152.332 81.1251 153.893 79.9432 153.067 78.9994C152.297 78.1204 149.984 77.9222 149.586 76.9589C149.121 75.831 151.791 74.8279 151.189 73.7233C150.926 73.2394 150.119 72.9546 149.501 72.6053C148.77 72.177 148.273 71.6265 148.075 71.0262C147.876 70.4259 147.986 69.8037 148.39 69.2415C147.382 69.3476 146.347 69.3075 145.37 69.1247C144.393 68.942 143.504 68.6218 142.777 68.1911C141.434 67.3809 140.363 66.1027 138.457 66.139C136.707 66.1722 135.2 67.3928 133.564 67.0204C133.162 66.9288 132.737 66.7424 132.347 66.8516C132.22 66.9012 132.112 66.9676 132.034 67.0456C131.955 67.1237 131.907 67.2114 131.894 67.3021C131.478 68.4907 132.193 69.8449 131.11 70.872C129.931 71.9897 127.204 72.1446 125.775 73.1525C124.999 73.6996 124.699 74.4368 123.985 75.0136C123.272 75.5903 121.759 75.9571 120.903 75.4544C121.324 74.9374 121.439 74.3504 121.229 73.7892C121.019 73.2281 120.498 72.7261 119.749 72.3653C118.954 72.0553 118.098 71.8062 117.2 71.6238C116.196 71.3698 115.241 71.0515 114.352 70.6747C113.906 70.514 113.544 70.2824 113.306 70.0058C113.118 69.6594 113.143 69.2841 113.378 68.9479C113.812 68.204 114.577 67.5451 115.592 67.0423C116.606 66.5395 117.831 66.2119 119.134 66.095C120.273 66.0023 121.6 66.0349 122.354 65.5158C122.753 65.2411 122.962 64.8258 123.541 64.7143C123.912 64.6698 124.296 64.6981 124.637 64.795L128.89 65.6901C129.365 65.8182 129.887 65.8699 130.405 65.84C130.662 65.8193 130.897 65.7412 131.061 65.6215C131.226 65.5018 131.309 65.3492 131.293 65.1945C131.158 64.7722 130.071 64.5695 130.17 64.1435C130.225 64.0055 130.349 63.8807 130.526 63.7858C132.06 62.8089 133.937 62.0471 136.022 61.5548C138.107 61.0625 140.348 60.8519 142.585 60.9381C143.122 61.4653 142.273 62.0895 141.566 62.5396C140.86 62.9896 140.292 63.7937 141.147 64.1401C141.497 64.247 141.886 64.2994 142.279 64.2926C143.326 64.3774 144.344 64.5619 145.293 64.8393C146.763 65.2217 148.204 65.6401 149.617 66.0946C149.492 65.5374 149.373 64.9504 149.726 64.4294C150.08 63.9084 151.083 63.4998 151.96 63.7027C152.805 63.8982 153.238 64.5672 154.139 64.6285C155.339 64.7103 155.813 63.6495 155.312 62.992C154.81 62.3345 153.817 61.7839 153.734 61.0629C153.678 60.5765 153.988 59.9733 153.338 59.6787C153.107 59.5903 152.844 59.5353 152.571 59.518L136.348 57.7328C135.384 57.6267 133.992 57.708 133.949 58.2932C133.926 58.6199 134.414 58.943 134.197 59.2434C133.967 59.5639 133.209 59.5346 132.657 59.648C131.801 59.8239 131.371 60.432 131.453 60.9712C131.604 61.507 131.951 62.0162 132.469 62.4624C131.414 62.1985 129.816 62.15 128.761 61.8861Z" fill="#3F3D56"/>
<path d="M115.816 53.6508C114.793 53.4483 113.69 53.4389 112.658 53.6238C111.626 53.8086 110.713 54.1789 110.045 54.6842C109.778 54.8946 109.553 55.1845 109.777 55.4122C110.098 55.7388 110.915 55.6098 111.517 55.493C112.402 55.3039 113.366 55.2901 114.265 55.4538C114.831 55.5699 115.337 55.7751 115.905 55.8869C116.181 55.956 116.484 55.9789 116.781 55.9529C117.077 55.927 117.357 55.8533 117.588 55.7397C117.978 55.502 118.003 55.1324 118.003 54.7994C118.031 54.6879 118.016 54.5743 117.96 54.4668C117.904 54.3592 117.809 54.2605 117.681 54.1778C117.454 54.099 117.198 54.0538 116.936 54.046C116.348 53.9809 115.817 53.7952 115.433 53.521" fill="#3F3D56"/>
<path d="M121.666 52.677C121.437 52.6695 121.209 52.6974 121.003 52.758C120.797 52.8185 120.621 52.9097 120.491 53.0227C120.362 53.1358 120.283 53.2669 120.262 53.4035C120.242 53.54 120.28 53.6774 120.374 53.8025C121.077 53.9171 121.812 53.9458 122.534 53.8867C122.894 53.8533 123.23 53.7568 123.498 53.6095C123.767 53.4623 123.957 53.2707 124.044 53.0591C123.193 53.1516 122.316 53.0514 121.583 52.778" fill="#3F3D56"/>
<path d="M141.293 51.0503C139.38 51.2936 137.521 51.6712 135.755 52.1753C136.587 52.3666 137.295 52.7127 137.773 53.1627C138.252 53.6126 138.476 54.1426 138.413 54.6744C138.338 54.8786 138.347 55.0906 138.438 55.2924C138.641 55.5872 139.231 55.6979 139.749 55.7736C140.68 55.943 141.652 56.0172 142.624 55.993C143.111 55.9778 143.583 55.8903 143.999 55.7384C144.414 55.5866 144.76 55.3752 145.004 55.1233C145.145 54.8843 145.311 54.6506 145.499 54.4237C146.741 53.2925 150.431 54.6602 151.765 53.567C152.235 53.1819 152.192 52.6021 152.804 52.297C153.121 52.164 153.488 52.0802 153.872 52.0532C156.554 51.7346 159.263 51.5039 161.987 51.3621C163.278 51.2949 164.96 51.0178 164.971 50.2432C160.109 49.6723 155.069 50.0777 150.632 51.3966C149.034 51.8753 146.92 52.8823 145.381 52.2476C144.804 52.01 144.833 51.3701 144.039 51.1029C143.228 50.8298 142.154 50.9409 141.293 51.0503Z" fill="#3F3D56"/>
<path d="M157.191 52.8279L159.473 53.0901C159.053 53.079 158.634 53.1215 158.244 53.2149C157.853 53.3084 157.501 53.4505 157.21 53.6319C156.918 53.8132 156.695 54.0296 156.555 54.2666C156.415 54.5037 156.36 54.7558 156.396 55.0064C158.533 55.4332 160.863 55.0178 163.114 55.0746C165.365 55.1313 167.984 56.0929 167.6 57.4204C167.484 57.8218 167.096 58.2229 167.298 58.6121C167.439 58.8848 167.841 59.0783 168.068 59.3295C168.541 59.8529 168.163 60.515 167.566 60.9908C166.968 61.4666 166.165 61.8462 165.641 62.3519C164.337 63.6095 165.078 65.2353 165.855 66.6403C166.079 67.1712 166.494 67.6666 167.07 68.0921C168.221 68.8239 170.097 68.8876 171.777 68.9022C173 68.9129 174.4 68.8768 175.174 68.3103C176.183 67.5708 175.477 66.4169 176.142 65.549C176.745 64.7607 178.283 64.4225 179.676 64.1826C182.229 63.7432 184.83 63.3697 187.243 62.706C190.24 61.8818 193.04 60.5974 196.334 60.4913C197.258 60.4615 198.205 60.5268 199.095 60.3754C199.985 60.224 200.83 59.7639 200.763 59.212C200.705 58.7405 200.038 58.3942 199.517 58.0388C198.995 57.6833 198.586 57.1368 199.065 56.7607L207.698 55.7965C207.086 54.7993 206.609 53.4859 208.015 52.8368C208.523 52.6026 209.202 52.509 209.634 52.2259C210.37 51.7433 210 50.9121 209.15 50.5017C208.3 50.0913 207.151 49.996 206.062 49.942C202.277 49.754 198.47 49.8782 194.678 50.0025C187.264 50.2455 179.85 50.4885 172.437 50.7315C170.944 50.7804 169.221 50.7057 167.852 51.0101C166.694 51.2679 165.87 51.7411 164.544 51.9073C162.098 52.2142 159.405 52.0065 157.191 52.8279Z" fill="#3F3D56"/>
<path d="M198.073 63.6141C197.84 63.5921 197.602 63.6243 197.408 63.7042C197.28 63.7886 197.204 63.8966 197.192 64.0105C197.045 64.5128 197.22 65.0299 197.683 65.4582C197.919 65.6683 198.245 65.8368 198.627 65.9462C199.008 66.0556 199.432 66.1019 199.854 66.0803C200.881 66.002 201.638 65.4778 202.583 65.222C204.039 64.8281 210.222 64.2141 205.945 62.8323C204.471 62.3561 203.518 62.7765 202.357 63.0901C201.035 63.4944 199.554 63.6756 198.073 63.6141Z" fill="#3F3D56"/>
<path d="M235.535 52.0478C235.036 52.1698 234.618 52.3873 234.347 52.6663C234.222 52.8079 234.193 52.9729 234.266 53.127C234.339 53.281 234.508 53.4125 234.739 53.4941C234.925 53.5345 235.123 53.5533 235.321 53.5494L237.352 53.5856C238.215 53.6011 239.292 53.7109 239.524 54.2081C239.696 54.5772 239.311 55.0515 239.776 55.3153C239.975 55.4077 240.215 55.4637 240.467 55.4764C241.136 55.5792 241.834 55.5927 242.513 55.5159C243.99 55.2789 243.214 54.7397 243.679 54.2595C244.391 53.5248 244.268 53.9696 245.523 53.5485C246.449 53.2375 247.647 52.6734 246.873 51.8809C245.528 50.5026 237.52 51.4557 235.535 52.0478Z" fill="#3F3D56"/>
<path d="M275.617 51.3548L274.438 51.4489C271.779 51.6611 269.105 51.8752 266.544 52.3527C267.652 52.6148 268.815 52.7855 270.001 52.86C270.654 52.8792 271.302 52.9343 271.938 53.0247C273.069 53.226 274.209 53.746 275.302 53.4796C275.979 53.3145 276.2 52.8926 276.762 52.669C277.149 52.5146 278.619 52.2647 278.784 52.1089C280.112 50.8491 276.639 51.2733 275.617 51.3548Z" fill="#3F3D56"/>
<path d="M280.795 54.5598C279.22 55.0864 277.759 55.7264 276.444 56.4654C275.89 56.7768 275.324 57.1642 275.374 57.6179C275.441 58.2209 276.515 58.5707 277.446 58.8063L281.215 59.7607C281.673 59.3752 281.254 58.8432 280.781 58.4644C280.309 58.0857 279.747 57.6475 279.956 57.1917C280.194 56.6715 281.255 56.4943 282.144 56.4047C283.593 56.2587 287.502 56.2704 287.032 54.874C286.479 53.2286 282.25 54.0736 280.795 54.5598Z" fill="#3F3D56"/>
<path d="M280.037 147.674C279.678 148.295 279.644 149.027 280.265 149.569C280.962 150.178 282.356 150.405 283.562 150.25C284.763 150.059 285.833 149.648 286.623 149.074C287.344 148.593 287.938 148.048 288.383 147.459C289.004 146.541 289.442 145.583 289.688 144.604L290.858 140.929C291.12 140.108 291.11 137.59 288.586 138.411C287.896 138.635 286.299 140.404 285.577 140.906C284.274 141.81 284.102 142.688 283.416 143.783C282.557 145.156 280.831 146.299 280.037 147.674Z" fill="#3F3D56"/>
<path d="M413.361 166.478C412.535 166.285 411.733 166.057 410.962 165.795C410.189 167.066 409.778 168.406 409.746 169.758L415.398 167.846C416.248 167.558 417.212 167.158 417.194 166.574C417.201 166.502 417.176 166.43 417.121 166.366C417.066 166.301 416.983 166.247 416.881 166.208C416.756 166.178 416.619 166.169 416.485 166.181C415.647 166.222 414.883 166.469 414.092 166.641C413.302 166.812 412.377 166.903 411.652 166.648" fill="#3F3D56"/>
<path d="M443.176 167.614C442.556 167.715 441.95 167.845 441.364 168.003C440.067 168.397 439.184 169.147 438.017 169.667C436.9 170.164 435.556 170.437 434.236 170.703C433.847 170.908 434.026 171.321 434.447 171.501C434.9 171.656 435.42 171.725 435.94 171.702C437.311 171.72 438.756 171.728 439.957 171.332C440.634 171.069 441.267 170.769 441.848 170.434C443.253 169.734 444.939 169.271 446.609 168.825C447.216 168.688 447.778 168.487 448.268 168.232C449.317 167.614 449.39 166.66 447.878 166.45C446.656 166.28 444.34 167.389 443.176 167.614Z" fill="#3F3D56"/>
<path d="M456.35 162.468C456.418 162.043 456.323 161.614 456.073 161.214C455.823 160.814 455.425 160.453 454.907 160.158C454.892 161.009 454.849 161.915 454.048 162.619C453.478 163.12 452.584 163.459 451.96 163.936C451.335 164.414 451.058 165.171 451.79 165.59C452.259 165.803 452.829 165.92 453.418 165.925C454.876 166.028 456.565 166.085 457.588 165.455C458.146 165.111 458.417 164.601 459.098 164.349C459.352 164.285 459.579 164.188 459.761 164.065C460.043 163.798 459.596 163.445 459.093 163.349C458.59 163.253 458.036 163.298 457.53 163.206C457.025 163.115 456.561 162.775 456.82 162.5" fill="#3F3D56"/>
<path d="M432.936 131.274C432.171 131.385 431.378 131.413 430.597 131.357C429.298 131.214 428.287 130.629 427.239 130.149C424.747 129.014 421.718 128.381 418.586 128.341C415.737 128.309 412.862 128.77 410.064 128.448C410.247 129.056 411.117 129.512 412.045 129.783C412.974 130.054 413.998 130.191 414.931 130.456C416.425 130.886 417.609 131.623 418.268 132.532C418.568 132.952 418.757 133.408 419.212 133.774C420.142 134.522 421.905 134.687 423.461 134.625C425.49 134.546 427.608 134.197 429.496 134.649C430.939 134.994 431.972 135.75 433.178 136.338C434.383 136.925 436.081 137.361 437.465 136.937C436.028 136.659 434.776 136.113 433.894 135.379C433.012 134.646 432.545 133.763 432.561 132.859C433.919 132.934 437.829 132.905 437.618 131.525C437.44 130.356 434.102 131.148 432.936 131.274Z" fill="#3F3D56"/>
<path d="M415.177 140.785C415.418 139.994 416.736 139.296 416.325 138.531C416.041 138.002 415.015 137.741 414.086 137.728C413.157 137.715 412.245 137.88 411.316 137.896C410.711 137.877 410.105 137.882 409.501 137.911C407.657 138.092 406.521 139.248 404.783 139.659C403.726 139.909 402.539 139.861 401.44 140.034C398.945 140.426 397.367 141.836 395.623 142.972C392.805 144.801 389.134 146.081 385.086 146.647C383.667 146.843 382.142 146.969 381.015 147.52C379.522 148.249 379.154 149.5 378.822 150.636C377.904 153.772 376.502 156.851 374.633 159.832L380.556 160.285C381.682 160.371 382.849 160.455 383.935 160.255C384.723 160.077 385.47 159.84 386.157 159.548C388.795 158.568 391.748 157.931 394.824 157.677C396.375 157.549 398.002 157.526 399.457 157.871C400.913 158.216 402.162 158.998 402.284 159.931C402.913 159.814 403.584 159.801 404.225 159.894C404.866 159.988 405.452 160.183 405.921 160.46C406.849 161.025 407.456 161.75 407.658 162.533C407.814 163.017 407.97 163.598 408.722 163.801C409.335 163.967 410.039 163.789 410.71 163.757C412.988 163.648 414.878 165.236 417.116 164.962C419.517 164.669 420.106 162.519 422.448 162.088C423.794 161.841 425.68 162.142 426.324 161.393C426.892 160.734 425.759 159.973 425.876 159.234C426.02 158.325 427.814 157.939 429.197 157.551C433.964 156.214 436.226 152.377 433.916 149.547C432.547 147.871 429.854 146.551 429.357 144.709C428.974 143.292 429.908 141.64 428.397 140.525C427.629 139.957 426.327 139.644 425.87 138.967C425.582 138.541 425.698 138.057 425.543 137.607C425.388 137.157 424.731 136.686 423.988 136.803C421.83 137.141 421.141 141.128 419.986 142.096C418.229 143.569 414.624 142.599 415.177 140.785Z" fill="#3F3D56"/>
<path d="M375.288 132.78C374.55 132.657 373.745 132.535 373.038 132.712C372.332 132.888 371.919 133.509 372.486 133.817C376.923 133.713 381.387 133.611 385.786 133.971C390.854 134.386 395.871 135.414 400.961 135.112C398.053 134.599 395.097 134.189 392.109 133.883L387.125 133.314C385.788 133.147 384.437 133.022 383.078 132.94C380.235 132.8 378.083 133.249 375.288 132.78Z" fill="#3F3D56"/>
<path d="M379.729 123.54C379.361 123.522 378.905 123.506 378.714 123.695C378.532 123.876 378.741 124.115 378.643 124.318C378.509 124.595 377.902 124.666 377.424 124.628C376.945 124.591 376.428 124.5 376.004 124.638C375.789 124.726 375.628 124.853 375.544 125C375.46 125.148 375.458 125.307 375.539 125.455C375.712 125.749 375.993 126.016 376.36 126.237C376.986 126.71 377.7 127.138 378.488 127.514C380.013 128.187 382.079 128.511 383.039 129.488C383.175 129.678 383.383 129.845 383.647 129.978C384.108 130.152 384.71 130.019 385.206 129.884L386.946 129.408C387.26 129.341 387.539 129.227 387.76 129.078C388.157 128.755 387.913 128.296 387.579 127.949C387.246 127.601 386.818 127.242 386.89 126.843C387.018 126.133 388.545 125.861 389.173 125.254C389.806 124.641 389.394 123.852 389.467 123.133C389.552 122.292 390.436 121.199 389.014 120.571C387.807 120.037 386.652 120.53 385.785 121.119C383.956 122.362 383.091 123.708 379.729 123.54Z" fill="#3F3D56"/>
<path d="M390.292 110.979C390.886 111.66 392.124 112.065 392.772 112.728C393.474 113.446 393.394 114.374 394.156 115.069C394.938 115.783 396.511 116.163 396.949 116.975C397.427 117.861 396.342 118.939 397.207 119.714C397.369 119.84 397.572 119.945 397.805 120.023C398.038 120.1 398.295 120.147 398.56 120.162C398.826 120.176 399.093 120.158 399.345 120.107C399.598 120.057 399.83 119.975 400.028 119.869C400.392 119.631 400.588 119.318 400.572 118.995C400.556 118.673 400.33 118.367 399.942 118.143C399.43 117.863 398.694 117.742 398.266 117.416C398.043 117.228 397.895 117.012 397.832 116.784C397.599 116.128 397.636 115.447 397.941 114.801C398.055 114.637 398.084 114.456 398.024 114.282C397.832 113.948 397.074 113.924 396.542 113.768C395.333 113.416 395.362 112.396 395.574 111.602C395.433 112.13 392.284 111.231 391.954 110.932C391.299 110.337 391.655 109.189 391.525 108.532C390.111 108.939 389.566 110.148 390.292 110.979Z" fill="#3F3D56"/>
<path d="M358.563 121.445C357.981 121.055 357.106 120.648 356.327 120.883C355.732 121.062 355.568 121.554 355.801 121.927C356.085 122.289 356.522 122.601 357.07 122.831C358.694 123.632 360.443 124.355 361.859 125.286C364.395 126.952 365.738 129.2 368.496 130.735C369.05 131.091 369.784 131.329 370.585 131.412C371.389 131.456 372.291 131.149 372.383 130.67C372.459 130.275 371.999 129.921 371.549 129.629C370.478 128.932 369.305 128.291 368.294 127.563C367.827 127.283 367.533 126.916 367.462 126.524C367.457 126.132 368.055 125.721 368.69 125.818C367.917 125.7 367.344 124.931 366.211 124.786C365.263 124.665 365.034 125.016 363.907 124.727C361.756 124.175 360.069 122.453 358.563 121.445Z" fill="#3F3D56"/>
<path d="M409.094 83.5548C408.477 83.4452 407.871 83.3156 407.277 83.1667C405.681 82.8801 403.568 83.5819 403.781 84.5706C403.922 85.2276 404.945 85.6705 405.509 86.2403C406.347 87.0853 406.123 88.1571 405.683 89.1035C405.575 89.3965 405.37 89.6735 405.079 89.9181C404.673 90.1764 404.187 90.3853 403.648 90.5336C401.492 91.2567 399.59 92.2227 398.049 93.3783C397.881 93.485 397.764 93.6167 397.711 93.7595C397.634 94.0933 398.196 94.3365 398.513 94.6149C399.218 95.2334 398.708 96.0657 398.778 96.8129C398.767 96.9186 398.802 97.0241 398.878 97.1196C398.955 97.215 399.071 97.2971 399.216 97.3582C399.64 97.4872 400.144 97.268 400.374 97.0186C401.138 96.1909 400.563 94.8622 401.996 94.4631C402.267 94.3876 402.596 94.3558 402.777 94.2134C403.064 93.9874 402.787 93.6529 402.932 93.3829C403.15 92.9774 404.078 92.9592 404.79 92.9772C406.016 93.0078 407.241 92.9103 408.411 92.6889C408.87 92.6236 409.287 92.4793 409.61 92.2738C410.038 91.954 410 91.4994 409.915 91.0928C409.486 89.0661 408.412 87.1072 406.752 85.3218C408.011 85.418 409.381 85.5013 410.467 85.1089C411.076 84.8892 411.805 84.2321 411.503 83.7849C411.026 83.0777 410.164 83.673 409.094 83.5548Z" fill="#3F3D56"/>
<path d="M247.682 94.7013C247.833 95.1845 247.981 95.6933 247.716 96.1587C247.451 96.6241 246.618 97.0129 245.831 96.8703C245.221 96.7596 244.868 96.3925 244.434 96.1127C242.023 94.5563 236.584 95.4574 235.095 93.5318C234.487 92.746 234.9 91.8045 234.485 90.9749C234.224 90.4954 233.703 90.0815 233.006 89.7981C232.308 89.5147 231.473 89.3779 230.631 89.4092C229.863 89.4755 229.116 89.6089 228.413 89.8051C223.704 90.9328 218.76 91.6722 213.718 92.0029C212.759 92.0378 211.812 92.1409 210.894 92.3101C208.824 92.759 207.409 93.9068 206.402 95.078C205.395 96.2493 204.652 97.5173 203.302 98.5579C201.884 99.6515 199.896 100.417 198.042 101.246C197.328 101.521 196.733 101.894 196.306 102.333C195.904 102.827 195.927 103.401 195.958 103.949L196.337 110.613C196.386 111.47 196.447 112.357 197.089 113.124C197.89 114.082 199.472 114.709 200.57 115.555C201.69 116.425 202.274 117.499 202.222 118.596C202.199 119.037 202.125 119.559 202.7 119.836C203.049 119.972 203.458 120.042 203.875 120.038L218.948 120.776C221.599 120.906 224.538 121.119 226.269 122.327C227.086 122.897 227.742 123.717 228.993 123.778C229.53 123.804 230.052 123.672 230.589 123.647C231.944 123.583 233.134 124.198 233.885 124.875C235.021 125.907 235.537 127.139 235.348 128.37C235.225 129.142 234.824 129.893 234.738 130.667C234.409 133.613 238.585 136.172 238.666 139.124C238.714 140.861 237.335 142.483 235.992 144.023C238.161 145.988 236.384 148.604 237.248 150.901C238.067 153.08 241.106 154.786 241.863 156.974C242.21 157.975 242.23 159.207 243.706 159.723C244.354 159.912 245.073 159.998 245.792 159.973C250.133 160.003 254.423 159.419 258.314 158.268C260.14 157.726 262.032 156.917 262.351 155.714C262.608 154.743 261.785 153.657 262.623 152.811C263.61 151.815 266.14 151.894 267.593 151.127C269.95 149.884 268.112 147.513 269.067 145.723C269.926 144.113 272.881 143.258 274.346 141.814C274.922 141.192 275.336 140.522 275.572 139.826C276.243 138.162 276.661 136.465 276.82 134.755C276.859 133.717 276.987 132.68 277.204 131.65C278.783 125.782 288.484 121.854 291.633 116.217C291.934 115.679 292.075 114.962 291.274 114.657C290.799 114.522 290.261 114.488 289.749 114.562L282.801 115.085C281.938 115.151 281.023 115.211 280.23 114.997C279.438 114.783 278.87 114.183 279.29 113.728C280.47 112.449 278.043 110.834 276.964 109.524C274.06 105.997 270.601 102.643 266.635 99.5069C266.381 99.3455 266.222 99.1391 266.182 98.9189L268.154 98.9582C267.488 97.5298 266.389 95.9668 264.069 95.4443C262.761 95.1498 261.313 95.2516 259.918 95.2972C255.921 95.4278 251.637 95.067 247.682 94.7013Z" fill="#3F3D56"/>
<path d="M259.921 62.5135C260.967 63.1776 262.138 63.8816 263.652 63.9974C266.324 64.2018 268.245 62.5493 269.469 61.1139C269.514 61.4799 269.796 61.8208 270.255 62.0642C270.715 62.3076 271.314 62.4343 271.927 62.4174C272.587 62.351 273.217 62.2038 273.777 61.985C279.072 60.2548 285.002 59.338 291.036 59.3171C290.978 59.0437 291.092 58.7673 291.355 58.541C291.617 58.3147 292.011 58.1547 292.46 58.0917C293.686 57.9463 294.792 58.5806 295.383 59.2394C295.975 59.8982 296.344 60.6619 297.284 61.1551C298.225 61.6482 300.045 61.6267 300.416 60.9126C300.773 60.227 299.579 59.6423 298.586 59.2381C297.594 58.8339 296.548 58.0858 297.216 57.4892C302.286 56.8182 307.387 56.1446 312.575 56.0112C313.458 56.0296 314.338 55.9389 315.16 55.7449C315.951 55.5127 316.58 54.9857 316.367 54.4744C315.235 54.6335 314.05 54.5874 312.961 54.342C311.873 54.0966 310.932 53.6629 310.258 53.0964C317.456 52.7412 325.112 52.4384 331.492 54.4638C332.257 55.4465 328.355 56.2641 329.399 57.1504C329.732 57.4331 330.399 57.4663 330.978 57.4727C335.411 57.5219 339.869 57.5702 344.252 57.1699C345.854 57.0237 347.472 56.8172 349.08 56.9358C351.759 57.1334 354.05 58.2021 356.685 58.5505C357.757 58.6923 358.96 58.6971 359.864 58.3241C360.768 57.9511 361.157 57.1017 360.416 56.6167C362.897 55.1626 367.015 55.523 370.288 56.2192C373.561 56.9153 376.662 58.038 380.127 58.1932C382.611 58.3044 385.13 57.9048 387.584 58.1588C389.127 58.3184 390.563 58.7288 392.07 58.9809C394.922 59.4577 397.938 59.3571 400.899 59.38C408.453 59.4409 415.924 60.3287 422.943 61.9994C423.856 62.1771 424.693 62.4727 425.394 62.8652C426.047 63.2834 426.38 63.9333 425.941 64.4417L418.688 63.808C419.371 64.6124 421.139 64.7495 422.575 65.027C424.011 65.3046 425.499 66.2527 424.637 66.9928C423.081 66.6967 421.671 67.6267 420.886 68.4824C420.1 69.3381 419.142 70.3629 417.512 70.415C416.052 70.4617 414.286 69.7184 413.335 70.3821C414.65 71.3738 415.775 72.45 416.691 73.5907C417.631 74.7619 418.301 76.2375 417.03 77.2912C416.83 77.4793 416.527 77.6199 416.173 77.6889C415.135 77.846 414.461 77.0868 413.717 76.6267C412.779 76.0469 411.361 75.8827 410.091 75.6108C408.821 75.3389 407.483 74.804 407.384 73.9995C407.322 73.4991 407.764 73.0338 408.089 72.5712C408.636 71.7916 408.875 70.947 408.788 70.103C408.717 69.4241 408.399 68.7179 407.583 68.2435C406.768 67.7691 405.36 67.6186 404.485 68.0531C404.076 68.2558 403.749 68.5801 403.218 68.5922C402.281 68.6137 401.562 67.6366 400.808 67.9701C400.896 68.3255 400.773 68.6882 400.459 68.9947C398.209 70.1649 394.753 69.6699 391.852 70.0833C390.472 70.3193 389.152 70.6642 387.925 71.1088C387.466 71.2262 387.075 71.4222 386.802 71.6722C386.44 72.093 386.839 72.6319 387.478 72.9117C388.154 73.1599 388.915 73.3151 389.704 73.3662C393.241 73.7667 396.829 74.3867 399.621 75.745C402.413 77.1033 404.244 79.3486 403.36 81.4351L396.386 77.4502C396.651 79.1234 396.802 80.8011 396.837 82.4835C396.882 82.812 396.807 83.1424 396.616 83.4516C396.119 84.1083 394.772 84.3292 393.591 84.4742C393.262 84.5115 392.951 84.5899 392.677 84.7044C392.403 84.8188 392.172 84.9666 392 85.1381C391.828 85.3095 391.719 85.5008 391.68 85.6993C391.64 85.8978 391.672 86.0991 391.771 86.2899C392.191 87.1076 393.237 87.7451 394.195 88.3804C395.153 89.0156 396.095 89.7376 396.221 90.5896C396.346 91.4417 395.271 92.402 393.844 92.3428C392.762 92.2979 391.96 91.7188 391.498 91.1321C391.037 90.5453 390.762 89.8916 390.069 89.3931C387.971 87.884 383.258 88.5305 381.378 86.9218C380.899 87.2468 380.567 87.6396 380.413 88.063C380.259 88.4864 380.289 88.9263 380.499 89.3409C381.373 89.0135 382.571 89.3177 383.228 89.7934C383.885 90.269 384.195 90.8789 384.711 91.4131C385.407 92.134 386.515 92.7731 386.612 93.6036C386.586 93.9176 386.595 94.2323 386.639 94.5457C386.811 95.0488 387.523 95.4102 388.016 95.8307C389.163 96.8094 389.106 98.1539 388.367 99.2643C387.627 100.375 386.299 101.303 384.982 102.202C382.684 103.773 380.338 105.335 377.613 106.64C376.835 107.013 376.005 107.379 375.521 107.899C375.037 108.42 375.012 109.15 375.756 109.546C375.224 109.562 374.269 109.719 373.736 109.735C373.549 108.457 373.508 107.174 373.614 105.893C371.513 105.29 369.25 106.906 369.521 108.29C369.792 109.675 371.467 110.786 372.659 111.984C373.531 112.86 374.179 113.881 373.888 114.885C373.597 115.89 372.098 116.816 370.399 116.728C367.698 116.587 366.568 114.268 363.893 114.003C363.657 113.969 363.409 113.984 363.189 114.044C362.792 114.175 362.723 114.492 362.701 114.763C362.591 116.091 362.496 117.471 363.363 118.695C364.631 120.486 367.907 121.99 367.22 123.891C363.518 122.862 361.593 120.38 360.72 117.996C359.846 115.611 359.7 113.108 358.134 110.854C356.944 111.765 354.444 111.012 353.357 110.055C352.327 109.149 351.692 108.1 350.693 107.181C349.693 106.262 348.162 105.439 346.331 105.388C344.41 105.335 342.745 106.123 341.281 106.868C340.077 107.48 338.84 108.116 338.136 108.962C337.112 110.194 337.38 111.646 337.331 113.02C337.277 114.507 336.751 116.075 335.056 117.164C333.362 118.252 330.235 118.631 328.366 117.65C327.39 117.138 326.918 116.373 326.497 115.639C324.469 112.099 322.78 108.493 321.438 104.838C321.124 105.673 319.899 106.748 318.729 106.256C318.466 106.124 318.253 105.96 318.105 105.775C315.922 103.563 311.88 102.236 307.796 101.441C303.711 100.645 299.414 100.274 295.376 99.3997C293.112 98.9095 290.95 98.2656 288.933 97.4806C288.418 97.9325 288.118 98.4592 288.063 99.0049C288.009 99.5505 288.202 100.095 288.623 100.58C289.519 101.529 291.546 102.078 293.282 101.746C294.179 101.575 294.936 101.202 295.826 101.018C296.716 100.835 297.91 100.925 298.299 101.438C298.671 101.928 298.109 102.522 298.388 103.034C298.813 103.815 300.781 103.875 301.469 104.585C301.982 105.113 301.56 105.815 300.829 106.241C300.098 106.667 299.122 106.901 298.23 107.198C295.334 108.161 293.275 109.805 290.744 111.083C288.213 112.362 284.643 113.296 281.626 112.476C282.345 110.299 278.009 108.701 277.211 106.533C276.949 105.82 277.085 105.062 276.71 104.367C276.167 103.361 274.674 102.669 273.449 101.906C271.963 100.971 270.806 99.8677 270.045 98.6608C269.284 97.4539 268.935 96.1681 269.019 94.8792C269.085 93.9836 269.36 93.0734 269.019 92.2004C268.677 91.3274 267.469 90.4825 265.971 90.5221C262.55 90.6124 258.241 90.7646 256.446 89.0208C255.805 88.3984 255.526 87.4869 256.453 87.0101C257.106 86.6737 258.07 86.7054 258.928 86.7559L266.636 87.2093C268.439 87.3153 270.387 87.4028 271.934 86.8393C273.481 86.2757 274.152 84.7798 272.719 84.1168C271.673 83.6323 269.797 83.6586 269.493 82.8883C269.24 82.2468 270.427 81.519 269.786 80.9829C269.326 80.5984 268.292 80.7051 267.666 80.9933C267.039 81.2814 266.585 81.7029 265.884 81.921C264.654 82.3038 263.184 81.9395 261.861 81.692C260.538 81.4444 258.764 81.4234 258.122 82.1583C257.404 82.9802 258.759 84.0571 258.046 84.8807C257.104 85.9696 253.915 85.3497 252.592 86.2863C251.074 87.3611 253.625 88.9637 253.113 90.3367C252.46 90.5302 251.733 90.6191 251.005 90.5946C250.277 90.5702 249.572 90.4332 248.959 90.1971C248.356 89.9519 247.875 89.6135 247.568 89.2179C247.261 88.8223 247.139 88.3844 247.215 87.9506C247.342 87.333 247.881 86.7025 247.52 86.1188C247.228 85.6469 246.436 85.366 245.699 85.1226L238.209 82.6476C237.514 83.419 238.393 84.3753 239.492 84.9547C240.592 85.5341 241.969 85.9705 242.691 86.733C243.148 87.2613 243.251 87.874 242.978 88.4459C242.705 89.0179 242.077 89.5059 241.222 89.8104C241.115 89.8546 240.994 89.8844 240.865 89.8978C240.737 89.9111 240.606 89.9077 240.48 89.8878C240.361 89.8458 240.256 89.7899 240.174 89.7234C240.091 89.6569 240.031 89.5812 239.998 89.5006C238.677 87.4783 236.693 85.4844 233.52 84.4279C230.348 83.3715 225.79 83.5887 223.71 85.3683C223.216 85.791 222.884 86.2728 222.454 86.7197C220.167 89.094 215.264 90.2184 210.684 90.1449C210.236 90.1597 209.79 90.0971 209.4 89.9645C208.66 89.6588 208.693 89.0101 208.806 88.4764L209.287 86.2115C209.384 85.7567 209.524 85.254 210.126 84.9701C210.974 84.57 212.198 84.8225 213.279 84.8132C214.097 84.7903 214.885 84.6174 215.533 84.318C216.182 84.0185 216.661 83.6071 216.906 83.1393C217.124 82.6669 217.123 82.1679 216.902 81.696C216.681 81.224 216.249 80.7971 215.652 80.4612C215.157 80.183 214.492 79.8336 214.754 79.4586C214.858 79.3549 214.999 79.2661 215.167 79.1985C215.335 79.1308 215.526 79.086 215.726 79.0672C217.667 78.7302 219.718 78.6418 221.626 78.2441C223.535 77.8464 225.386 77.0327 225.838 75.8547C225.977 75.4936 226.04 75.0563 226.582 74.8773C226.854 74.8086 227.146 74.7729 227.442 74.7723C228.476 74.6843 229.419 74.3678 230.083 73.8852C230.747 73.4025 231.085 72.7887 231.03 72.1646C231.945 71.7824 233.226 72.0635 234.111 72.47C234.996 72.8765 235.777 73.4136 236.854 73.5889C238.861 73.9155 240.8 72.853 242.88 72.8481C243.754 72.846 244.66 73.0309 245.482 72.8536C246.316 72.6739 246.815 72.1774 247.455 71.8106C248.095 71.4438 249.218 71.2201 249.809 71.6152L249.306 69.3857C250.32 69.5389 251.376 69.5605 252.405 69.4493C253.434 69.3381 254.411 69.0965 255.271 68.7408L248.766 67.4264C248.539 67.3926 248.33 67.3258 248.157 67.2319C247.684 66.9274 248.154 66.4528 248.539 66.1066C249.459 65.2785 249.613 63.9143 248.1 63.502C247.067 63.2205 245.882 63.5584 244.891 63.8889L240.143 65.472C239.992 66.0117 241.095 66.3176 241.779 66.6811C242.193 66.901 242.486 67.1907 242.619 67.512C242.753 67.8333 242.721 68.1712 242.527 68.4814C242.334 68.7915 241.988 69.0594 241.535 69.2499C241.082 69.4403 240.543 69.5444 239.99 69.5485C240.302 69.7915 240.52 70.0736 240.625 70.3736C240.731 70.6737 240.723 70.9842 240.6 71.282L237.406 71.4194C237.047 71.4626 236.675 71.4191 236.37 71.2985C236.028 71.117 236.074 70.799 235.995 70.5299C235.804 69.8803 234.74 69.4251 233.655 69.3083C232.569 69.1916 231.459 69.3412 230.384 69.489C229.927 69.5872 229.426 69.5803 228.978 69.4696C228.72 69.3697 228.525 69.2222 228.421 69.0497C227.95 68.3664 228.39 67.5633 229.147 66.979C229.904 66.3946 230.94 65.9675 231.871 65.481C234.096 64.3134 235.731 62.797 236.591 61.103C238.35 60.6624 240.171 60.0637 241.929 59.6231C244.641 58.8022 247.681 58.4499 250.709 58.6058L256.665 58.6739C258.429 58.694 260.24 58.7198 261.87 59.1218C263.501 59.5238 264.933 60.3932 265.046 61.4457C265.08 61.5649 265.063 61.6872 264.996 61.8013C264.929 61.9154 264.815 62.0175 264.664 62.0979C264.434 62.1731 264.173 62.2082 263.911 62.1994C262.267 62.234 261.565 62.479 259.921 62.5135Z" fill="#3F3D56"/>
<path d="M212.448 73.6754C212.681 73.5437 212.848 73.3762 212.932 73.1913C213.016 73.0064 213.013 72.8112 212.924 72.6273C212.357 72.4966 211.741 72.4631 211.145 72.5304C210.549 72.5978 209.996 72.7633 209.548 73.0085C209.195 73.2219 208.891 73.4622 208.644 73.7233C207.861 74.4869 207.169 75.3989 207.622 76.2524C207.659 76.3454 207.727 76.4332 207.821 76.5104C207.916 76.5876 208.035 76.6528 208.172 76.7021C208.376 76.7509 208.595 76.7714 208.813 76.7621C209.675 76.7614 210.537 76.7297 211.392 76.6672C211.918 76.6288 212.528 76.54 212.732 76.2476C212.999 75.8633 212.352 75.4283 212.541 75.0277C212.665 74.8485 212.852 74.6877 213.091 74.5564C213.209 74.4903 213.3 74.4086 213.357 74.3178C213.413 74.227 213.433 74.1296 213.416 74.0333C213.34 73.8453 212.858 73.7387 212.685 73.902" fill="#3F3D56"/>
<path d="M216.919 70.209C216.153 70.1039 215.364 70.0742 214.582 70.1213C214.409 70.1182 214.238 70.1415 214.084 70.189C213.935 70.2546 213.827 70.3482 213.777 70.4547C213.612 70.7717 213.652 71.1142 213.891 71.4141C214.129 71.7139 214.547 71.9491 215.062 72.0728C215.343 72.1114 215.612 72.176 215.86 72.2643C216.521 72.571 216.099 73.1979 216.224 73.6926C216.365 74.2481 217.264 74.7144 217.099 75.2675C216.969 75.7032 216.191 76.0483 216.316 76.4845C216.448 76.9414 217.417 77.0787 218.19 77.1153C218.638 77.1622 219.099 77.1306 219.518 77.0243C219.937 76.8528 220.235 76.5944 220.355 76.299C220.671 75.7359 220.804 75.1417 220.747 74.5486C220.743 74.2788 220.63 74.0137 220.417 73.776C220.184 73.5877 219.926 73.4111 219.645 73.2478C218.165 72.2179 219.724 70.6817 216.919 70.209Z" fill="#3F3D56"/>
<path opacity="0.8" d="M411.628 150.89C411.628 150.89 298.221 111.963 249.398 119.339C249.398 119.339 145.927 125.997 133.936 140.646C133.936 140.646 101.044 79.183 89.0529 77.1343" stroke="#6C63FF" stroke-width="2" stroke-miterlimit="10"/>
<path opacity="0.8" d="M133.936 140.646C152.951 110.324 324.26 76.7241 324.26 76.7241C299.934 80.4119 249.398 119.338 249.398 119.338C249.398 119.338 142.501 72.8315 89.0529 77.1339C89.0529 77.1339 324.432 81.7436 411.628 150.889" stroke="#6C63FF" stroke-width="2" stroke-miterlimit="10"/>
<path d="M89.0529 80.105C91.7967 80.105 94.0209 78.775 94.0209 77.1343C94.0209 75.4936 91.7967 74.1636 89.0529 74.1636C86.3092 74.1636 84.085 75.4936 84.085 77.1343C84.085 78.775 86.3092 80.105 89.0529 80.105Z" fill="#00B0FF"/>
<path d="M133.936 143.616C136.68 143.616 138.904 142.286 138.904 140.646C138.904 139.005 136.68 137.675 133.936 137.675C131.192 137.675 128.968 139.005 128.968 140.646C128.968 142.286 131.192 143.616 133.936 143.616Z" fill="#00B0FF"/>
<path d="M324.26 79.6948C327.004 79.6948 329.228 78.3648 329.228 76.7241C329.228 75.0835 327.004 73.7534 324.26 73.7534C321.516 73.7534 319.292 75.0835 319.292 76.7241C319.292 78.3648 321.516 79.6948 324.26 79.6948Z" fill="#00B0FF"/>
<path d="M411.628 153.86C414.372 153.86 416.596 152.53 416.596 150.89C416.596 149.249 414.372 147.919 411.628 147.919C408.884 147.919 406.66 149.249 406.66 150.89C406.66 152.53 408.884 153.86 411.628 153.86Z" fill="#00B0FF"/>
<path d="M249.398 122.309C252.142 122.309 254.366 120.979 254.366 119.338C254.366 117.698 252.142 116.368 249.398 116.368C246.654 116.368 244.43 117.698 244.43 119.338C244.43 120.979 246.654 122.309 249.398 122.309Z" fill="#00B0FF"/>
</g>
<defs>
<clipPath id="clip0_187_372">
<rect width="488.412" height="216.939" fill="white" transform="translate(0.19043 0.0253906)"/>
</clipPath>
</defs>
</svg>
