<svg width="243" height="45" viewBox="0 0 243 45" fill="none" xmlns="http://www.w3.org/2000/svg">
<path d="M101.224 39.352C99.688 39.352 98.2693 39.0533 96.968 38.456C95.6667 37.8373 94.5147 37.0267 93.512 36.024C92.5093 35 91.72 33.8053 91.144 32.44C90.568 31.0533 90.28 29.5173 90.28 27.832C90.28 26.1893 90.568 24.6747 91.144 23.288C91.7413 21.88 92.5307 20.6533 93.512 19.608C94.4933 18.584 95.6347 17.7733 96.936 17.176C98.2587 16.5787 99.688 16.28 101.224 16.28C102.845 16.28 104.392 16.6533 105.864 17.4C107.336 18.1253 108.701 19.256 109.96 20.792L106.856 23.352C105.981 22.264 105.075 21.4853 104.136 21.016C103.197 20.5253 102.227 20.28 101.224 20.28C100.264 20.28 99.368 20.472 98.536 20.856C97.7253 21.24 96.9893 21.7733 96.328 22.456C95.688 23.1173 95.1867 23.9067 94.824 24.824C94.4613 25.72 94.28 26.7227 94.28 27.832C94.28 28.9413 94.4613 29.944 94.824 30.84C95.1867 31.7147 95.688 32.4933 96.328 33.176C96.968 33.8587 97.704 34.392 98.536 34.776C99.368 35.16 100.264 35.352 101.224 35.352C102.227 35.352 103.197 35.1173 104.136 34.648C105.075 34.1573 105.981 33.368 106.856 32.28L109.96 34.84C108.701 36.376 107.336 37.5173 105.864 38.264C104.392 38.9893 102.845 39.352 101.224 39.352ZM126.738 39H122.898V29.784C122.898 28.696 122.61 27.9067 122.034 27.416C121.479 26.9253 120.711 26.68 119.73 26.68C118.834 26.68 118.109 26.968 117.554 27.544C117.021 28.0987 116.754 28.6853 116.754 29.304V39H112.914V16.6H116.754V23.864C117.266 23.4373 117.874 23.16 118.578 23.032C119.303 22.8827 120.05 22.84 120.818 22.904C122.759 23.1387 124.231 23.8853 125.234 25.144C126.237 26.3813 126.738 27.928 126.738 29.784V39ZM143.711 39H139.871V37.752C139.615 38.264 139.125 38.648 138.399 38.904C137.695 39.16 136.885 39.288 135.967 39.288C135.071 39.288 134.197 39.1707 133.343 38.936C132.511 38.68 131.829 38.3173 131.295 37.848C129.973 36.6533 129.311 34.8827 129.311 32.536V23H133.151V32.536C133.151 33.624 133.471 34.4133 134.111 34.904C134.773 35.3733 135.594 35.608 136.575 35.608C137.066 35.608 137.567 35.5013 138.079 35.288C138.591 35.0747 139.018 34.744 139.359 34.296C139.701 33.848 139.871 33.2613 139.871 32.536V23H143.711V39ZM162.145 23L156.417 39H152.353L146.593 23H150.593L154.369 34.712L158.145 23H162.145ZM168.052 39.16C166.43 39.0747 165.204 38.616 164.372 37.784C163.54 36.9307 163.124 35.7573 163.124 34.264C163.124 33.176 163.401 32.248 163.956 31.48C164.51 30.6907 165.246 30.072 166.164 29.624C167.081 29.176 168.094 28.8987 169.204 28.792C170.334 28.6853 171.476 28.76 172.628 29.016V28.024C172.628 27.3413 172.35 26.8507 171.796 26.552C171.241 26.2533 170.558 26.1147 169.748 26.136C168.958 26.1573 168.158 26.3173 167.348 26.616C166.558 26.8933 165.918 27.2987 165.428 27.832L163.284 25.496C164.094 24.7067 165.054 24.088 166.164 23.64C167.273 23.192 168.414 22.936 169.588 22.872C170.782 22.808 171.902 22.9467 172.948 23.288C174.014 23.6293 174.889 24.184 175.572 24.952C176.105 25.5493 176.404 26.3387 176.468 27.32C176.532 28.3013 176.564 29.3787 176.564 30.552V39H172.66V37.528C171.998 38.1467 171.262 38.584 170.452 38.84C169.641 39.0747 168.841 39.1813 168.052 39.16ZM172.532 34.488V31.736C170.313 31.5653 168.766 31.704 167.892 32.152C167.038 32.6 166.612 33.2933 166.612 34.232C166.612 34.8293 166.814 35.2667 167.22 35.544C167.646 35.8 168.169 35.928 168.788 35.928C169.428 35.9067 170.078 35.7787 170.74 35.544C171.422 35.288 172.02 34.936 172.532 34.488ZM190.284 39H179.756V16.6H183.596V35.224H190.284V39ZM197.771 39.16C196.149 39.0747 194.923 38.616 194.091 37.784C193.259 36.9307 192.843 35.7573 192.843 34.264C192.843 33.176 193.12 32.248 193.674 31.48C194.229 30.6907 194.965 30.072 195.883 29.624C196.8 29.176 197.813 28.8987 198.923 28.792C200.053 28.6853 201.195 28.76 202.347 29.016V28.024C202.347 27.3413 202.069 26.8507 201.515 26.552C200.96 26.2533 200.277 26.1147 199.467 26.136C198.677 26.1573 197.877 26.3173 197.067 26.616C196.277 26.8933 195.637 27.2987 195.147 27.832L193.003 25.496C193.813 24.7067 194.773 24.088 195.883 23.64C196.992 23.192 198.133 22.936 199.307 22.872C200.501 22.808 201.621 22.9467 202.667 23.288C203.733 23.6293 204.608 24.184 205.291 24.952C205.824 25.5493 206.123 26.3387 206.187 27.32C206.251 28.3013 206.283 29.3787 206.283 30.552V39H202.379V37.528C201.717 38.1467 200.981 38.584 200.171 38.84C199.36 39.0747 198.56 39.1813 197.771 39.16ZM202.251 34.488V31.736C200.032 31.5653 198.485 31.704 197.611 32.152C196.757 32.6 196.331 33.2933 196.331 34.232C196.331 34.8293 196.533 35.2667 196.939 35.544C197.365 35.8 197.888 35.928 198.507 35.928C199.147 35.9067 199.797 35.7787 200.459 35.544C201.141 35.288 201.739 34.936 202.251 34.488ZM223.587 30.712C223.587 31.8427 223.438 32.9413 223.139 34.008C222.862 35.0747 222.424 36.024 221.827 36.856C221.23 37.6667 220.462 38.2853 219.523 38.712C218.904 38.9893 218.179 39.1173 217.347 39.096C216.515 39.096 215.726 38.9787 214.979 38.744C214.254 38.488 213.699 38.1467 213.315 37.72V39H209.475V16.6H213.315V23.544C213.72 23.2453 214.254 23.0427 214.915 22.936C215.576 22.8293 216.142 22.776 216.611 22.776C218.126 22.776 219.395 23.1387 220.419 23.864C221.464 24.568 222.254 25.5173 222.787 26.712C223.32 27.9067 223.587 29.24 223.587 30.712ZM219.715 30.712C219.715 29.5387 219.406 28.6213 218.787 27.96C218.19 27.2773 217.4 26.8613 216.419 26.712C215.459 26.5627 214.424 26.712 213.315 27.16V34.52C214.446 35.2027 215.491 35.4907 216.451 35.384C217.432 35.256 218.222 34.7973 218.819 34.008C219.416 33.1973 219.715 32.0987 219.715 30.712Z" fill="#5F6C72"/>
<g clip-path="url(#clip0_120_447)">
<path d="M60.8589 37.7871C48.671 38.0068 36.4648 38.4355 24.2749 38.4246C19.432 38.4202 14.1274 38.0896 10.1755 35.0547C7.33304 32.8718 5.572 29.2066 7.53132 25.9271C9.31161 22.9474 13.8298 23.1091 14.6466 26.2233C15.58 29.7817 21.2378 29.0154 21.235 25.361C21.23 18.9544 21.265 9.05954 29.1526 6.83944C32.4021 5.9248 36.0065 6.57812 38.4122 8.95506C40.7635 11.2782 41.6755 14.7126 40.815 17.8353C39.913 21.1088 43.9651 23.0552 46.421 20.991C52.4162 15.9518 62.8468 14.4199 67.2154 22.2036C71.6907 30.1773 61.5543 34.9741 55.4369 37.5334C53.7741 38.2291 53.3978 40.5891 54.2337 41.971C55.2384 43.6321 57.1534 43.833 58.8227 43.1346C66.4145 39.9584 75.5319 34.7813 74.9757 25.5181C74.4269 16.3777 65.6699 9.67518 56.4301 10.2493C50.886 10.5937 45.8365 12.9084 41.6776 16.4041L47.2835 19.5598C48.689 14.4592 47.3099 9.02931 43.7781 5.03155C40.0736 0.838267 34.2608 -0.671835 28.766 0.269465C23.2992 1.20597 19.0051 5.04619 16.8712 9.88919C14.7288 14.7516 14.5228 20.1459 14.5268 25.361L21.1152 24.4988C19.6777 19.0181 13.0389 15.9192 7.61222 17.8186C1.76799 19.8642 -1.10255 26.4555 0.390336 32.1005C1.9387 37.9552 7.46477 42.0282 13.2344 43.6728C20.1653 45.6483 27.8008 44.8698 34.922 44.7415L60.8589 44.2739C65.1703 44.1962 65.1844 37.7091 60.8589 37.7871Z" fill="#00B0FF"/>
</g>
<defs>
<clipPath id="clip0_120_447">
<rect width="75" height="45" fill="white"/>
</clipPath>
</defs>
</svg>
