<svg width="186" height="36" viewBox="0 0 186 36" fill="none" xmlns="http://www.w3.org/2000/svg">
<path d="M117.841 29.5811C111.54 29.3342 105.8 26.9355 103.203 23.2193C103.082 23.0453 102.967 22.869 102.86 22.6901C101.912 21.1067 101.616 19.2865 102.652 17.7261C103.689 16.1656 106.281 14.9806 108.879 15.2269C111.477 15.4732 113.509 17.4298 112.433 18.9784C112.195 15.8486 111.996 12.5599 114.671 9.83578C116.143 8.41202 118.064 7.47554 120.147 7.16604C125.537 6.27164 129.116 9.14675 129.832 12.0477C130.361 14.1905 129.631 16.3682 128.903 18.4886C131.145 15.9878 136.476 14.8751 140.561 16.0562C144.646 17.2373 146.91 20.5451 145.515 23.2945C143.871 26.5287 138.393 28.2002 133.304 29.084C129.1 29.8139 122.799 29.7752 117.841 29.5811Z" fill="#F2F2F2"/>
<path d="M12.224 30.352C10.688 30.352 9.26933 30.0533 7.968 29.456C6.66667 28.8373 5.51467 28.0267 4.512 27.024C3.50933 26 2.72 24.8053 2.144 23.44C1.568 22.0533 1.28 20.5173 1.28 18.832C1.28 17.1893 1.568 15.6747 2.144 14.288C2.74133 12.88 3.53067 11.6533 4.512 10.608C5.49333 9.584 6.63467 8.77333 7.936 8.176C9.25867 7.57867 10.688 7.28 12.224 7.28C13.8453 7.28 15.392 7.65333 16.864 8.4C18.336 9.12533 19.7013 10.256 20.96 11.792L17.856 14.352C16.9813 13.264 16.0747 12.4853 15.136 12.016C14.1973 11.5253 13.2267 11.28 12.224 11.28C11.264 11.28 10.368 11.472 9.536 11.856C8.72533 12.24 7.98933 12.7733 7.328 13.456C6.688 14.1173 6.18667 14.9067 5.824 15.824C5.46133 16.72 5.28 17.7227 5.28 18.832C5.28 19.9413 5.46133 20.944 5.824 21.84C6.18667 22.7147 6.688 23.4933 7.328 24.176C7.968 24.8587 8.704 25.392 9.536 25.776C10.368 26.16 11.264 26.352 12.224 26.352C13.2267 26.352 14.1973 26.1173 15.136 25.648C16.0747 25.1573 16.9813 24.368 17.856 23.28L20.96 25.84C19.7013 27.376 18.336 28.5173 16.864 29.264C15.392 29.9893 13.8453 30.352 12.224 30.352ZM37.738 30H33.898V20.784C33.898 19.696 33.61 18.9067 33.034 18.416C32.4793 17.9253 31.7113 17.68 30.73 17.68C29.834 17.68 29.1087 17.968 28.554 18.544C28.0207 19.0987 27.754 19.6853 27.754 20.304V30H23.914V7.6H27.754V14.864C28.266 14.4373 28.874 14.16 29.578 14.032C30.3033 13.8827 31.05 13.84 31.818 13.904C33.7593 14.1387 35.2313 14.8853 36.234 16.144C37.2367 17.3813 37.738 18.928 37.738 20.784V30ZM54.7113 30H50.8713V28.752C50.6153 29.264 50.1246 29.648 49.3993 29.904C48.6953 30.16 47.8846 30.288 46.9673 30.288C46.0713 30.288 45.1966 30.1707 44.3433 29.936C43.5113 29.68 42.8286 29.3173 42.2953 28.848C40.9726 27.6533 40.3113 25.8827 40.3113 23.536V14H44.1513V23.536C44.1513 24.624 44.4713 25.4133 45.1113 25.904C45.7726 26.3733 46.5939 26.608 47.5753 26.608C48.0659 26.608 48.5673 26.5013 49.0793 26.288C49.5913 26.0747 50.0179 25.744 50.3593 25.296C50.7006 24.848 50.8713 24.2613 50.8713 23.536V14H54.7113V30ZM73.1445 14L67.4165 30H63.3525L57.5925 14H61.5925L65.3685 25.712L69.1445 14H73.1445ZM79.0518 30.16C77.4304 30.0747 76.2038 29.616 75.3718 28.784C74.5398 27.9307 74.1238 26.7573 74.1238 25.264C74.1238 24.176 74.4011 23.248 74.9557 22.48C75.5104 21.6907 76.2464 21.072 77.1638 20.624C78.0811 20.176 79.0944 19.8987 80.2038 19.792C81.3344 19.6853 82.4758 19.76 83.6278 20.016V19.024C83.6278 18.3413 83.3504 17.8507 82.7958 17.552C82.2411 17.2533 81.5584 17.1147 80.7478 17.136C79.9584 17.1573 79.1584 17.3173 78.3478 17.616C77.5584 17.8933 76.9184 18.2987 76.4278 18.832L74.2838 16.496C75.0944 15.7067 76.0544 15.088 77.1638 14.64C78.2731 14.192 79.4144 13.936 80.5878 13.872C81.7824 13.808 82.9024 13.9467 83.9478 14.288C85.0144 14.6293 85.8891 15.184 86.5718 15.952C87.1051 16.5493 87.4038 17.3387 87.4678 18.32C87.5318 19.3013 87.5638 20.3787 87.5638 21.552V30H83.6598V28.528C82.9984 29.1467 82.2624 29.584 81.4518 29.84C80.6411 30.0747 79.8411 30.1813 79.0518 30.16ZM83.5318 25.488V22.736C81.3131 22.5653 79.7664 22.704 78.8918 23.152C78.0384 23.6 77.6118 24.2933 77.6118 25.232C77.6118 25.8293 77.8144 26.2667 78.2198 26.544C78.6464 26.8 79.1691 26.928 79.7878 26.928C80.4278 26.9067 81.0784 26.7787 81.7398 26.544C82.4224 26.288 83.0198 25.936 83.5318 25.488ZM94.5963 30H90.7563V7.6H94.5963V30ZM97.4675 29.968L104.38 7.6H109.212L116.156 29.968H112.06L110.46 24.56H103.164L101.564 29.968H97.4675ZM106.812 12.4L104.188 21.232H109.436L106.812 12.4Z" fill="#5F6C72"/>
</svg>
