<svg width="201" height="37" viewBox="0 0 201 37" fill="none" xmlns="http://www.w3.org/2000/svg">
<path d="M172.904 28.7595C166.601 28.5195 160.858 26.1874 158.26 22.5744C158.139 22.4053 158.024 22.2338 157.917 22.06C156.968 20.5205 156.672 18.7509 157.709 17.2338C158.746 15.7167 161.339 14.5646 163.938 14.804C166.537 15.0435 168.57 16.9457 167.494 18.4514C167.256 15.4085 167.056 12.2112 169.732 9.56267C171.205 8.17846 173.127 7.26799 175.21 6.96709C180.602 6.09754 184.182 8.89278 184.899 11.7131C185.428 13.7965 184.697 15.9136 183.97 17.9751C186.212 15.5438 191.545 14.462 195.632 15.6103C199.718 16.7586 201.983 19.9745 200.587 22.6475C198.943 25.7919 193.463 27.417 188.372 28.2762C184.167 28.9859 177.863 28.9483 172.904 28.7595Z" fill="#F2F2F2"/>
<path d="M12.224 30.352C10.688 30.352 9.26933 30.0533 7.968 29.456C6.66667 28.8373 5.51467 28.0267 4.512 27.024C3.50933 26 2.72 24.8053 2.144 23.44C1.568 22.0533 1.28 20.5173 1.28 18.832C1.28 17.1893 1.568 15.6747 2.144 14.288C2.74133 12.88 3.53067 11.6533 4.512 10.608C5.49333 9.584 6.63467 8.77333 7.936 8.176C9.25867 7.57867 10.688 7.28 12.224 7.28C13.8453 7.28 15.392 7.65333 16.864 8.4C18.336 9.12533 19.7013 10.256 20.96 11.792L17.856 14.352C16.9813 13.264 16.0747 12.4853 15.136 12.016C14.1973 11.5253 13.2267 11.28 12.224 11.28C11.264 11.28 10.368 11.472 9.536 11.856C8.72533 12.24 7.98933 12.7733 7.328 13.456C6.688 14.1173 6.18667 14.9067 5.824 15.824C5.46133 16.72 5.28 17.7227 5.28 18.832C5.28 19.9413 5.46133 20.944 5.824 21.84C6.18667 22.7147 6.688 23.4933 7.328 24.176C7.968 24.8587 8.704 25.392 9.536 25.776C10.368 26.16 11.264 26.352 12.224 26.352C13.2267 26.352 14.1973 26.1173 15.136 25.648C16.0747 25.1573 16.9813 24.368 17.856 23.28L20.96 25.84C19.7013 27.376 18.336 28.5173 16.864 29.264C15.392 29.9893 13.8453 30.352 12.224 30.352ZM37.738 30H33.898V20.784C33.898 19.696 33.61 18.9067 33.034 18.416C32.4793 17.9253 31.7113 17.68 30.73 17.68C29.834 17.68 29.1087 17.968 28.554 18.544C28.0207 19.0987 27.754 19.6853 27.754 20.304V30H23.914V7.6H27.754V14.864C28.266 14.4373 28.874 14.16 29.578 14.032C30.3033 13.8827 31.05 13.84 31.818 13.904C33.7593 14.1387 35.2313 14.8853 36.234 16.144C37.2367 17.3813 37.738 18.928 37.738 20.784V30ZM54.7113 30H50.8713V28.752C50.6153 29.264 50.1246 29.648 49.3993 29.904C48.6953 30.16 47.8846 30.288 46.9673 30.288C46.0713 30.288 45.1966 30.1707 44.3433 29.936C43.5113 29.68 42.8286 29.3173 42.2953 28.848C40.9726 27.6533 40.3113 25.8827 40.3113 23.536V14H44.1513V23.536C44.1513 24.624 44.4713 25.4133 45.1113 25.904C45.7726 26.3733 46.5939 26.608 47.5753 26.608C48.0659 26.608 48.5673 26.5013 49.0793 26.288C49.5913 26.0747 50.0179 25.744 50.3593 25.296C50.7006 24.848 50.8713 24.2613 50.8713 23.536V14H54.7113V30ZM73.1445 14L67.4165 30H63.3525L57.5925 14H61.5925L65.3685 25.712L69.1445 14H73.1445ZM79.0518 30.16C77.4304 30.0747 76.2038 29.616 75.3718 28.784C74.5398 27.9307 74.1238 26.7573 74.1238 25.264C74.1238 24.176 74.4011 23.248 74.9557 22.48C75.5104 21.6907 76.2464 21.072 77.1638 20.624C78.0811 20.176 79.0944 19.8987 80.2038 19.792C81.3344 19.6853 82.4758 19.76 83.6278 20.016V19.024C83.6278 18.3413 83.3504 17.8507 82.7958 17.552C82.2411 17.2533 81.5584 17.1147 80.7478 17.136C79.9584 17.1573 79.1584 17.3173 78.3478 17.616C77.5584 17.8933 76.9184 18.2987 76.4278 18.832L74.2838 16.496C75.0944 15.7067 76.0544 15.088 77.1638 14.64C78.2731 14.192 79.4144 13.936 80.5878 13.872C81.7824 13.808 82.9024 13.9467 83.9478 14.288C85.0144 14.6293 85.8891 15.184 86.5718 15.952C87.1051 16.5493 87.4038 17.3387 87.4678 18.32C87.5318 19.3013 87.5638 20.3787 87.5638 21.552V30H83.6598V28.528C82.9984 29.1467 82.2624 29.584 81.4518 29.84C80.6411 30.0747 79.8411 30.1813 79.0518 30.16ZM83.5318 25.488V22.736C81.3131 22.5653 79.7664 22.704 78.8918 23.152C78.0384 23.6 77.6118 24.2933 77.6118 25.232C77.6118 25.8293 77.8144 26.2667 78.2198 26.544C78.6464 26.8 79.1691 26.928 79.7878 26.928C80.4278 26.9067 81.0784 26.7787 81.7398 26.544C82.4224 26.288 83.0198 25.936 83.5318 25.488ZM106.244 30H101.668L96.5483 21.264H94.5963V30H90.7563L90.7883 7.6H99.2043C100.335 7.6 101.338 7.92 102.212 8.56C103.087 9.2 103.77 10.0427 104.26 11.088C104.772 12.112 105.028 13.2213 105.028 14.416C105.028 15.312 104.847 16.1973 104.484 17.072C104.143 17.9253 103.663 18.6933 103.044 19.376C102.426 20.0587 101.711 20.5707 100.9 20.912L106.244 30ZM101.124 14.416C101.124 13.9893 101.028 13.552 100.836 13.104C100.644 12.6347 100.388 12.24 100.068 11.92C99.7483 11.6 99.3749 11.44 98.9483 11.44H94.5963V17.2H98.9483C99.3749 17.2 99.7483 17.0613 100.068 16.784C100.388 16.5067 100.644 16.1547 100.836 15.728C101.028 15.28 101.124 14.8427 101.124 14.416ZM122.546 23.472H111.346C111.431 24.432 111.794 25.168 112.434 25.68C113.074 26.192 113.863 26.4907 114.802 26.576C115.74 26.64 116.7 26.512 117.682 26.192C118.684 25.8507 119.58 25.3387 120.37 24.656L122.482 27.568C121.308 28.5493 120.114 29.2533 118.898 29.68C117.703 30.0853 116.519 30.288 115.345 30.288C112.636 30.288 110.599 29.5307 109.234 28.016C107.89 26.5013 107.218 24.3573 107.218 21.584C107.218 20.0053 107.527 18.6293 108.146 17.456C108.786 16.2827 109.682 15.376 110.834 14.736C112.007 14.096 113.383 13.7867 114.962 13.808C118.418 13.8507 120.722 15.2053 121.874 17.872C122.194 18.64 122.396 19.4827 122.482 20.4C122.588 21.3173 122.61 22.3413 122.546 23.472ZM115.314 17.392C114.012 17.392 113.02 17.744 112.338 18.448C111.676 19.152 111.346 19.9307 111.346 20.784H119.25C119.25 19.9093 118.908 19.1307 118.226 18.448C117.564 17.744 116.594 17.392 115.314 17.392ZM129.346 36.4H125.506V14H129.346V14.864C130.562 14.1387 131.81 13.8187 133.09 13.904C134.37 13.968 135.554 14.3627 136.642 15.088C137.73 15.8133 138.605 16.7947 139.266 18.032C139.928 19.2693 140.258 20.688 140.258 22.288C140.258 23.7387 139.928 25.0613 139.266 26.256C138.626 27.4507 137.752 28.4107 136.642 29.136C135.554 29.84 134.328 30.2027 132.962 30.224C132.642 30.224 132.248 30.2027 131.778 30.16C131.309 30.1173 130.85 30.0427 130.402 29.936C129.976 29.808 129.624 29.648 129.346 29.456V36.4ZM129.346 25.84C130.584 26.416 131.736 26.64 132.802 26.512C133.869 26.384 134.733 25.9573 135.394 25.232C136.056 24.4853 136.386 23.504 136.386 22.288C136.386 20.88 136.034 19.7707 135.33 18.96C134.648 18.1493 133.773 17.6907 132.706 17.584C131.64 17.4773 130.52 17.776 129.346 18.48V25.84ZM150.243 30.416C148.707 30.416 147.352 30.0853 146.179 29.424C145.027 28.7413 144.12 27.8027 143.459 26.608C142.819 25.392 142.499 23.984 142.499 22.384C142.499 19.568 143.203 17.4453 144.611 16.016C146.04 14.5653 147.917 13.84 150.243 13.84C151.757 13.84 153.091 14.16 154.243 14.8C155.416 15.44 156.333 16.4 156.995 17.68C157.656 18.9387 157.987 20.5067 157.987 22.384C157.987 23.984 157.656 25.392 156.995 26.608C156.333 27.8027 155.416 28.7413 154.243 29.424C153.091 30.0853 151.757 30.416 150.243 30.416ZM150.243 26.736C151.117 26.736 151.853 26.5333 152.451 26.128C153.069 25.7013 153.528 25.1573 153.827 24.496C154.147 23.8347 154.307 23.1307 154.307 22.384C154.307 21.04 153.955 19.8987 153.251 18.96C152.568 18 151.565 17.52 150.243 17.52C148.963 17.52 147.96 17.9787 147.235 18.896C146.531 19.8133 146.179 20.976 146.179 22.384C146.179 23.152 146.339 23.8667 146.659 24.528C146.979 25.1893 147.437 25.7227 148.035 26.128C148.653 26.5333 149.389 26.736 150.243 26.736ZM160.881 30V14H164.689V15.184C165.521 14.3307 166.513 13.9147 167.665 13.936C168.839 13.9573 170.129 14.192 171.537 14.64L169.681 17.936C168.871 17.6587 168.071 17.5733 167.281 17.68C166.513 17.7867 165.884 18.0213 165.393 18.384C164.903 18.7467 164.668 19.184 164.689 19.696V30H160.881Z" fill="#5F6C72"/>
</svg>
