<svg width="59" height="64" viewBox="0 0 59 64" fill="none" xmlns="http://www.w3.org/2000/svg">
<path d="M2.25102 20.699C16.3678 18.5837 30.4846 16.4685 44.6014 14.3532L56.79 12.5269L56.0805 0.289611C45.4301 6.15483 35.0949 15.8109 25.2097 28.5946C24.2701 29.8098 23.6014 32.1541 23.8105 35.4726C24.0013 38.5007 24.8651 40.8536 25.9192 40.8319C28.8092 40.7725 31.6351 42.7242 34.2909 46.3992L34.1524 35.629C32.742 37.7117 31.1616 39.4492 29.8606 42.0814C28.358 45.1215 27.849 51.059 28.601 56.1127C29.5094 62.2184 31.4455 63.2399 33.4338 63.5635C36.109 63.9987 35.9386 51.524 33.2734 51.0903C32.9179 51.0325 32.5508 50.8438 32.1959 50.8427C32.0831 50.8424 32.3494 50.9449 32.3441 51.1756C32.3236 52.0715 32.261 50.4941 32.38 51.399C32.5291 52.532 32.4064 50.6744 32.3913 51.7936C32.3802 52.6236 31.9589 52.7686 32.4249 52.2001C32.6365 51.9418 32.8396 51.5877 33.044 51.2858C34.1582 49.6404 35.2725 47.995 36.3867 46.3495C37.7208 44.3794 37.6282 37.489 36.2482 35.5794C32.9088 30.9584 29.4064 28.2839 25.7588 28.3588L26.4683 40.5961C36.3534 27.8124 46.6887 18.1564 57.3391 12.2911C59.6327 11.028 58.9456 -0.293215 56.6296 0.0538141C42.5128 2.16902 28.396 4.28425 14.2792 6.3995L2.09061 8.22582C-0.567489 8.6241 -0.421125 21.0993 2.25102 20.699Z" fill="#00B0FF" fill-opacity="0.3"/>
</svg>
